<svg width="333" height="163" viewBox="0 0 333 163" fill="none" xmlns="http://www.w3.org/2000/svg">
<path d="M288.432 -73.7553L394.071 214.677L105.638 320.315L0 31.8828L288.432 -73.7553ZM253.715 255.969L253.592 256.041L252.892 256.774L252.67 256.91L252.484 256.924L251.476 256.816C251.339 256.812 251.244 256.887 251.21 256.982L251.206 257.119L252.886 262.338L253.034 262.556L253.211 262.668L254.787 263.1L254.985 263.082L255.111 262.981L256.035 261.634L256.109 261.389L256.082 261.167L253.999 256.11C253.931 255.999 253.816 255.946 253.715 255.969ZM256.402 253.444L256.255 253.526L254.441 255.457L254.365 255.622L254.377 255.767L256.486 260.856L256.599 260.978L256.726 261.027L259.551 261.26C259.713 261.255 259.827 261.158 259.864 261.036L259.851 260.85L256.74 253.621C256.651 253.49 256.531 253.424 256.402 253.444ZM247.818 256.615C247.755 256.611 247.691 256.627 247.637 256.661C247.584 256.696 247.543 256.747 247.52 256.806L247.51 257.001L249.804 264.53C249.857 264.674 249.976 264.739 250.114 264.743L250.285 264.653L252.291 262.651L252.376 262.511L252.376 262.361L250.688 257.118L250.599 256.987L250.435 256.911L247.818 256.615Z" fill="#1E1E1E"/>
<path d="M246.766 136.373C264.559 129.857 284.228 130.719 301.446 138.771C318.664 146.823 332.021 161.404 338.578 179.308L343.523 192.809C346.145 199.97 345.834 207.874 342.656 214.781C339.478 221.688 333.694 227.033 326.577 229.64L138.73 298.438C131.613 301.045 123.746 300.7 116.859 297.479C109.971 294.258 104.629 288.426 102.006 281.264L97.061 267.763C90.5038 249.86 91.2834 230.101 99.2282 212.833C107.173 195.565 121.632 182.203 139.425 175.687L246.766 136.373ZM295.086 43.3561C296.598 40.0267 299.323 37.4092 302.701 36.0394C306.08 34.6696 309.856 34.6511 313.259 35.9877C316.661 37.3242 319.432 39.9148 321.003 43.2291C322.575 46.5434 322.828 50.3308 321.712 53.8161L321.055 55.5115L297.094 107.59C295.635 110.761 293.072 113.283 289.887 114.684C286.702 116.084 283.112 116.267 279.793 115.197L278.121 114.539L252.157 102.397C248.837 100.863 246.221 98.1156 244.844 94.7156C243.467 91.3156 243.434 87.5207 244.75 84.1075C246.067 80.6944 248.634 77.9211 251.927 76.3554C255.219 74.7898 258.987 74.55 262.461 75.6853L264.137 76.3575L277.12 82.4284L295.086 43.3561ZM133.758 -5.98301C151.551 -12.4996 171.22 -11.6372 188.438 -3.58538C205.656 4.46641 219.013 19.048 225.57 36.9515C232.127 54.8551 231.348 74.6141 223.403 91.8818C215.458 109.149 200.999 122.511 183.206 129.028C165.413 135.545 145.744 134.682 128.526 126.63C111.308 118.579 97.9514 103.997 91.3942 86.0934C84.837 68.1898 85.6166 48.4308 93.5615 31.1631C101.506 13.8955 115.966 0.533599 133.758 -5.98301Z" fill="#FC11F5"/>
</svg>
