<svg width="47" height="48" viewBox="0 0 47 48" fill="none" xmlns="http://www.w3.org/2000/svg">
<path fill-rule="evenodd" clip-rule="evenodd" d="M3.91701 24.0897C3.91701 13.2738 12.6845 4.50635 23.5003 4.50635C34.3162 4.50635 43.0837 13.2738 43.0837 24.0897C43.0837 34.9056 34.3162 43.673 23.5003 43.673C20.6147 43.6769 17.7642 43.0409 15.1539 41.8106L6.26897 43.6319C5.95173 43.6967 5.62337 43.6819 5.31327 43.5887C5.00317 43.4955 4.72101 43.3269 4.49205 43.098C4.26309 42.869 4.09448 42.5869 4.0013 42.2768C3.90812 41.9667 3.89329 41.6383 3.95814 41.3211L5.77939 32.4361C4.54914 29.8259 3.91308 26.9753 3.91701 24.0897ZM14.6878 21.1522C13.9088 21.1522 13.1616 21.4617 12.6107 22.0126C12.0598 22.5634 11.7503 23.3106 11.7503 24.0897V24.1093C11.7503 24.8883 12.0598 25.6355 12.6107 26.1864C13.1616 26.7373 13.9088 27.0468 14.6878 27.0468H14.7074C15.4865 27.0468 16.2337 26.7373 16.7846 26.1864C17.3354 25.6355 17.6449 24.8883 17.6449 24.1093V24.0897C17.6449 23.3106 17.3354 22.5634 16.7846 22.0126C16.2337 21.4617 15.4865 21.1522 14.7074 21.1522H14.6878ZM23.5003 21.1522C22.7213 21.1522 21.9741 21.4617 21.4232 22.0126C20.8723 22.5634 20.5628 23.3106 20.5628 24.0897V24.1093C20.5628 24.8883 20.8723 25.6355 21.4232 26.1864C21.9741 26.7373 22.7213 27.0468 23.5003 27.0468H23.5199C24.299 27.0468 25.0462 26.7373 25.5971 26.1864C26.1479 25.6355 26.4574 24.8883 26.4574 24.1093V24.0897C26.4574 23.3106 26.1479 22.5634 25.5971 22.0126C25.0462 21.4617 24.299 21.1522 23.5199 21.1522H23.5003ZM29.3753 24.0897C29.3753 23.3106 29.6848 22.5634 30.2357 22.0126C30.7866 21.4617 31.5338 21.1522 32.3128 21.1522H32.3324C33.1115 21.1522 33.8587 21.4617 34.4096 22.0126C34.9604 22.5634 35.2699 23.3106 35.2699 24.0897V24.1093C35.2699 24.8883 34.9604 25.6355 34.4096 26.1864C33.8587 26.7373 33.1115 27.0468 32.3324 27.0468H32.3128C31.5338 27.0468 30.7866 26.7373 30.2357 26.1864C29.6848 25.6355 29.3753 24.8883 29.3753 24.1093V24.0897Z" fill="#36E232"/>
</svg>
