<svg width="386" height="235" viewBox="0 0 386 235" fill="none" xmlns="http://www.w3.org/2000/svg">
<path d="M385.342 0H0V235H385.342V0Z" fill="#FFE8FE"/>
<path fill-rule="evenodd" clip-rule="evenodd" d="M84.4648 39.2163C106.043 39.2163 123.536 21.7697 123.536 0.248222C123.536 -21.2733 106.043 -38.7199 84.4648 -38.7199C62.886 -38.7199 45.3931 -21.2733 45.3931 0.248222C45.3931 21.7697 62.886 39.2163 84.4648 39.2163Z" fill="white"/>
<path fill-rule="evenodd" clip-rule="evenodd" d="M123.138 53.4136C140.401 53.4136 154.396 39.4563 154.396 22.2391C154.396 5.02193 140.401 -8.93536 123.138 -8.93536C105.875 -8.93536 91.8809 5.02193 91.8809 22.2391C91.8809 39.4563 105.875 53.4136 123.138 53.4136Z" fill="white"/>
<path fill-rule="evenodd" clip-rule="evenodd" d="M185.902 90.2471C224.195 90.2471 255.236 59.2877 255.236 21.0974C255.236 -17.093 224.195 -48.0524 185.902 -48.0524C147.61 -48.0524 116.569 -17.093 116.569 21.0974C116.569 59.2877 147.61 90.2471 185.902 90.2471Z" fill="white"/>
<path fill-rule="evenodd" clip-rule="evenodd" d="M268.674 49.4423C298.967 49.4423 323.524 24.9504 323.524 -5.26196C323.524 -35.4743 298.967 -59.9662 268.674 -59.9662C238.382 -59.9662 213.825 -35.4743 213.825 -5.26196C213.825 24.9504 238.382 49.4423 268.674 49.4423Z" fill="white"/>
<path fill-rule="evenodd" clip-rule="evenodd" d="M346.818 15.9843C377.111 15.9843 401.668 -8.50761 401.668 -38.7199C401.668 -68.9323 377.111 -93.4242 346.818 -93.4242C316.526 -93.4242 291.969 -68.9323 291.969 -38.7199C291.969 -8.50761 316.526 15.9843 346.818 15.9843Z" fill="white"/>
<path fill-rule="evenodd" clip-rule="evenodd" d="M139.806 130.592C139.539 134.933 139.272 139.273 139.006 143.615C140.72 143.123 151.621 139.925 150.948 143.167C150.465 145.492 147.4 148.008 145.838 149.628C144.401 151.119 142.921 152.57 141.403 153.98C144.193 152.916 147.006 151.907 149.838 150.964C151.981 150.251 154.14 149.554 156.337 149.019C157.153 148.82 159.354 148.01 160.124 148.562C162.148 150.015 151.167 160.71 149.663 162.219C151.789 161.232 153.967 160.336 156.183 159.568C157.782 159.013 162.722 156.891 164.138 158.703C165.653 160.641 161.9 165.091 160.86 166.502C159.367 168.523 157.752 170.463 156.057 172.317C163.103 178.629 171.386 184.245 180.199 187.737C186.661 190.296 193.009 190.949 199.829 189.544C206.834 188.1 213.552 185.332 219.939 182.167C223.69 180.309 227.391 178.297 230.918 176.038C229.464 174.275 228.053 172.475 226.681 170.649C224.724 168.039 222.319 165.189 221.202 162.083C220.11 159.043 224.209 159.637 226.174 159.802C229.02 160.041 231.858 160.549 234.647 161.155C232.675 159.788 230.739 158.365 228.841 156.897C226.368 154.983 223.07 152.819 221.45 150.066C220.027 147.645 223.151 148.256 224.596 148.573C228.04 149.33 231.391 150.619 234.676 151.876C237.082 152.798 239.473 153.762 241.84 154.777C240.371 153.504 238.95 152.168 237.586 150.784C235.75 148.925 233.276 146.653 232.453 144.092C230.778 138.875 242.047 142.81 243.971 143.615C243.616 138.211 243.262 132.807 242.906 127.403C227.983 131.362 213.06 135.321 198.139 139.28C196.526 139.708 194.507 140.641 192.826 140.69C191.302 140.735 189.462 140.052 187.977 139.769L160.972 134.625C153.916 133.281 146.862 131.937 139.806 130.592Z" fill="#FF5678"/>
<path fill-rule="evenodd" clip-rule="evenodd" d="M300.191 316.459C298.58 317.378 296.693 318.088 294.903 318.563C293.852 318.843 292.115 319.707 291.192 318.916C290.748 318.536 290.647 317.672 290.385 317.172C289.972 316.379 289.382 315.695 288.832 314.995C287.495 313.299 286.105 311.661 284.65 310.065C283.961 309.308 282.702 307.542 281.486 307.658C279.972 307.803 280.009 309.893 280.388 310.96C281.597 314.359 285.253 317.321 287.642 319.882C287.035 320.814 283.699 320.703 282.773 320.485C281.359 320.152 281.216 319.148 280.571 318C279.061 315.316 275.998 313.815 273.481 312.236C272.563 311.66 270.613 310.066 269.416 310.468C268.283 310.848 268.332 312.292 268.693 313.234C269.238 314.659 270.79 315.648 271.937 316.548C273.467 317.748 274.866 319.054 276.141 320.523C274.303 320.673 272.473 320.931 270.64 321.082C268.423 321.264 266.575 320.052 264.535 319.364C262.638 318.725 260.749 318.185 258.885 317.45C256.791 316.623 254.598 316.335 252.487 315.61C244.2 312.764 236.08 309.185 228.093 305.577C224.287 303.858 220.56 302.137 216.595 300.792C213.706 299.811 209.165 297.857 208.475 294.425C208.109 292.612 209.438 290.662 209.634 288.85C209.864 286.72 209.683 284.375 209.032 282.33C208.458 280.529 207.507 278.86 206.757 277.13C205.883 275.115 206.666 275.148 208.362 274.918C210.393 274.644 212.762 273.504 214.671 272.762C216.869 271.906 219.049 270.712 221.063 269.483C222.885 268.372 224.47 266.939 225.919 265.383C227.394 263.8 228.349 261.924 229.775 260.303C235.038 266.756 240.04 273.308 245.633 279.482C248.273 282.397 251.143 284.807 254.396 287.023C255.754 287.948 257.102 289.005 258.581 289.736C260.431 290.652 262.5 291.22 264.402 292.056C271.694 295.259 278.654 298.762 285.457 302.895C288.749 304.894 291.511 307.187 294.409 309.696C295.311 310.476 302.701 315.027 300.191 316.459ZM214.645 263.591C213.467 264.123 212.344 264.814 211.087 265.156C211.443 262.994 213.467 259.732 216.061 260.091C217.052 260.228 217.801 260.996 217.365 262.054C216.969 263.015 215.485 263.212 214.645 263.591ZM132.617 204.943C131.281 205.679 130.035 206.108 129.252 204.529C129.832 204.413 132.468 204.063 132.617 204.943ZM130.392 200.482C129.36 200.169 130.186 199.841 130.54 199.464C130.817 199.171 131.734 198.143 132.054 197.973C133.471 197.225 134.565 200.008 135.243 200.912C133.639 200.77 131.953 200.953 130.392 200.482ZM141.43 210.118C139.474 210.448 139.691 208.007 139.75 206.77C140.162 207.273 142.957 209.86 141.43 210.118ZM147.916 205.901C145.531 206.303 143.954 202.193 144.382 200.395C144.758 198.812 146.607 197.927 148.079 197.694C149.506 197.467 151.492 197.776 151.916 199.416C152.29 200.867 149.507 205.633 147.916 205.901ZM204.391 267.94C202.677 268.466 200.997 268.531 199.274 269.048C197.318 269.632 195.509 269.581 193.55 269.979C192.752 270.14 190.602 271.298 189.825 271.039C189.055 270.783 187.94 268.4 187.497 267.781C190.964 266.344 193.921 264.49 196.206 261.463C198.022 259.056 199.97 255.45 198.828 252.344C197.538 248.841 193.096 248.08 190.133 249.543C188.732 250.235 187.342 251.096 186.186 252.15C184.865 253.355 184.346 254.671 183.49 256.157C182.625 257.661 182.017 256.825 181.152 255.548C180.413 254.456 180.509 253.354 179.585 252.277C179.115 251.728 178.385 251.198 178.139 250.488C177.983 250.038 178.311 249.241 178.016 248.887C177.599 248.389 177.094 248.974 176.745 248.529C176.492 248.206 176.575 247.471 176.314 247.067C176.087 246.837 175.835 246.642 175.557 246.479C175.218 246.312 175.157 246.104 175.371 245.853C175.102 245.356 175.362 245.189 174.785 244.585C173.887 243.643 173.069 242.742 172.43 241.631C172.137 241.122 172.166 240.368 171.804 239.927C171.305 239.324 170.476 239.414 170.048 238.666C169.667 237.999 169.921 236.834 169.292 236.228C168.961 236.134 168.629 236.041 168.297 235.95C168.047 235.708 167.902 235.415 167.861 235.069C167.511 234.533 167.442 233.903 167.001 233.337C166.157 232.254 165.021 231.252 164.275 230.11C163.492 228.909 163.907 228.708 165.269 228.278C166.497 227.889 167.618 227.53 168.757 226.87C174.019 223.816 179.008 215.716 170.655 213.242C167.555 212.324 165.009 209.855 161.572 210.826C160.082 211.247 158.669 212.142 157.557 213.206C156.789 213.94 156.078 215.906 155.135 216.282C153.44 216.959 154.156 215.268 153.676 214.491C153.446 214.12 152.521 213.693 152.178 213.356C151.775 212.96 151.387 212.46 151.107 211.971C150.59 211.063 150.272 210.557 149.525 209.816C149.243 209.537 147.835 208.095 149.104 208.283C148.591 206.722 149.34 206.486 150.378 205.346C151.595 204.005 152.851 202.144 152.858 200.266C152.873 196.662 148.589 195.047 145.898 197.187C145.351 197.622 142.112 201.825 142.775 199.144C143.133 197.699 146.44 193.925 147.974 194.902C146.255 192.405 142.307 198.468 141.387 199.708C140.601 198.269 140.546 197.142 139.247 196.027C138.191 197.717 138.75 195.87 138.517 195.494C138.013 194.684 138.29 195.611 138.016 195.323C137.677 194.965 137.141 194.682 136.78 194.206C136.161 195.044 136.407 194.143 136.218 193.83C135.774 193.098 135.945 192.673 135.185 192.037C134.631 191.574 133.541 190.855 132.797 190.79C131.938 190.714 131.7 191.042 130.824 190.8C129.711 190.491 128.309 190.016 128.849 191.873C129.24 193.222 130.831 193.99 131.179 195.368C131.531 196.756 130.154 198.155 129.487 199.291C128.629 200.752 127.928 200.632 126.375 200.961C125.382 201.172 124.057 201.621 124.908 202.822C125.516 203.68 126.942 203.499 127.744 204.007C128.869 204.72 128.853 206.476 130.29 206.782C131.872 207.118 132.778 205.362 134.112 204.937C135.061 204.637 137.999 204.67 138.746 205.38C139.763 206.347 138.884 208.196 139.14 209.397C139.52 211.18 140.73 211.289 142.26 211.346C144.142 211.416 144.804 213.219 145.817 214.648C148.189 217.998 150.25 221.568 152.68 224.872C153.755 226.336 155.329 227.637 156.21 229.225C157.297 231.186 155.787 232.316 154.485 233.724C152.783 235.564 151.511 237.657 150.034 239.667C148.722 241.454 147.092 241.01 144.995 241.01C145.462 240.048 146.025 239.45 147.174 239.566C145.972 238.103 145.01 239.776 144.231 240.704C143.103 242.045 141.633 242.369 140.183 243.25C139.67 243.562 136.878 245.584 137.726 246.274C137.823 246.353 142.445 243.322 142.971 243.044C142.971 244.163 142.726 245.325 142.883 246.438C142.998 247.254 143.574 248.105 143.451 248.954C143.219 250.555 141.143 251.817 140.252 253.065C139.581 254.005 139.743 254.745 139.401 255.754C139.09 256.673 139.253 256.395 138.478 256.679C136.897 257.258 134.238 256.945 132.808 256.123C131.92 255.613 131.239 254.806 130.517 254.094C129.974 253.558 128.607 252.642 128.457 251.892C128.197 250.6 130.769 248.2 131.279 246.867C132.716 243.106 130.25 240.184 126.414 239.97C127.597 239.06 129.062 239.746 130.308 240.092C128.178 237.148 124.539 239.571 122.731 241.571C121.496 238.459 120.9 235.176 120.147 231.929C119.632 229.719 117.676 225.775 118.549 223.499C118.97 222.399 120.162 221.786 120.985 221.023C121.92 220.155 122.722 219.12 123.407 218.047C125.018 215.519 125.949 212.328 123.73 209.837C124.404 209.727 125.079 209.617 125.753 209.505C124.656 208.478 122.926 208.978 121.502 208.674C120.599 208.481 117.999 208.606 117.397 208.097C116.671 207.483 117.136 204.663 117.162 203.829C117.222 201.88 117.385 200.004 117.601 198.065C117.806 196.234 117.764 194.256 118.145 192.457C118.452 190.997 119.437 190.553 120.574 189.692C123.288 187.635 125.501 185.133 124.574 181.587C124.903 181.535 125.231 181.483 125.56 181.431C124.498 180.665 123.122 180.944 121.94 180.539C123.026 177.493 125.427 172.14 129.324 171.851C129.457 173.213 129.366 174.832 130.287 175.959C131.336 177.242 133.177 177.371 134.598 176.693C135.887 176.076 137.097 174.77 137.692 173.479C138.094 172.605 138.021 171.128 138.727 170.436C139.673 169.507 146.198 170.068 145.999 171.635C145.88 172.557 144.136 174.105 143.648 174.923C142.755 176.418 142.042 178.034 141.713 179.752C141.216 182.359 141.504 185.8 144.16 187.171C147.18 188.731 150.86 186.748 153.337 185.034C154.698 184.094 156.015 183.057 157.257 181.967C157.919 181.387 158.584 180.789 159.168 180.13C159.598 179.642 159.942 178.857 160.473 178.493C161.725 177.631 162.952 179.092 164.011 179.831C165.739 181.033 167.456 182.175 169.309 183.176C173.069 185.207 176.506 187.897 179.831 190.567C183.175 193.255 186.623 196.018 189.332 199.366C187.691 200.371 187.984 200.634 187.253 202.428C186.736 203.701 186.022 204.786 185.94 206.201C185.798 208.644 187.37 210.725 189.757 211.266C191.092 211.568 192.364 211.326 193.6 210.782C194.562 210.359 195.52 209.318 196.524 209.06C198.391 208.579 199.885 212.095 200.931 213.334C205.578 218.834 210.49 224.117 214.866 229.841C215.351 230.476 216.791 231.715 216.907 232.554C217.075 233.76 215.173 234.909 214.385 235.6C213.969 235.962 209.577 240.082 211.052 240.737C211.472 240.924 212.703 238.396 213.011 238.18C214.164 237.371 213.292 238.957 213.223 239.76C213.052 241.753 214.424 242.839 216.356 242.586C218.415 242.317 220.25 240.696 221.525 239.164C223.123 241.009 225.62 243.797 226.082 246.263C226.377 247.837 225.011 251.69 227.561 252.011C227.951 252.061 229.36 251.018 229.623 251.61C229.842 252.103 228.319 252.948 228.099 253.111C227.16 253.81 226.593 254.559 225.835 255.404C224.945 256.398 223.73 257.235 222.729 258.186C221.674 259.189 219.588 261.912 218.197 260.597C217.497 259.936 217.682 259.071 216.561 258.683C215.541 258.33 214.249 258.778 213.301 259.17C212.233 259.611 208.718 261.22 208.328 262.546C207.791 264.373 210.695 262.176 211.212 261.855C210.623 263.346 210.297 265.504 208.797 266.374C207.551 267.096 205.758 267.521 204.391 267.94ZM184.467 256.664C185.465 253.467 191.347 247.769 195.065 249.551C190.732 250.456 187.293 253.413 184.467 256.664ZM186.667 265.818C185.217 265.013 185.295 262.673 184.789 261.304C184.498 260.518 183.918 259.945 184.088 259.073C184.288 258.051 185.595 256.914 186.292 256.178C188.482 253.858 192.335 250.688 195.86 251.22C200.348 251.897 197.306 257.902 195.777 259.97C194.475 261.734 189.458 267.369 186.667 265.818ZM176.2 261.908C171.348 261.586 166.512 261.154 161.726 260.265C160.029 259.95 158.607 259.997 159.578 258.052C159.898 257.41 161.831 253.386 162.268 253.502C162.527 253.571 162.467 256.336 162.543 256.652C162.887 258.076 163.848 259.402 165.471 259.312C168.125 259.165 169.835 255.744 171.232 253.907C172.351 255.408 173.162 257.075 174.288 258.551C174.825 259.257 176.698 260.897 176.2 261.908ZM147.753 242.919C146.938 244.781 145.301 246.552 144.163 248.24C143.519 246.881 143.066 243.763 144.593 242.758C145.171 242.378 148.267 241.741 147.753 242.919ZM164.581 248.465C164.805 247.748 165.054 247.037 165.33 246.339C165.805 247.828 166.047 247.873 164.581 248.465ZM168.735 249.991C169.323 250.986 170.306 251.965 170.151 253.214C170.035 254.161 169.176 255.132 168.563 255.793C167.548 256.885 165.3 258.98 163.829 257.53C162.601 256.319 163.029 252.989 163.6 251.627C164.417 249.68 167.33 247.62 168.735 249.991ZM165.853 247.951C166.19 247.817 165.482 245.645 166.14 245.429C166.714 246.733 167.255 247.087 165.853 247.951ZM156.581 218.716C156.362 217.914 155.861 217.947 156.042 216.957C156.16 216.307 156.678 215.613 157.07 215.098C157.852 214.072 158.883 213.227 159.999 212.586C162.353 211.235 165.587 210.673 167.696 212.789C165.725 213.099 159.682 215.038 159.643 217.727C161.835 217.306 163.559 215.111 165.757 214.419C167.561 213.851 169.518 213.891 171.313 214.49C176.227 216.131 174.184 220.366 171.411 223.116C169.764 224.748 167.79 225.967 165.632 226.808C164.634 227.198 164.021 227.241 163.039 227.046C162.856 227.009 162.641 226.668 162.42 226.596C161.872 226.415 162.031 227.028 161.58 226.753C161.186 226.512 160.346 224.964 160.078 224.52C159.652 223.814 159.453 223.128 158.931 222.484C158.407 221.838 158.152 220.974 157.667 220.391C157.434 220.11 156.797 220.122 156.626 219.848C156.369 219.436 156.696 219.137 156.581 218.716ZM149.036 250.292C150.153 248.357 152.063 246.715 153.541 245.024C153.632 247.803 151.633 249.707 149.036 250.292ZM150.545 251.186C152.851 250.377 154.122 248.441 154.356 246.094C154.655 243.121 156.528 241.562 157.654 238.89C158.086 237.867 158.59 234.499 160.266 235.463C160.841 235.793 161.181 237.037 161.481 237.599C162.206 238.958 163.029 240.276 163.797 241.61C164.424 242.696 165.361 243.789 165.086 245.097C164.845 246.238 164.069 247.453 163.616 248.528C162.545 251.068 161.138 253.408 159.962 255.892C159.487 256.894 158.926 259.266 157.477 259.255C156.331 259.245 156.46 257.996 155.704 257.567C154.752 257.027 153.669 258.055 152.886 258.481C153.787 256.964 155.363 256.105 157.134 256.391C155.013 254.285 153.58 257.126 151.76 257.759C150.036 258.359 146.977 255.531 145.525 254.73C146.08 253.792 146.582 252.645 147.538 252.028C148.443 251.443 149.555 251.532 150.545 251.186ZM131.795 270.427C132.047 269.214 132.761 268.498 133.214 267.397C133.739 268.732 132.51 269.519 131.795 270.427ZM168.435 277.866C168.312 281.948 167.977 286.02 167.857 290.103C167.801 291.987 167.467 293.784 167.245 295.645C167.057 297.219 167.152 298.765 166.159 300.11C164.592 302.231 161.545 302.84 159.179 303.626C157.442 304.202 155.686 304.726 153.97 305.366C152.427 305.943 151.183 306.816 149.716 307.501C148.404 308.115 146.986 308.478 145.679 309.132C144.327 309.808 143.259 310.632 141.87 311.234C140.209 311.953 138.839 313.235 137.361 314.253C136.06 315.147 134.683 315.839 133.564 316.965C132.514 318.021 131.186 318.485 129.997 319.423C128.738 320.416 127.422 321.061 126.033 321.839C123.186 323.434 119.345 326.158 115.92 324.609C116.9 323.361 118.905 322.162 119.058 320.443C119.256 318.204 117.301 319.028 116.169 319.743C114.455 320.826 113.506 322.134 112.201 323.577C110.675 325.264 108.748 324.129 106.88 323.655C108.157 322.509 109.424 321.352 110.698 320.205C111.774 319.236 113.419 318.188 114.074 316.849C114.543 315.891 114.52 314.577 113.39 314.081C112.126 313.525 110.697 314.697 109.76 315.395C107.275 317.249 105.638 319.6 104.006 322.18C103.138 323.552 102.738 323.447 101.141 323.173C99.4492 322.882 97.7567 322.572 96.0505 322.369C98.3107 320.054 100.837 317.547 102.622 314.839C103.2 313.962 103.954 311.649 102.193 311.436C101.467 311.349 100.02 312.829 99.4607 313.228C97.013 314.972 94.6597 317.173 93.0374 319.719C92.5017 320.56 92.3336 321.495 91.2965 321.565C89.9408 321.656 87.4213 320.366 86.1134 319.967C88.6132 316.826 91.0955 313.661 94.0159 310.891C96.6993 308.344 99.376 306.495 102.514 304.543C105.878 302.449 109.01 300.039 112.098 297.567C115.055 295.199 118.143 292.967 120.863 290.324C126.299 285.045 131.139 278.973 135.148 272.553C136.086 271.051 136.969 269.509 137.732 267.911C138.449 266.41 138.78 264.615 139.747 263.25C140.082 262.778 140.552 262.428 140.85 261.935C141.132 261.471 141.036 260.912 141.464 260.501C142.456 259.552 144.261 260.124 145.187 260.789C146.677 261.859 147.882 263.156 149.52 264.052C151.166 264.951 152.948 265.607 154.772 266.048C159.034 267.082 163.259 267.93 167.601 268.557C167.154 270.209 168.252 270.469 168.615 271.957C169.056 273.76 168.491 276.028 168.435 277.866ZM127.396 250.316C126.429 248.886 125.567 247.388 124.617 245.948C124.039 245.07 123.322 244.128 123.816 243.055C124.649 241.246 127.587 240.923 129.18 241.712C132.805 243.505 129.438 248.632 127.396 250.316ZM117.802 217.578C117.469 214.78 118.542 212.796 121.08 211.328C122.89 210.283 124.346 211.711 124.1 213.618C123.724 216.522 120.611 219.751 118.236 221.266C118.081 220.038 117.95 218.807 117.802 217.578ZM117.415 209.573C118.165 208.98 120.169 209.737 121.038 209.788C119.844 210.828 118.65 211.867 117.458 212.907C117.379 212.193 116.724 210.12 117.415 209.573ZM121.442 182.552C127.48 181.77 120.529 188.23 118.78 189.243C119.065 187.868 119.763 182.771 121.442 182.552ZM137.517 171.242C136.706 174.553 130.403 178.165 130.337 172.741C130.312 170.72 131.451 170.884 133.113 170.69C134.061 170.579 137.98 169.349 137.517 171.242ZM115.745 176.37C115.037 178.222 114.469 180.121 113.777 181.975C113.469 182.796 113.108 183.36 112.535 184.011C112.056 184.554 111.486 184.692 111.505 185.551C112.105 185.436 112.574 185.079 113.06 184.735C112.941 186.439 112.338 188.273 112.046 189.972C111.695 192.009 111.403 194.046 111.295 196.112C111.06 200.604 111.058 205.078 111.157 209.573C111.207 211.863 111.23 214.155 111.354 216.441C111.416 217.58 111.486 218.723 111.626 219.854C111.684 220.31 112.017 221.282 111.812 221.71C111.004 223.39 107.433 218.775 105.881 219.452C106.104 218.175 105.589 218.454 104.729 217.825C104.313 217.52 104.042 217.002 103.607 216.731C103.476 216.589 103.331 216.464 103.174 216.354C102.994 216.11 102.805 216.135 102.606 216.431C100.858 215.39 100.407 213.17 99.4681 211.676C98.9854 210.908 98.5192 210.788 98.4369 209.727C98.3655 208.801 98.5051 207.858 98.4674 206.929C98.4247 205.882 98.3632 204.726 98.0683 203.711C97.726 202.533 97.2552 202.629 96.3381 202.001C96.6207 201.878 96.807 201.671 96.8972 201.38C96.6043 201.433 95.7143 201.794 95.4932 201.534C95.0584 201.023 96.0844 200.955 96.3542 200.751C95.2034 200.241 95.4513 199.823 95.8665 198.89C95.9841 198.626 96.0962 198.231 96.1962 198.009C96.4146 197.522 96.54 197.83 96.6122 197.225C96.6808 196.649 96.1683 195.516 96.0174 194.902C95.7642 193.873 95.6242 192.982 95.8516 191.909C96.0358 191.04 96.5314 190.254 96.5659 189.36C96.5758 189.109 96.1923 189.026 96.1871 188.784C96.1798 188.43 96.511 188.274 96.5973 187.947C96.8173 187.109 96.718 186.225 97.0944 185.43C97.4331 184.717 98.1173 183.793 98.6015 183.171C98.9372 182.739 99.7606 182.253 99.8502 181.683C99.9099 181.305 99.321 181.349 99.3472 181.064C99.3829 180.68 99.7069 180.555 99.7955 180.269C100.04 179.484 100.102 178.729 100.735 178.127C101.534 177.37 101.88 177.688 101.913 176.439C101.929 175.829 101.44 175.735 101.702 175.032C101.844 174.651 102.264 174.425 102.532 174.155C103.33 173.353 103.868 172.641 104.435 171.65C104.937 170.775 105.738 170.265 106.253 169.509C106.923 168.523 105.922 168.034 107.28 167.756C107.087 167.145 106.882 166.65 107.391 166.132C107.711 165.806 108.526 166.005 108.809 165.628C109.135 165.194 108.653 164.165 109.144 163.884C109.543 163.655 110.14 164.36 110.766 164.012C111.244 163.745 111.965 162.276 111.812 161.737C113.046 162.429 112.738 161.952 113.329 161.064C113.461 160.864 113.863 160.821 113.977 160.619C114.205 160.218 114.153 159.808 114.481 159.481C115.029 158.937 115.925 159.077 116.528 158.689C117.026 158.368 116.999 158.022 117.396 157.719C117.737 157.461 118.294 157.411 118.624 157.143C119.271 156.618 119.277 156.064 120.086 155.611C121.043 155.076 121.892 154.621 122.763 153.912C123.331 153.449 123.87 152.629 124.535 152.324C125.453 151.902 126.169 151.872 127.069 151.27C127.718 150.835 128.332 150.116 128.97 149.75C129.451 149.473 129.79 149.532 130.396 149.362C131.487 149.053 131.753 148.027 132.644 147.61C133.255 147.323 134.145 147.585 134.816 147.435C136.905 146.968 138.969 145.959 141.064 145.4C143.623 144.719 146.2 144.121 148.778 143.52C146.409 146.721 143.391 149.61 140.33 152.152C139.326 152.987 133.821 156.793 136.788 158.418C137.979 159.07 140.566 156.964 141.529 156.448C143.465 155.412 145.471 154.581 147.499 153.743C150.779 152.386 155.05 149.974 158.695 150.168C156.476 152.882 153.706 155.06 151.169 157.458C148.837 159.661 145.323 161.727 146.423 165.333C143.147 164.503 140.205 163.52 136.8 163.738C135.274 163.836 133.748 163.652 132.229 163.866C130.578 164.098 129.023 164.649 127.436 165.132C126.181 165.515 124.793 165.545 123.639 166.181C123.08 166.489 122.39 166.927 121.889 167.309C121.22 167.817 121.068 168.154 120.543 168.824C118.67 171.215 116.858 173.457 115.745 176.37ZM105.5 221.625C105.398 221.212 105.305 220.833 105.188 220.361C106.23 221.001 106.23 221.001 105.5 221.625ZM97.6215 208.445C97.4929 208.622 96.953 208.678 96.7961 208.526C96.6009 208.336 97.1141 207.595 97.1965 207.438C97.4 207.594 97.8681 208.104 97.6215 208.445ZM95.3894 203.648C95.5274 203.142 95.6658 202.637 95.8038 202.132C95.9732 202.6 96.7373 203.118 96.7542 203.564C96.7648 203.86 95.5404 203.713 95.3894 203.648ZM95.8324 204.341C97.0286 205.126 97.1537 206.052 97.1894 207.408C95.7579 206.935 95.9634 205.553 95.8324 204.341ZM116.635 150.864C116.514 151.189 116.002 152.205 115.626 151.494C115.506 151.267 116.385 150.957 116.635 150.864ZM116.291 149.757C116.587 149.492 117.183 149.822 117.518 149.607C117.752 149.457 117.674 149.304 117.784 149.215C117.806 149.197 118.125 148.553 118.255 148.407C118.486 148.151 118.989 147.99 119.27 147.759C120.053 147.112 120.495 146.261 120.988 145.395C121.576 144.361 121.763 144.242 122.712 143.768C123.366 143.441 123.873 143.042 124.405 142.487C125.018 141.849 124.973 141.391 125.476 140.693C125.725 140.349 126.083 140.306 126.373 140.028C126.72 139.695 126.897 139.23 127.217 138.894C127.357 138.749 127.802 138.75 127.885 138.625C127.993 138.468 128.076 137.839 128.177 137.724C128.368 137.982 128.56 138.24 128.751 138.498C129.508 137.173 130.059 136.078 131.324 135.195C132.651 134.269 133.797 132.913 135.169 132.084C135.478 131.898 136.106 131.819 136.342 131.545C136.74 131.08 136.394 130.667 136.685 130.272C137.015 129.825 137.654 130.186 138.073 129.994C138.603 129.749 138.755 129.037 139.438 129.115C137.192 131.764 137.221 135.885 137.101 139.194C137.049 140.62 137.95 141.338 136.62 142.384C135.49 143.275 133.895 143.01 132.558 143.595C130.88 144.331 129.084 144.722 127.371 145.363C125.599 146.027 124.174 147.187 122.469 147.955C120.966 148.632 119.939 149.594 118.564 150.43C118.052 150.741 117.26 151.191 116.651 150.82C116.268 150.588 115.793 150.205 116.291 149.757ZM141.654 127.547C141.753 127.17 143.669 126.181 144.141 125.859C144.849 125.374 145.896 124.19 146.686 124.66C146.96 123.567 148.028 122.351 148.972 122.119C150.018 121.861 151.815 120.966 152.844 120.186C153.145 119.957 153.245 119.624 153.599 119.409C154.215 119.037 154.826 119.24 155.42 118.732C155.511 118.655 156.332 117.302 156.365 117.315C156.407 117.46 156.445 117.606 156.479 117.754C157.102 117.41 157.657 117.136 158.046 116.696C158.134 116.596 157.563 116.336 157.743 116.139C157.964 115.898 158.457 116.168 158.68 115.938C157.986 119.372 158.503 123.793 161.998 125.535C157.842 125.983 153.782 124.737 149.574 125.502C147.56 125.868 145.513 126.47 143.68 127.393C142.558 127.959 141.123 129.987 140.005 129.003C140.449 128.413 141.125 128.047 141.654 127.547ZM161.822 117.666C163.376 115.77 165.734 115.02 168.109 115.699C170.888 116.493 169.715 118.43 169.296 120.581C168.494 119.408 166.756 118.245 165.277 118.21C163.179 118.16 163.972 119.903 165.231 120.527C166.377 121.094 168.341 121.252 169.16 122.283C169.958 123.287 169.653 124.929 169.781 126.113C169.161 126.02 168.541 125.929 167.92 125.837C168.44 123.074 166.149 122.941 164.012 122.161C161.853 121.375 160.053 119.822 161.822 117.666ZM168.784 110.862V113.426C167.92 112.935 167.056 112.444 166.19 111.952C167.056 111.589 167.92 111.225 168.784 110.862ZM175.732 131.35C178.618 132.129 181.484 132.954 184.258 134.029C185.265 134.421 186.369 134.559 187.357 135C188.297 135.419 188.438 135.376 188.104 136.198C187.167 138.499 184.948 138.102 183.004 137.75C179.961 137.198 176.98 136.434 173.975 135.715C171.037 135.013 168.038 134.553 165.145 133.672C162.176 132.77 159.283 131.915 156.229 131.318C155.338 131.144 148.288 130.499 148.342 129.764C152.782 129.189 157.353 129.756 161.812 129.816C166.448 129.878 171.236 130.135 175.732 131.35ZM171.814 122.446C171.87 120.865 171.891 119.277 172.089 117.704C173.41 119.329 174.602 119.816 176.267 118.292C177.861 116.834 178.217 116.073 180.237 117.444C181.99 118.634 183.648 118.579 185.508 117.538C186.643 116.903 188.467 114.308 189.66 114.842C190.229 115.097 190.646 116.123 191.219 116.501C191.94 116.974 193.048 117.301 193.887 117.485C195.87 117.918 197.051 116.647 198.295 115.287C200.1 113.315 200.047 114.461 201.72 115.828C203.587 117.353 205.147 116.607 206.837 115.307C207.866 118.313 208.252 121.597 208.542 124.751C208.641 125.815 209.007 127.327 208.048 128.079C207.373 128.61 205.937 128.63 205.123 128.924C202.214 129.973 199.419 131.461 196.985 133.365C196.037 134.108 195.211 135.016 193.916 134.847C192.681 134.687 191.481 133.656 190.488 132.976C189.411 132.237 188.321 131.399 187.061 130.988C186.324 130.748 185.142 130.835 184.497 130.394C183.297 129.572 184.709 127.418 184.41 125.973C184.184 124.875 183.55 122.585 182.034 123.23C179.777 124.187 181.09 127.924 182.332 129.09C179.792 128.64 176.982 127.984 174.533 127.15C172.642 126.506 171.746 124.377 171.814 122.446ZM214.392 130.154C219.603 128.695 224.48 127.711 229.904 127.446C232.304 127.328 234.628 127.402 237.002 127.424C238.369 127.436 239.41 126.338 238.318 125.073C236.807 123.323 232.198 123.99 230.156 123.911C224.682 123.7 219.662 124.321 214.478 126.12C215.027 125.113 216.343 124.982 217.247 124.462C218.353 123.822 219.106 122.77 219.579 121.601C220.81 118.562 219.571 115.698 218.284 112.922C220.812 113.601 223.429 115.086 225.972 115.464C226.505 115.542 226.847 115.492 227.319 115.685C227.607 115.803 227.699 116.214 228.058 116.304C228.231 116.347 228.648 115.956 228.844 116.012C229.618 116.23 229.006 116.288 229.496 116.604C229.884 116.855 229.852 117.177 230.565 117.059C230.881 117.007 231.224 116.519 231.39 116.506C231.603 116.489 231.553 116.231 231.878 116.307C232.469 116.444 232.416 117.202 232.613 117.575C232.823 117.973 232.525 118.502 233.162 118.719C233.639 118.882 233.758 118.38 234.163 118.416C234.409 118.438 234.92 118.792 235.137 119.006C235.837 119.7 236.794 120.466 237.736 120.916C237.643 120.824 238.179 120.601 238.051 120.548C237.965 120.513 238.527 120.648 238.519 120.646C239.062 120.769 239.35 121.601 239.623 121.904C240.129 122.46 240.914 123.047 241.621 123.292C242.845 123.717 242.808 123.21 243.254 124.659C244.124 123.296 244.457 125.58 245.536 125.831C246.096 125.961 246.03 125.723 246.538 126.014C246.886 126.214 247.119 126.827 247.382 127.121C247.494 126.695 247.607 126.27 247.719 125.844C248.497 127.311 250.174 129.639 252.014 129.218C252.014 129.618 251.849 130.098 252.159 130.439C252.376 130.679 252.728 130.407 252.898 130.546C253.046 130.667 253.402 131.15 253.515 131.23C253.739 131.386 254.145 131.5 254.34 131.656C254.511 131.794 254.596 132.45 254.786 132.686C255.144 133.132 255.761 133.22 256.052 133.754C256.119 133.228 256.186 132.701 256.253 132.174C256.832 132.62 256.882 132.966 257.024 133.619C257.227 134.55 256.957 134.331 257.601 134.723C258.233 135.11 258.563 135.067 259.142 135.736C259.711 136.392 259.716 136.797 260.535 136.113C260.688 136.62 260.737 137.274 261.144 137.661C261.451 137.954 262.724 137.967 262.845 138.659C260.454 136.647 262.028 139.702 262.847 138.664C263.02 139.776 263.836 140.135 264.769 140.927C265.638 141.664 265.78 141.611 266.077 142.851C266.07 142.824 266.514 143.098 266.546 143.152C265.698 143.273 267.011 144.217 267.233 144.389C267.396 144.515 267.607 144.214 267.875 144.418C268.183 144.652 268.434 145.181 268.684 145.5C269.363 146.367 269.865 147.112 270.579 147.817C271.351 148.577 271.725 149.538 272.466 150.427C273.286 151.414 273.731 152.548 274.417 153.621C275.07 154.639 275.937 155.457 276.692 156.391C277.898 157.876 278.307 161.146 280.554 161.232C280.421 161.368 280.604 162.381 280.626 162.568C280.733 163.489 280.662 164.375 281.208 165.208C281.333 164.257 281.832 164.624 282.266 165.123C282.987 165.954 282.353 165.745 282.391 166.588C282.438 167.609 282.555 166.819 282.945 167.711C283.25 168.409 283.418 168.861 283.581 169.637C282.313 169.737 281.731 168.704 281.262 167.702C281.066 167.283 280.999 166.594 280.652 166.267C280.283 165.919 279.775 165.891 279.396 165.502C278.667 164.755 278.352 163.59 277.493 162.863C276.523 162.041 276.308 161.653 275.507 160.671C274.62 159.585 273.394 158.821 272.465 157.771C271.532 156.718 271.607 157.292 270.437 156.912C269.192 156.506 267.18 152.604 265.611 154.106C265.674 153.123 264.196 152.199 263.45 151.843C263.127 151.689 262.751 151.828 262.428 151.597C262.078 151.346 262.053 150.864 261.7 150.564C261.701 150.564 261.158 150.695 261.049 150.639C260.825 150.526 260.823 150.126 260.626 149.995C260.079 149.631 259.427 149.249 258.848 148.939C257.437 148.185 256.192 147.257 254.831 146.349C253.666 145.571 252.255 144.167 250.908 143.757C249.731 143.399 248.992 143.581 248.028 142.865C247.503 142.473 247.658 142.342 246.815 142.1C246.011 141.869 245.56 141.988 245.135 141.138C244.391 139.653 244.861 136.754 244.717 135.088C244.564 133.321 244.383 131.509 243.92 129.79C243.373 127.758 242.651 126.695 240.466 127.174C236.134 128.123 231.856 129.027 227.506 129.86C218.836 131.52 210.316 134.229 201.838 136.635C201.193 136.818 197.589 137.64 198.326 135.784C198.664 134.927 200.945 134.607 201.708 134.338C205.898 132.86 210.108 131.353 214.392 130.154ZM212.935 126.374C212.302 126.614 211.669 126.854 211.036 127.096V125.34C211.669 125.685 212.302 126.029 212.935 126.374ZM210.304 117.092C210.855 117.541 211.973 116.461 212.44 116.243C213.24 115.87 214.257 115.549 215.15 115.626C216.796 115.768 218 117.384 217.698 119.022C217.188 121.795 213.227 123.105 211.043 124.19C210.972 123.207 210.654 122.025 211.344 121.176C211.944 120.439 213.107 120.491 213.661 119.707C215.055 117.734 211.279 117.556 210.435 119.124C210.102 118.121 209.77 117.12 209.436 116.117C210.239 115.985 209.887 116.752 210.304 117.092ZM214.2 111.666C213.414 112.173 212.629 112.68 211.842 113.186C211.453 111.432 212.781 111.202 214.2 111.666ZM285.822 172.707C284.792 173.197 284.535 172.027 283.795 171.977C284.669 171.441 284.669 171.441 285.822 172.707ZM290.008 198.246C290.136 199.928 290.036 201.628 290.26 203.302C290.432 204.576 290.949 205.761 291.004 207.049C291.125 209.871 290.17 212.744 288.24 214.812C286.414 216.769 283.803 218.453 281.338 219.275C280.228 219.645 279.069 220.466 277.99 220.77C276.797 221.106 275.664 220.375 274.679 221.686C274.023 216.061 274.503 210.184 274.451 204.523C274.4 198.851 274.46 193.177 273.498 187.565C272.641 182.567 270.951 176.946 267.837 172.858C266.571 171.198 265.014 169.837 263.371 168.565C262.519 167.904 261.666 167.198 260.716 166.677C259.255 165.874 258.01 165.985 256.422 165.756C254.147 165.429 252.034 165.152 249.75 165.791C247.626 166.385 245.286 167.062 243.382 168.095C241.486 169.125 239.284 169.548 237.316 170.471C235.977 171.097 233.196 173.192 231.71 172.815C230.272 172.449 228.143 170.016 227.225 168.927C226.051 167.534 225.081 165.919 224.04 164.421C223.674 163.894 222.93 163.081 222.834 162.405C222.669 161.233 223.141 161.616 224.264 161.747C227.153 162.084 229.871 162.62 232.64 163.526C234.018 163.977 236.713 165.803 238.091 164.708C240.196 163.039 236.998 160.168 235.827 159.204C233.832 157.561 231.512 156.341 229.385 154.881C227.125 153.329 224.137 151.678 222.684 149.288C226.929 150.538 231.172 151.97 235.294 153.581C237.181 154.319 239.045 155.097 240.817 156.078C241.811 156.628 243.822 158.117 245.021 157.403C247.625 155.854 241.642 151.351 240.779 150.431C239.438 149.001 238.124 147.584 236.65 146.288C235.655 145.412 234.093 144.798 233.631 143.506C235.281 144.102 236.615 145.269 238.161 146.061C238.97 146.477 239.709 146.717 240.603 146.844C241.556 146.98 241.669 147.131 242.42 147.509C243.005 147.803 243.605 148.197 244.261 148.396C244.729 148.539 245.546 148.564 245.956 148.828C246.165 149.126 246.38 149.418 246.604 149.706C246.852 149.778 247.098 149.863 247.34 149.958C247.703 150.281 247.918 150.726 248.27 151.058C250.83 153.472 254.255 155.199 257.126 157.222C259.84 159.135 262.722 160.865 265.33 162.953C268.331 165.356 271.446 167.939 274 170.82C275.442 172.449 276.629 174.295 277.84 176.096C278.718 177.4 279.994 178.482 280.752 179.826C282.406 182.758 283.779 185.927 285.559 188.81C287.373 191.749 289.736 194.669 290.008 198.246ZM265.611 215.255C266.106 213.221 268.896 210.845 270.679 209.948C269.781 212.164 267.386 213.676 265.611 215.255ZM270.212 222.351C268.691 225.497 262.003 225.857 262.911 221.201C263.355 218.92 265.243 217.52 266.862 216.027C267.611 215.337 269.444 212.87 270.604 213.267C270.549 215.041 270.445 216.823 270.449 218.598C270.451 219.783 270.75 221.238 270.212 222.351ZM268.28 186.09C268.897 187.472 269.511 188.622 268.366 189.859C267.85 190.417 266.166 191.637 265.405 191.366C262.96 190.497 267.621 186.711 268.28 186.09ZM253.494 173.796C254.082 173.764 254.655 173.851 255.236 173.816C255.816 173.78 255.877 173.677 256.414 173.75C256.471 173.832 256.527 173.915 256.584 173.996C256.658 174.548 256.948 174.608 257.455 174.177C258.16 174.333 258.619 174.437 259.294 174.817C257.473 176.126 255.258 177.648 253.026 178.087C249.499 178.781 250.473 173.962 253.494 173.796ZM199.422 203.223C199.056 203.957 198.003 202.124 197.744 201.782C198.228 201.781 199.791 202.483 199.422 203.223ZM227.762 183.914C230.502 182.319 233.757 180.919 236.701 179.733C237.217 182.219 234.694 185.428 233.139 187.129C231.882 188.505 230.367 189.932 228.662 190.723C226.819 191.579 224.805 191.204 224.895 188.801C224.927 187.924 225.128 186.512 225.486 185.709C225.949 184.675 226.822 184.46 227.762 183.914ZM190.718 138.692C191.126 138.668 195.556 138.097 195.533 138.646C195.463 140.299 191.163 139.001 190.718 138.692ZM159.386 170.591C161.726 167.712 165.504 164.604 165.559 160.581C165.641 154.66 159.051 157.615 155.737 157.861C157.489 156.144 166.293 148.945 161.086 146.387C159.589 145.652 157.461 146.37 155.959 146.755C153.294 147.438 150.817 148.622 148.199 149.445C150.069 147.46 153.301 145.204 153.196 142.196C153.066 138.537 150.053 139.421 147.447 139.959C146.446 140.165 141.973 141.939 141.133 140.735C140.825 140.293 141.323 139.733 141.428 139.34C141.615 138.645 141.557 138.403 141.563 137.692C141.576 136.259 142.53 134.421 141.752 133.088C141.574 133.391 141.422 133.706 141.295 134.033C141.038 133.258 141.21 132.435 140.954 131.66C147.459 133.319 154.077 134.227 160.623 135.643C163.937 136.36 167.056 137.594 170.415 138.149C173.803 138.709 177.132 139.565 180.526 140.1C183.623 140.587 186.589 141.398 189.656 142.02C192.646 142.626 195.712 141.298 198.629 140.625C205.166 139.118 211.698 137.574 218.242 136.111C225.794 134.424 233.65 132.98 240.878 130.165C241.018 133.917 241.319 137.662 241.779 141.388C238.586 139.884 233.849 137.922 230.621 140.615C229.33 141.691 228.932 143.552 229.443 145.133C229.998 146.855 231.701 147.654 232.823 148.95C229.406 148.077 220.589 141.917 219.019 148.143C217.911 152.54 223.318 155.38 225.962 157.855C223.337 157.342 219.821 155.25 218.279 158.613C216.947 161.521 218.552 164.684 220.195 167.082C221.086 168.381 222.087 169.604 223.035 170.863C223.535 171.529 224.025 172.204 224.55 172.851C225.078 173.499 226.073 174.177 226.444 174.875C227.188 176.282 225.685 176.368 224.517 176.875C223.058 177.511 221.806 178.576 220.471 179.425C217.416 181.37 214.746 183.176 211.136 183.798C207.419 184.438 203.841 185.106 200.172 185.998C196.516 186.888 193.532 187.743 189.794 186.593C188.09 186.069 186.702 185.602 184.894 185.702C182.996 185.805 181.886 185.707 180.325 184.534C173.609 179.491 166.318 175.352 159.386 170.591ZM147.277 165.528C149.873 164.229 152.486 162.924 155.168 161.808C157.388 160.884 160.757 159.808 163.187 160.213C162.502 161.967 161.252 163.406 159.912 164.699C158.727 165.84 157.245 167.565 155.81 168.362C154.508 169.086 152.992 167.939 151.707 167.459C150.295 166.931 148.352 166.685 147.277 165.528ZM147.93 172.078C149.223 171.543 152.003 173.341 153.18 173.809C155.491 174.728 157.817 175.688 159.854 177.138C157.367 180.005 154.549 182.626 151.2 184.468C148.997 185.679 145.284 187.069 143.206 184.869C140.595 182.105 143.734 176.471 145.583 174.104C145.643 174.509 145.705 174.914 145.767 175.319C146.356 174.378 146.806 172.544 147.93 172.078ZM195.419 196.615C193.805 196.954 193.257 196.647 192.192 195.414C191.471 194.58 190.763 193.714 189.952 192.964C189.123 192.199 187.076 190.353 189.684 191.416C192.06 192.384 194.097 192.869 196.712 192.489C199.702 192.056 202.489 190.795 205.437 190.157C203.821 191.567 202.217 192.991 200.597 194.397C198.887 195.882 197.593 196.159 195.419 196.615ZM195.788 207.955C192.252 210.608 185.132 210.321 187.528 204.483C187.892 203.596 188.401 202.761 188.99 202.006C189.188 201.753 189.537 201.231 189.817 201.062C190.599 200.589 190.382 200.531 191.135 201.32C191.783 202.001 196.854 207.56 195.788 207.955ZM194.74 197.81C195.064 197.705 196.429 196.915 196.74 197.352C197.055 197.794 194.378 199.324 194.74 197.81ZM220.487 238.279C219.691 240.176 213.327 242.922 214.513 239.098C215.038 237.404 215.533 236.122 217.514 235.993C218.657 235.919 221.187 236.608 220.487 238.279ZM231.902 212.571C232.95 211.05 236.409 208.994 237.886 211.262C238.598 212.355 236.871 212.915 235.827 212.634C235.266 212.482 234.807 212.148 234.198 212.123C233.414 212.091 232.648 212.704 231.902 212.571ZM234.68 214.081C233.967 214.8 229.671 218.405 228.974 217.849C230.378 215.85 231.988 213.616 234.68 214.081ZM227.662 250.557C226.171 250.642 226.915 248.4 227.06 247.504C227.421 248.128 229.319 250.464 227.662 250.557ZM231.454 246.54C230.971 245.684 229.67 244.409 229.964 243.308C230.189 242.465 232.219 241.332 233.069 241.816C234.198 242.458 232.562 246.682 231.454 246.54ZM266.855 237.561C266.217 239.754 265.555 239.188 263.554 239.613C261.546 240.039 260.159 241.738 258.391 242.65C259.005 241.356 259.386 239.778 260.414 238.729C260.651 238.486 262.109 238.007 261.279 237.445C260.553 236.955 259.51 238.548 259.198 238.982C257.667 241.12 256.596 243.729 255.712 246.188C255.277 247.396 254.93 248.626 254.724 249.894C254.54 251.025 254.737 252.208 254.551 253.309C254.25 255.081 251.835 255.09 250.382 255.547C249.067 255.961 247.758 256.41 246.394 256.632C245.21 256.826 243.982 256.474 242.835 256.706C241.593 256.958 241.035 257.693 239.624 257.526C238.474 257.391 237.397 256.864 236.23 256.81C235.139 256.762 234.05 257.138 232.965 256.832C231.87 256.522 231.923 256.402 232.171 255.33C232.328 255.62 232.484 255.909 232.639 256.198C233.076 255.857 233.378 254.817 233.646 254.328C234.06 253.572 234.398 253.31 234.244 252.367C234.018 250.975 232.759 249.986 232.474 248.661C232.175 247.28 233.201 246.15 233.806 244.998C234.633 243.419 234.622 242.249 233.928 240.616C234.452 240.753 234.975 240.891 235.498 241.029C234.781 239.478 232.35 240.107 231.13 240.567C230.517 240.797 229.546 241.705 228.886 241.682C227.981 241.65 227.508 240.462 227.118 239.808C225.992 237.916 224.705 236.047 223.373 234.29C223.006 233.808 222.525 233.497 222.653 232.946C222.76 232.479 223.811 231.816 224.152 231.528C225.43 230.451 227.058 229.853 228.258 228.718C230.073 227.004 232.166 225.776 234.022 224.095C235.955 222.345 237.947 220.737 239.961 219.082C242.002 217.407 243.768 215.433 245.794 213.74C246.319 214.688 247.336 218.083 248.499 218.346C249.855 218.652 249.814 217.053 249.747 216.091C249.651 214.719 248.887 213.386 248.802 212.078C248.711 210.677 250.062 210.051 251.081 209.241C252.656 207.99 256.142 205.141 254.269 202.796C252.654 200.776 247.405 204.649 245.958 205.813C244.729 206.803 243.779 207.699 242.395 208.479C241.421 209.028 239.789 211.138 238.634 210.943C237.262 210.712 236.726 209.217 235.046 209.266C233.406 209.314 232.012 210.492 230.995 211.676C228.694 214.349 227.904 217.928 225.807 220.714C224.774 222.088 223.433 223.223 222.312 224.524C221.082 225.95 220.82 227.595 219.607 228.991C216.133 224.378 212.348 220.009 208.685 215.547C206.856 213.318 205.064 211.063 203.274 208.803C202.603 207.957 201.847 207.162 201.232 206.273C200.39 205.055 200.542 204.076 200.211 202.718C200.065 202.116 199.379 201.394 199.563 200.818C199.81 200.045 201.544 199.438 202.169 199.122C204.723 197.829 207.039 196.214 209.42 194.635C213.83 191.711 218.291 188.97 222.98 186.473C222.9 187.549 222.197 188.664 222.669 189.743C222.889 189.122 223.236 186.356 224.067 186.237C223.908 186.26 224.04 189.784 224.168 190.287C224.552 191.79 225.665 192.816 227.259 192.806C230.293 192.786 233.013 189.496 234.697 187.316C235.838 185.84 236.933 184.123 237.334 182.275C237.695 180.617 237.298 179.464 239.027 178.621C242.576 176.893 246.153 175.486 249.948 174.569C249.778 176.199 249.304 178.207 250.79 179.379C252.431 180.674 254.578 179.52 256.123 178.665C257.653 177.816 260.012 175.486 261.81 176.163C263.578 176.829 264.808 179.039 265.798 180.507C266.67 181.801 267.619 182.733 266.609 184.176C265.477 185.792 264.741 187.369 263.834 189.124C263.485 189.799 263.152 190.239 263.399 190.931C263.479 191.155 264.387 192.491 264.634 192.682C266.209 193.904 268.334 191.58 269.459 190.698C269.855 194.497 269.944 198.279 270.104 202.089C270.221 204.88 271.305 207.627 269.007 209.667C266.712 211.706 264.795 213.8 263.395 216.561C262.647 218.037 261.976 219.551 261.168 220.995C260.628 221.961 259.488 223.376 260.186 224.512C260.921 223.816 261.14 222.758 261.753 221.972C262.121 223.601 262.491 225.409 264.219 226.099C266.208 226.895 268.185 225.52 269.947 224.754C269.315 229.111 268.084 233.343 266.855 237.561ZM264.821 242.568C263.457 245.476 262.224 248.984 259.704 251.125C259.149 251.596 256.798 253.432 255.903 253.124C255.144 252.863 255.562 251.333 255.694 250.677C256.366 247.348 257.528 245.254 260.234 243.13C261.355 242.252 262.794 241.128 264.238 240.911C265.794 240.677 265.346 241.45 264.821 242.568ZM303.325 311.61C299.786 306.811 294.784 303.082 290.056 299.479C287.915 297.845 285.556 296.621 283.393 294.988C280.947 293.141 278.462 291.36 275.723 289.968C270.529 287.329 264.862 285.491 259.961 282.37C257.571 280.848 254.955 279.378 252.708 277.669C251.721 276.919 250.849 275.959 249.957 275.1C249.128 274.301 247.348 273.141 247.019 271.973C248.398 271.747 249.183 270.413 250.414 270.277C250.819 270.232 253.36 270.902 253.012 269.673C253.934 269.65 254.042 269.636 254.814 269.435C255.135 269.352 255.513 269.483 255.836 269.368C256.331 269.194 256.669 268.691 257.168 268.498C257.524 268.361 258.843 268.514 259.043 268.344C259.589 267.878 259.009 267.92 258.682 267.338C259.745 267.311 260.473 267.846 261.537 267.277C261.861 267.105 262.135 266.706 262.449 266.499C263.006 266.132 263.207 266.701 263.588 265.939C263.945 266.99 263.935 266.699 264.796 266.39C265.653 266.082 266.271 265.86 267.247 265.783C269.578 265.599 271.917 265.882 274.237 265.716C275.087 265.655 275.811 265.464 276.655 265.574C277.398 265.671 277.174 266.186 277.791 265.492C277.935 265.332 277.471 264.89 277.694 264.658C277.791 264.556 278.111 264.628 278.232 264.576C279.317 264.103 279.321 264.763 279.514 265.622C280.15 265.474 280.8 265.34 281.352 264.967C281.073 264.719 280.605 264.445 280.875 263.991C281.793 264.338 282.392 264.178 281.934 265.182C282.857 265.485 283.029 265.089 283.859 265.003C284.349 264.951 285.034 265.255 285.442 264.864C285.888 264.438 285.185 263.974 286.005 263.608C286.173 263.693 286.296 263.822 286.378 263.994C286.821 264.127 286.741 264.301 286.139 264.515C287.752 265.348 287.372 264.417 288.049 263.432C288.206 263.205 288.907 262.5 289.225 262.841C289.709 263.357 288.721 263.521 288.932 264.035C289.3 264.925 290.58 263.784 290.973 263.333C291.271 262.992 291.392 262.339 291.713 262.084C292.158 261.731 292.798 262.277 293.355 262.179C295.903 261.734 298.307 258.32 296.388 256.035C295.873 255.421 295.437 255.543 294.823 255.155C294.215 254.773 293.875 254.11 293.387 253.563C292.274 252.314 290.912 251.378 289.356 250.78C285.748 249.392 281.86 248.379 278.07 247.635C276.315 247.289 274.446 246.761 272.65 246.765C271.592 246.767 269.997 247.588 269.007 247.195C267.084 246.43 269.908 242.518 270.374 241.254C271.744 237.541 272.777 233.581 273.454 229.683C273.586 228.921 273.536 227.933 273.811 227.205C274.128 226.37 274.196 226.489 274.873 226.42C276.096 226.297 277.434 226.936 278.707 226.716C280.12 226.471 281.646 226.585 283.07 226.149C283.725 225.949 284.333 225.732 284.764 225.18C284.9 225.007 284.749 224.857 284.835 224.736C284.861 224.698 285.349 224.174 285.365 224.144C285.36 223.872 285.384 223.603 285.435 223.337C285.929 223.746 285.686 224.603 286.518 224.623C286.667 223.709 286.669 223.525 287.27 223.011C287.224 223.05 287.724 222.628 287.659 222.672C287.69 222.509 287.75 222.357 287.839 222.216C288.121 222.081 288.418 222.009 288.73 222.001C289.381 221.334 289.112 220.978 289.112 220.08C289.636 220.352 290.161 220.624 290.686 220.896C290.813 218.236 292.437 216.78 293.516 214.624C293.976 213.706 294.445 212.988 294.555 211.88C294.618 211.241 294.453 210.677 294.718 210.074C294.959 209.528 295.497 209.233 295.723 208.638C296.166 207.466 295.836 205.971 295.86 204.754C295.894 203.067 296.063 201.385 296.118 199.698C296.226 196.387 295.893 192.985 295.396 189.713C295.158 188.148 294.761 186.629 294.448 185.08C294.191 183.807 293.577 182.613 293.357 181.43C293.267 180.937 293.407 180.495 293.259 179.951C293.063 179.235 292.735 178.532 292.491 177.83C291.922 176.188 291.358 174.55 290.718 172.934C289.477 169.803 288.025 166.766 286.645 163.695C285.317 160.741 284.218 157.696 282.498 154.939C280.805 152.223 278.981 149.552 277.114 146.953C275.17 144.246 272.711 141.918 270.826 139.186C267.286 134.055 262.348 129.828 257.181 126.336C246.521 119.132 235 111.939 222.217 109.469C220.29 109.097 218.339 108.839 216.374 108.79C215.157 108.76 213.138 109.348 211.985 108.936C210.692 108.476 210.811 107.03 210.487 105.894C210.071 104.435 209.134 103.479 208.068 102.449C206.947 101.363 205.929 100.095 204.531 99.3572C203.113 98.6093 201.442 98.3296 199.871 98.1035C198.469 97.9013 196.374 98.0902 195.094 97.4811C193.927 96.9259 194.503 96.3481 195.595 96.8235C195.675 96.343 195.74 96.0329 196.049 95.6616C196.204 95.475 196.936 95.2133 196.954 95.0392C196.974 94.8354 196.36 94.2548 196.272 93.9919C196.083 93.4258 196.191 92.6419 196.415 92.1107C197.517 93.0867 197.835 93.519 199.065 92.5859C199.584 92.192 199.743 92.0183 200.345 91.8196C200.508 91.7656 200.874 91.9322 201.017 91.8387C201.56 91.4819 201.059 91.5661 201.318 91.1443C201.253 91.2508 201.709 90.1299 201.688 90.3643C201.743 89.7673 201.92 89.9508 201.559 89.2173C200.851 87.7823 199.048 87.7236 199.966 86.086C200.329 85.4417 200.646 85.5058 200.749 84.5717C200.804 84.0693 200.735 83.4935 200.733 82.9826C200.729 81.9376 200.926 81.2061 199.943 80.6741C199 80.1624 198.129 80.7237 197.746 79.4547C197.344 78.123 197.748 76.4158 196.302 75.5039C195.245 74.8377 193.718 75.4073 192.549 75.0814C191.379 74.7551 190.302 73.5608 189.114 74.4778C188.27 75.1295 187.822 76.7319 186.231 75.8654C185.513 75.4746 185.118 74.1625 184.665 73.4266C183.943 72.2538 183.365 71.8301 182.255 72.9724C181.571 73.677 180.128 75.392 180.04 76.3673C179.944 77.444 180.885 77.8938 179.703 78.5307C178.526 79.1644 177.866 78.6997 176.911 79.986C175.964 81.262 176.697 81.967 175.6 83.188C174.228 84.7141 173.497 85.3729 173.516 87.429C173.53 88.8393 172.28 90.0576 173.009 91.3955C173.827 92.895 176.211 93.5186 177.657 94.1289C177.174 95.018 176.512 95.588 177.076 96.5035C177.585 97.3324 179.029 97.5045 179.923 97.3539C180.524 97.2531 180.546 97.3438 181.02 96.9221C181.329 96.6458 180.904 96.3012 181.543 96.1482C182.222 95.9847 183.308 97.3132 183.75 97.6454C182.764 98.9219 180.054 99.1606 178.621 99.808C177.747 100.202 176.944 100.786 176.054 101.139C175.247 101.459 174.266 101.385 173.534 101.88C172.27 102.735 171.744 104.853 170.97 106.099C170.094 107.509 169.244 108.165 167.561 108.456C165.463 108.822 163.774 108.969 161.816 109.879C159.426 110.992 157.071 112.167 154.724 113.367C150.938 115.301 147.422 117.287 143.906 119.627C140.229 122.075 136.651 124.63 133.103 127.188C129.593 129.718 126.647 132.83 123.598 135.89C121.133 138.363 118.971 141.033 116.516 143.505C113.617 146.425 111.486 150.11 108.798 153.207C107.328 154.901 105.922 156.567 104.999 158.563C104.251 160.181 102.951 161.769 102.083 163.466C100.974 165.637 99.9249 167.772 98.6793 169.87C98.1684 170.732 97.5611 171.471 97.0219 172.293C96.3312 173.345 96.3719 174.362 96.186 175.576C95.992 175.279 95.7983 174.983 95.6042 174.687C95.2525 175.454 94.8271 176.207 94.5225 176.992C94.328 177.492 94.3586 178.202 94.1634 178.64C93.9183 179.19 93.6199 179.116 93.3145 179.574C92.9879 180.063 92.8829 180.721 92.5386 181.246C91.0507 183.515 90.4783 186.395 89.7138 188.984C88.6881 192.457 88.85 196.449 88.9057 200.031C88.9649 203.814 89.1723 207.596 89.7427 211.339C90.2595 214.73 91.3643 217.981 93.0941 220.954C94.6013 223.543 96.6797 225.052 99.3418 226.378C100.564 226.988 101.699 226.799 102.982 226.897C104.388 227.004 105.346 227.384 106.833 227.049C107.547 226.889 107.885 226.37 108.452 226.198C108.802 226.091 108.991 226.266 109.328 226.225C109.81 226.167 110.812 225.932 111.335 225.988C112.96 226.165 112.688 228.615 112.848 229.867C113.094 231.794 113.274 233.743 113.606 235.658C114.305 239.687 115.812 243.45 116.703 247.409C112.574 247.912 109.032 248.68 105.162 250.238C101.279 251.8 97.3536 252.332 93.2675 253.108C89.4448 253.835 85.768 255.194 82.7082 257.654C81.2741 258.807 79.7842 260.156 80.8373 262.055C81.5109 263.269 82.7247 263.577 83.7727 264.283C83.9844 264.016 83.372 263.45 83.2599 263.293C84.1409 263.474 84.1138 263.884 84.7572 264.24C85.3194 264.552 85.7797 264.541 86.3953 264.762C87.8981 265.3 88.6364 266.643 90.1219 267.02C90.5893 267.138 91.2005 267.422 91.6784 267.503C92.2524 267.599 92.6821 267.349 93.264 267.455C93.578 267.661 93.9176 267.809 94.2825 267.897C94.5217 267.787 94.7582 267.67 94.991 267.547C95.8269 267.633 96.3433 268.157 97.0223 268.588C97.0678 268.045 97.0023 267.481 97.5176 267.128C97.7186 267.655 97.3936 267.989 97.9425 268.352C98.638 268.812 99.5516 268.238 100.174 267.947C100.35 269.701 104.423 269.598 105.714 269.572C107.502 269.538 109.288 268.83 111.091 269.225C112.012 269.426 112.993 269.636 113.91 269.898C115.012 270.212 116.346 270.492 117.432 270.889C117.863 271.046 118.393 271.552 118.852 271.518C119.218 271.49 119.315 270.952 119.741 270.968C120.223 270.986 120.386 271.521 120.803 271.682C121.427 271.922 122 271.464 122.593 271.696C122.806 271.779 123.096 272.135 123.369 272.251C123.783 272.427 124.603 272.429 125.064 272.515C125.717 272.636 126.303 272.554 126.863 272.594C127.315 272.627 127.305 272.93 127.521 272.948C127.769 272.971 128.2 272.121 128.533 271.997C129.018 271.816 129.898 272.248 130.393 272.324C126.81 277.166 122.49 281.445 117.807 285.192C112.756 289.235 107.584 293.271 102.168 296.817C97.2502 300.035 92.4896 302.82 88.6767 307.364C85.4618 311.196 80.344 315.296 81.1329 320.85C81.9213 326.399 87.9651 328.657 92.808 329.717C98.8988 331.049 105.169 330.513 111.276 331.263C113.88 331.582 116.774 331.412 119.396 331.139C122.493 330.818 125.147 328.802 127.809 327.346C132.597 324.725 136.691 321.219 141.408 318.517C147.314 315.132 153.157 311.547 159.631 309.281C162.643 308.226 165.744 307.023 168.173 304.855C168.535 304.532 168.805 304.044 169.213 303.778C169.908 303.327 170.094 303.785 170.497 303.648C170.806 303.543 171.107 303.209 171.375 303.108C172.055 302.855 172.357 302.959 173.118 302.959C172.466 302.584 171.868 301.617 172.545 300.829C173.705 299.479 173.905 301.636 174.341 302.136C174.711 301.663 174.569 301.242 174.475 300.704C174.787 300.909 175.099 301.115 175.411 301.32C175.196 300.279 175.401 299.321 175.954 298.413C176.465 297.577 176.59 297.694 176.731 296.536C178.315 297.978 178.625 294.478 178.768 293.202C178.905 291.965 178.769 291.076 179.585 289.994C180.462 288.832 181.794 288.098 182.907 287.195C184.664 285.769 186.597 283.968 189.027 285.336C190.946 286.416 191.99 289.063 193.79 290.423C194.882 291.248 196.033 291.331 196.729 292.611C197.292 293.646 197.475 294.884 198.006 295.946C199.292 298.52 201.145 301.467 203.258 303.442C205.225 305.28 207.751 305.271 210.052 306.41C212.332 307.539 214.699 308.762 217.111 309.58C219.746 310.474 222.587 310.854 225.151 311.936C226.471 312.493 227.651 313.331 228.982 313.864C230.417 314.439 231.93 314.845 233.384 315.372C239.148 317.458 244.787 320.018 250.841 321.175C253.527 321.688 256.013 323.082 258.717 323.375C259.878 323.501 260.825 323.66 261.959 323.949C263.741 324.403 263.364 324.644 264.02 326.126C265.099 328.563 267.736 327.12 269.768 327.18C273.02 327.278 276.223 326.754 279.472 326.729C285.151 326.686 290.62 326.047 296.114 324.189C301.629 322.322 307.909 317.824 303.325 311.61Z" fill="black"/>
<path fill-rule="evenodd" clip-rule="evenodd" d="M237.674 121.154C237.751 121.231 237.935 121.279 237.674 121.154V121.154Z" fill="black"/>
<path fill-rule="evenodd" clip-rule="evenodd" d="M137.632 224.976C138.867 223.73 144.115 223.982 144.511 226.211C144.954 228.7 140.264 232.458 138.548 233.512C136.339 234.868 133.644 235.122 134.035 231.717C134.331 229.145 135.876 226.751 137.632 224.976ZM141.967 222.41C142.127 223.099 140.947 222.865 140.623 222.702C140.469 222.388 141.807 221.718 141.967 222.41ZM132.916 226.974C133.963 227.067 135.163 225.393 135.952 224.823C136.301 225.361 134 228.317 133.746 228.992C133.114 230.678 132.762 232.808 133.625 234.49C136.144 239.403 142.594 232.386 144.206 229.936C145.335 228.221 146.116 226.095 144.522 224.416C143.955 223.817 143.017 223.651 142.489 223.082C141.795 222.335 142.342 221.37 140.946 221.532C139.984 221.645 138.828 222.511 137.892 222.824C136.764 223.202 135.75 223.593 134.765 224.292C134.544 224.45 131.623 226.858 132.916 226.974Z" fill="black"/>
<path fill-rule="evenodd" clip-rule="evenodd" d="M206.902 228.623C206.244 231.999 202.888 235.462 199.358 235.597C195.842 235.731 194.703 232.057 195.325 229.13C195.854 226.634 198.018 222.297 201.105 222.774C203.533 223.15 207.465 225.729 206.902 228.623ZM204.663 222.981C202.433 221.26 199.353 220.465 196.77 221.829C195.923 222.277 192.541 224.25 193.57 225.586C194.957 224.514 196.156 223.027 197.959 222.67C197.655 224.063 195.924 225.317 195.314 226.674C194.6 228.259 194.21 230.074 194.327 231.816C194.535 234.917 196.618 237.326 199.843 236.899C202.796 236.509 205.376 234.253 206.785 231.717C208.666 228.329 207.606 225.251 204.663 222.981Z" fill="black"/>
<path fill-rule="evenodd" clip-rule="evenodd" d="M183.961 236.297C182.374 238.641 179.954 240.845 177.155 241.567C173.533 242.505 174.55 239.52 175.633 237.378C176.59 235.484 178.232 232.226 180.733 232.244C181.581 232.249 183.162 232.659 183.906 233.111C185.372 234.003 184.797 235.065 183.961 236.297ZM180.58 231.148C181.149 230.515 183.672 227.803 184.01 229.917C184.734 229.08 184.162 228.385 183.236 228.296C182.117 228.19 180.894 229.431 180.087 230.049C178.426 231.318 177.146 232.618 176.045 234.397C174.832 236.36 171.736 240.794 174.445 242.741C177.373 244.846 181.635 240.959 183.468 238.954C184.64 237.673 186.193 235.79 185.747 233.91C185.2 231.601 182.506 231.358 180.58 231.148Z" fill="black"/>
<path fill-rule="evenodd" clip-rule="evenodd" d="M168.087 193.386C166.449 195.25 163.121 197.965 160.378 197.645C157.877 197.353 158.853 194.555 159.739 193.2C161.068 191.164 162.85 189.253 165.424 189.142C166.535 189.094 167.975 189.116 168.836 189.955C170.01 191.101 168.952 192.401 168.087 193.386ZM167.913 188.208C165.994 187.547 165.24 187.295 163.375 188.346C161.876 189.19 160.549 190.383 159.52 191.737C157.982 193.765 156.43 198.325 160.38 198.896C164.714 199.522 175.02 190.658 167.913 188.208Z" fill="black"/>
<path fill-rule="evenodd" clip-rule="evenodd" d="M173.818 199.844C172.572 201.113 171.016 202.149 169.24 202.502C169.991 200.831 171.669 197.18 173.658 196.67C174.573 196.436 175.619 196.744 175.543 197.784C175.489 198.537 174.31 199.343 173.818 199.844ZM175.423 195.426C174.39 194.91 174.716 194.558 173.515 194.963C172.569 195.281 171.375 195.834 170.588 196.471C170.158 196.819 168.82 198.051 168.983 198.679C169.28 199.818 170.278 198.071 170.541 197.736C170.99 198.101 168.69 201.382 168.554 201.922C168.044 203.933 169.627 204.145 171.178 203.488C173.27 202.6 179.466 197.446 175.423 195.426Z" fill="black"/>
<path fill-rule="evenodd" clip-rule="evenodd" d="M182.983 220.163C183.443 219.222 183.97 218.909 184.904 218.498C184.281 219.084 183.645 219.625 182.983 220.163ZM183.657 217.844C182.995 218.505 181.479 219.514 181.692 220.651C181.886 221.688 182.68 221.629 183.401 221.305C184.912 220.628 185.754 217.662 187.335 217.384C185.581 216.276 185.172 216.327 183.657 217.844Z" fill="black"/>
<path fill-rule="evenodd" clip-rule="evenodd" d="M183.889 158.937C183.974 162.096 184.047 165.255 184.117 168.414C184.142 169.524 183.876 171.106 184.211 172.17C184.358 172.638 185.692 174.668 186.166 174.799C187.822 175.259 187.23 171.119 187.242 170.099C187.283 166.66 187.231 163.216 187.217 159.777C187.21 158.004 187.712 143.141 185.405 143.214C185.007 143.227 184.028 144.927 183.881 145.267C183.417 146.336 183.588 147.923 183.599 149.063C183.63 152.353 183.801 155.648 183.889 158.937Z" fill="black"/>
<path fill-rule="evenodd" clip-rule="evenodd" d="M197.856 168.146C197.987 169.018 197.918 170.475 198.905 170.927C199.763 171.322 200.091 170.853 200.412 170.121C201.15 168.438 200.884 165.864 200.87 164.124C200.843 160.674 200.454 157.239 200.184 153.802C200.065 152.294 200.311 150.779 200.122 149.202C200.039 148.51 199.957 145.724 198.67 145.854C197.505 145.97 197.61 148.89 197.547 149.642C197.019 155.904 196.928 161.895 197.856 168.146Z" fill="black"/>
<path fill-rule="evenodd" clip-rule="evenodd" d="M252.802 240.049C252.308 242.564 244.259 251.322 242.231 246.424C241.029 243.518 243.635 240.355 245.668 238.672C246.926 237.632 248.497 236.61 250.212 236.925C251.668 237.193 253.114 238.453 252.802 240.049ZM248.645 235.539C248.076 235.673 243.324 239 243.28 238.956C242.868 238.543 245.865 234.089 246.173 233.699C248.714 230.49 250.401 232.92 251.99 235.443C251.652 233.936 250.721 231.749 249.165 231.111C247.2 230.306 245.668 232.293 244.724 233.72C243.388 235.739 242.651 237.93 241.908 240.206C241.555 241.292 241.151 242.277 240.553 243.256C239.96 244.223 238.925 245.289 239.078 246.511C239.919 246.045 240.366 245.132 240.896 244.38C241.486 244.619 241.284 246.499 241.404 246.977C241.705 248.179 242.53 249.12 243.804 249.326C246.178 249.712 248.741 247.521 250.329 246.033C252.002 244.467 253.803 242.317 253.788 239.905C253.773 237.384 251.287 234.916 248.645 235.539Z" fill="black"/>
<path fill-rule="evenodd" clip-rule="evenodd" d="M255.083 195.13C253.736 197.187 251.372 199.651 248.87 200.128C247.034 200.479 245.823 199.122 246.561 197.291C247.184 195.742 249.306 194.765 250.698 194.084C251.802 193.544 256.947 192.286 255.083 195.13ZM254.091 191.768C251.332 191.664 249.106 193.653 247.048 195.241C247.512 193.417 248.563 191.433 250.045 190.246C252.058 188.63 253.969 189.633 256.089 190.441C255.565 188.795 253.217 188.203 251.721 188.436C249.83 188.73 248.469 190.34 247.512 191.898C246.371 193.756 245.981 195.945 244.638 197.689C244.023 198.486 240.216 201.472 241.078 202.692C242.5 201.187 243.923 199.681 245.344 198.176C245.713 199.955 246.12 201.981 248.398 201.808C250.218 201.67 252.292 200.127 253.623 198.949C255.341 197.427 258.723 191.942 254.091 191.768Z" fill="black"/>
<path fill-rule="evenodd" clip-rule="evenodd" d="M215.433 209.322C214.263 209.858 211.69 210.586 211.037 208.975C210.128 206.739 213.051 202.817 214.442 201.327C215.297 200.409 215.877 199.936 217.07 200.528C218.022 201.003 219.421 202.349 219.786 203.384C220.571 205.606 217.262 208.483 215.433 209.322ZM218.115 198.58C219.068 198.795 219.184 200 217.993 199.538C217.102 199.19 216.894 198.306 218.115 198.58ZM219.31 200.278C218.955 199.197 219.678 197.501 217.928 197.423C216.935 197.379 215.118 198.385 214.252 198.793C213.051 199.36 211.921 200.225 211.295 201.443C210.714 202.571 211.129 202.868 212.014 201.931C212.122 202.005 210.012 207.43 209.993 207.974C209.911 210.46 211.675 212.096 214.153 211.655C216.43 211.25 218.482 209.393 219.735 207.52C220.369 206.572 220.889 205.485 220.937 204.324C221.01 202.542 219.818 201.826 219.31 200.278Z" fill="black"/>
<path fill-rule="evenodd" clip-rule="evenodd" d="M233.491 195.326C231.497 194.418 229.271 197.522 230.232 199.367C231.492 201.785 237.641 197.216 233.491 195.326ZM231.114 198.796C230.698 198.061 233.515 196.977 233.96 196.959C233.738 197.364 231.682 199.805 231.114 198.796Z" fill="black"/>
<path fill-rule="evenodd" clip-rule="evenodd" d="M97.8298 193.549C97.7185 192.764 95.9521 193.904 95.9624 194.411C96.2545 193.828 98.0617 195.186 97.8298 193.549Z" fill="black"/>
<path fill-rule="evenodd" clip-rule="evenodd" d="M194.436 134.177C196.685 134.013 193.82 122.701 192.18 123.701C190.404 124.785 192.372 134.328 194.436 134.177Z" fill="black"/>
<path fill-rule="evenodd" clip-rule="evenodd" d="M198.636 128.896C200.743 129.196 200.408 124.373 199.275 123.51C197.183 121.916 196.078 128.53 198.636 128.896Z" fill="black"/>
<path fill-rule="evenodd" clip-rule="evenodd" d="M37.0318 22.2391C67.3245 22.2391 91.8816 -2.25282 91.8816 -32.4651C91.8816 -62.6775 67.3245 -87.1694 37.0318 -87.1694C6.73918 -87.1694 -17.8179 -62.6775 -17.8179 -32.4651C-17.8179 -2.25282 6.73918 22.2391 37.0318 22.2391Z" fill="white"/>
<g style="mix-blend-mode:overlay">
<path fill-rule="evenodd" clip-rule="evenodd" d="M192.722 215.243C231.041 215.243 262.105 184.261 262.105 146.044C262.105 107.826 231.041 76.8441 192.722 76.8441C154.403 76.8441 123.338 107.826 123.338 146.044C123.338 184.261 154.403 215.243 192.722 215.243Z" fill="white" fill-opacity="0.5"/>
</g>
</svg>
