<svg width="1107" height="109" viewBox="0 0 1107 109" fill="none" xmlns="http://www.w3.org/2000/svg">
<g clip-path="url(#clip0_3511_85336)">
<path fill-rule="evenodd" clip-rule="evenodd" d="M16.8983 57.6047C22.0361 61.4424 26.3108 66.3157 29.7223 72.2245C33.1373 78.1312 35.2203 84.2698 35.9714 90.6403C36.7224 97.0108 36.3102 103.277 34.7349 109.439L23.378 103.104C23.928 99.9213 24.0613 96.7407 23.7779 93.562C23.4944 90.3832 22.7495 87.2322 21.5431 84.1089L6.32433 100.546L2.17681e-05 97.035L2.17354e-05 89.8076L15.3405 73.3656C13.2388 70.7592 10.8824 68.5386 8.27126 66.7038C5.66012 64.8689 3.0311 63.2992 2.16149e-05 62.1844L2.38152e-07 49.7926C6.12756 51.5071 11.7604 53.767 16.8983 57.6047Z" fill="white"/>
<path fill-rule="evenodd" clip-rule="evenodd" d="M67.7795 57.6047C62.6416 61.4424 58.3669 66.3157 54.9555 72.2245C51.5404 78.1312 49.4574 84.2698 48.7064 90.6403C47.9553 97.0108 48.3675 103.277 49.9429 109.439L61.2998 103.104C60.7497 99.9213 60.6165 96.7407 60.8999 93.562C61.1833 90.3832 61.9282 87.2322 63.1346 84.1089L78.3534 100.546L84.6777 97.035L84.6777 89.8076L69.3373 73.3656C71.4389 70.7592 73.7953 68.5386 76.4065 66.7038C79.0176 64.8689 81.6466 63.2992 84.6777 62.1844L84.6777 49.7926C78.5502 51.5071 72.9174 53.767 67.7795 57.6047Z" fill="white"/>
<path d="M76.2235 33.7079L66.3473 27.859C61.6602 32.1583 52.6698 35.2224 46.4689 36.1202L46.4689 -9.31624L36.1424 -9.31624L36.1424 36.1202C29.7971 34.8858 21.7386 31.9994 16.7803 27.859L6.66992 33.7079C15.8285 43.0103 27.5399 47.8934 40.7893 47.9956C53.785 48.0958 67.1053 43.0051 76.2235 33.7079Z" fill="white"/>
</g>
<g clip-path="url(#clip1_3511_85336)">
<path fill-rule="evenodd" clip-rule="evenodd" d="M109.836 57.605C114.974 61.4427 119.248 66.3159 122.66 72.2247C126.075 78.1315 128.158 84.2701 128.909 90.6405C129.66 97.011 129.248 103.277 127.672 109.439L116.315 103.104C116.865 99.9215 116.999 96.7409 116.715 93.5622C116.432 90.3835 115.687 87.2325 114.481 84.1092L99.2618 100.546L92.9375 97.0353L92.9375 89.8078L108.278 73.3659C106.176 70.7594 103.82 68.5388 101.209 66.704C98.5976 64.8692 95.9686 63.2995 92.9375 62.1846L92.9375 49.7929C99.0651 51.5074 104.698 53.7672 109.836 57.605Z" fill="white"/>
<path fill-rule="evenodd" clip-rule="evenodd" d="M160.717 57.605C155.579 61.4427 151.304 66.3159 147.893 72.2247C144.478 78.1315 142.395 84.2701 141.644 90.6405C140.893 97.011 141.305 103.277 142.88 109.439L154.237 103.104C153.687 99.9215 153.554 96.7409 153.837 93.5622C154.121 90.3835 154.866 87.2325 156.072 84.1092L171.291 100.546L177.615 97.0353L177.615 89.8078L162.275 73.3659C164.376 70.7594 166.733 68.5388 169.344 66.704C171.955 64.8692 174.584 63.2995 177.615 62.1846L177.615 49.7929C171.488 51.5074 165.855 53.7672 160.717 57.605Z" fill="white"/>
<path d="M169.161 33.7081L159.285 27.8593C154.598 32.1586 145.607 35.2227 139.406 36.1204L139.406 -9.31599L129.08 -9.31599L129.08 36.1204C122.735 34.886 114.676 31.9997 109.718 27.8593L99.6074 33.7081C108.766 43.0105 120.477 47.8937 133.727 47.9959C146.723 48.0961 160.043 43.0053 169.161 33.7081Z" fill="white"/>
</g>
<g clip-path="url(#clip2_3511_85336)">
<path fill-rule="evenodd" clip-rule="evenodd" d="M202.775 57.605C207.913 61.4427 212.188 66.3159 215.599 72.2247C219.014 78.1315 221.097 84.2701 221.848 90.6405C222.599 97.011 222.187 103.277 220.612 109.439L209.255 103.104C209.805 99.9215 209.938 96.7409 209.655 93.5622C209.371 90.3835 208.626 87.2325 207.42 84.1092L192.201 100.546L185.877 97.0353L185.877 89.8078L201.217 73.3659C199.116 70.7594 196.759 68.5388 194.148 66.704C191.537 64.8692 188.908 63.2995 185.877 62.1846L185.877 49.7929C192.005 51.5074 197.637 53.7672 202.775 57.605Z" fill="white"/>
<path fill-rule="evenodd" clip-rule="evenodd" d="M253.656 57.605C248.519 61.4427 244.244 66.3159 240.832 72.2247C237.417 78.1315 235.334 84.2701 234.583 90.6405C233.832 97.011 234.244 103.277 235.82 109.439L247.177 103.104C246.627 99.9215 246.493 96.7409 246.777 93.5622C247.06 90.3835 247.805 87.2325 249.012 84.1092L264.23 100.546L270.555 97.0353L270.555 89.8078L255.214 73.3659C257.316 70.7594 259.672 68.5388 262.283 66.704C264.895 64.8692 267.524 63.2995 270.555 62.1846L270.555 49.7929C264.427 51.5074 258.794 53.7672 253.656 57.605Z" fill="white"/>
<path d="M262.1 33.7081L252.224 27.8593C247.537 32.1586 238.547 35.2227 232.346 36.1204L232.346 -9.31599L222.019 -9.31599L222.019 36.1204C215.674 34.886 207.616 31.9997 202.657 27.8593L192.547 33.7081C201.705 43.0105 213.417 47.8937 226.666 47.9959C239.662 48.0961 252.982 43.0053 262.1 33.7081Z" fill="white"/>
</g>
<g clip-path="url(#clip3_3511_85336)">
<path fill-rule="evenodd" clip-rule="evenodd" d="M295.713 57.605C300.851 61.4427 305.125 66.3159 308.537 72.2247C311.952 78.1315 314.035 84.2701 314.786 90.6405C315.537 97.011 315.125 103.277 313.549 109.439L302.192 103.104C302.742 99.9215 302.876 96.7409 302.592 93.5622C302.309 90.3835 301.564 87.2325 300.358 84.1092L285.139 100.546L278.814 97.0353L278.814 89.8078L294.155 73.3659C292.053 70.7594 289.697 68.5388 287.086 66.704C284.475 64.8692 281.846 63.2995 278.814 62.1846L278.814 49.7929C284.942 51.5074 290.575 53.7672 295.713 57.605Z" fill="white"/>
<path fill-rule="evenodd" clip-rule="evenodd" d="M346.594 57.605C341.456 61.4427 337.181 66.3159 333.77 72.2247C330.355 78.1315 328.272 84.2701 327.521 90.6405C326.77 97.011 327.182 103.277 328.757 109.439L340.114 103.104C339.564 99.9215 339.431 96.7409 339.714 93.5622C339.998 90.3835 340.743 87.2325 341.949 84.1092L357.168 100.546L363.492 97.0353L363.492 89.8078L348.152 73.3659C350.253 70.7594 352.61 68.5388 355.221 66.704C357.832 64.8692 360.461 63.2995 363.492 62.1846L363.492 49.7929C357.365 51.5074 351.732 53.7672 346.594 57.605Z" fill="white"/>
<path d="M355.038 33.7081L345.162 27.8593C340.475 32.1586 331.484 35.2227 325.283 36.1204L325.283 -9.31599L314.957 -9.31599L314.957 36.1204C308.612 34.886 300.553 31.9997 295.595 27.8593L285.484 33.7081C294.643 43.0105 306.354 47.8937 319.604 47.9959C332.599 48.0961 345.92 43.0053 355.038 33.7081Z" fill="white"/>
</g>
<g clip-path="url(#clip4_3511_85336)">
<path fill-rule="evenodd" clip-rule="evenodd" d="M388.652 57.605C393.79 61.4427 398.065 66.3159 401.476 72.2247C404.891 78.1315 406.974 84.2701 407.725 90.6405C408.476 97.011 408.064 103.277 406.489 109.439L395.132 103.104C395.682 99.9215 395.815 96.7409 395.532 93.5622C395.248 90.3835 394.503 87.2325 393.297 84.1092L378.078 100.546L371.754 97.0353L371.754 89.8078L387.094 73.3659C384.993 70.7594 382.636 68.5388 380.025 66.704C377.414 64.8692 374.785 63.2995 371.754 62.1846L371.754 49.7929C377.881 51.5074 383.514 53.7672 388.652 57.605Z" fill="white"/>
<path fill-rule="evenodd" clip-rule="evenodd" d="M439.533 57.605C434.396 61.4427 430.121 66.3159 426.709 72.2247C423.294 78.1315 421.211 84.2701 420.46 90.6405C419.709 97.011 420.121 103.277 421.697 109.439L433.054 103.104C432.504 99.9215 432.37 96.7409 432.654 93.5622C432.937 90.3835 433.682 87.2325 434.889 84.1092L450.107 100.546L456.432 97.0353L456.432 89.8078L441.091 73.3659C443.193 70.7594 445.549 68.5388 448.16 66.704C450.772 64.8692 453.401 63.2995 456.432 62.1846L456.432 49.7929C450.304 51.5074 444.671 53.7672 439.533 57.605Z" fill="white"/>
<path d="M447.977 33.7081L438.101 27.8593C433.414 32.1586 424.424 35.2227 418.223 36.1204L418.223 -9.31599L407.896 -9.31599L407.896 36.1204C401.551 34.886 393.492 31.9997 388.534 27.8593L378.424 33.7081C387.582 43.0105 399.294 47.8937 412.543 47.9959C425.539 48.0961 438.859 43.0053 447.977 33.7081Z" fill="white"/>
</g>
<g clip-path="url(#clip5_3511_85336)">
<path fill-rule="evenodd" clip-rule="evenodd" d="M481.59 57.605C486.728 61.4427 491.002 66.3159 494.414 72.2247C497.829 78.1315 499.912 84.2701 500.663 90.6405C501.414 97.011 501.002 103.277 499.426 109.439L488.069 103.104C488.619 99.9215 488.753 96.7409 488.469 93.5622C488.186 90.3835 487.441 87.2325 486.235 84.1092L471.016 100.546L464.691 97.0353L464.691 89.8078L480.032 73.3659C477.93 70.7594 475.574 68.5388 472.963 66.704C470.352 64.8692 467.723 63.2995 464.691 62.1846L464.691 49.7929C470.819 51.5074 476.452 53.7672 481.59 57.605Z" fill="white"/>
<path fill-rule="evenodd" clip-rule="evenodd" d="M532.471 57.605C527.333 61.4427 523.058 66.3159 519.647 72.2247C516.232 78.1315 514.149 84.2701 513.398 90.6405C512.647 97.011 513.059 103.277 514.634 109.439L525.991 103.104C525.441 99.9215 525.308 96.7409 525.591 93.5622C525.875 90.3835 526.62 87.2325 527.826 84.1092L543.045 100.546L549.369 97.0353L549.369 89.8078L534.029 73.3659C536.13 70.7594 538.487 68.5388 541.098 66.704C543.709 64.8692 546.338 63.2995 549.369 62.1846L549.369 49.7929C543.242 51.5074 537.609 53.7672 532.471 57.605Z" fill="white"/>
<path d="M540.915 33.7081L531.039 27.8593C526.352 32.1586 517.361 35.2227 511.16 36.1204L511.16 -9.31599L500.834 -9.31599L500.834 36.1204C494.489 34.886 486.43 31.9997 481.472 27.8593L471.361 33.7081C480.52 43.0105 492.231 47.8937 505.481 47.9959C518.476 48.0961 531.797 43.0053 540.915 33.7081Z" fill="white"/>
</g>
<g clip-path="url(#clip6_3511_85336)">
<path fill-rule="evenodd" clip-rule="evenodd" d="M574.529 57.605C579.667 61.4427 583.942 66.3159 587.353 72.2247C590.768 78.1315 592.851 84.2701 593.602 90.6405C594.353 97.011 593.941 103.277 592.366 109.439L581.009 103.104C581.559 99.9215 581.692 96.7409 581.409 93.5622C581.125 90.3835 580.38 87.2325 579.174 84.1092L563.955 100.546L557.631 97.0353L557.631 89.8078L572.971 73.3659C570.87 70.7594 568.513 68.5388 565.902 66.704C563.291 64.8692 560.662 63.2995 557.631 62.1846L557.631 49.7929C563.758 51.5074 569.391 53.7672 574.529 57.605Z" fill="white"/>
<path fill-rule="evenodd" clip-rule="evenodd" d="M625.41 57.605C620.272 61.4427 615.998 66.3159 612.586 72.2247C609.171 78.1315 607.088 84.2701 606.337 90.6405C605.586 97.011 605.998 103.277 607.574 109.439L618.931 103.104C618.381 99.9215 618.247 96.7409 618.531 93.5622C618.814 90.3835 619.559 87.2325 620.765 84.1092L635.984 100.546L642.309 97.0353L642.309 89.8078L626.968 73.3659C629.07 70.7594 631.426 68.5388 634.037 66.704C636.648 64.8692 639.277 63.2995 642.309 62.1846L642.309 49.7929C636.181 51.5074 630.548 53.7672 625.41 57.605Z" fill="white"/>
<path d="M633.854 33.7081L623.978 27.8593C619.291 32.1586 610.301 35.2227 604.1 36.1204L604.1 -9.31599L593.773 -9.31599L593.773 36.1204C587.428 34.886 579.369 31.9997 574.411 27.8593L564.301 33.7081C573.459 43.0105 585.171 47.8937 598.42 47.9959C611.416 48.0961 624.736 43.0053 633.854 33.7081Z" fill="white"/>
</g>
<g clip-path="url(#clip7_3511_85336)">
<path fill-rule="evenodd" clip-rule="evenodd" d="M667.467 57.605C672.604 61.4427 676.879 66.3159 680.291 72.2247C683.706 78.1315 685.789 84.2701 686.54 90.6405C687.291 97.011 686.879 103.277 685.303 109.439L673.946 103.104C674.496 99.9215 674.63 96.7409 674.346 93.5622C674.063 90.3835 673.318 87.2325 672.111 84.1092L656.893 100.546L650.568 97.0353L650.568 89.8078L665.909 73.3659C663.807 70.7594 661.451 68.5388 658.84 66.704C656.228 64.8692 653.599 63.2995 650.568 62.1846L650.568 49.7929C656.696 51.5074 662.329 53.7672 667.467 57.605Z" fill="white"/>
<path fill-rule="evenodd" clip-rule="evenodd" d="M718.348 57.605C713.21 61.4427 708.935 66.3159 705.524 72.2247C702.109 78.1315 700.026 84.2701 699.275 90.6405C698.524 97.011 698.936 103.277 700.511 109.439L711.868 103.104C711.318 99.9215 711.185 96.7409 711.468 93.5622C711.752 90.3835 712.497 87.2325 713.703 84.1092L728.922 100.546L735.246 97.0353L735.246 89.8078L719.906 73.3659C722.007 70.7594 724.364 68.5388 726.975 66.704C729.586 64.8692 732.215 63.2995 735.246 62.1846L735.246 49.7929C729.119 51.5074 723.486 53.7672 718.348 57.605Z" fill="white"/>
<path d="M726.792 33.7081L716.916 27.8593C712.229 32.1586 703.238 35.2227 697.037 36.1204L697.037 -9.31599L686.711 -9.31599L686.711 36.1204C680.365 34.886 672.307 31.9997 667.349 27.8593L657.238 33.7081C666.397 43.0105 678.108 47.8937 691.358 47.9959C704.353 48.0961 717.674 43.0053 726.792 33.7081Z" fill="white"/>
</g>
<g clip-path="url(#clip8_3511_85336)">
<path fill-rule="evenodd" clip-rule="evenodd" d="M760.406 57.605C765.544 61.4427 769.819 66.3159 773.23 72.2247C776.645 78.1315 778.728 84.2701 779.479 90.6405C780.23 97.011 779.818 103.277 778.243 109.439L766.886 103.104C767.436 99.9215 767.569 96.7409 767.286 93.5622C767.002 90.3835 766.257 87.2325 765.051 84.1092L749.832 100.546L743.508 97.0353L743.508 89.8078L758.848 73.3659C756.747 70.7594 754.39 68.5388 751.779 66.704C749.168 64.8692 746.539 63.2995 743.508 62.1846L743.508 49.7929C749.635 51.5074 755.268 53.7672 760.406 57.605Z" fill="white"/>
<path fill-rule="evenodd" clip-rule="evenodd" d="M811.287 57.605C806.149 61.4427 801.875 66.3159 798.463 72.2247C795.048 78.1315 792.965 84.2701 792.214 90.6405C791.463 97.011 791.875 103.277 793.451 109.439L804.808 103.104C804.258 99.9215 804.124 96.7409 804.408 93.5622C804.691 90.3835 805.436 87.2325 806.642 84.1092L821.861 100.546L828.186 97.0353L828.186 89.8078L812.845 73.3659C814.947 70.7594 817.303 68.5388 819.914 66.704C822.525 64.8692 825.154 63.2995 828.186 62.1846L828.186 49.7929C822.058 51.5074 816.425 53.7672 811.287 57.605Z" fill="white"/>
<path d="M819.731 33.7081L809.855 27.8593C805.168 32.1586 796.178 35.2227 789.977 36.1204L789.977 -9.31599L779.65 -9.31599L779.65 36.1204C773.305 34.886 765.246 31.9997 760.288 27.8593L750.178 33.7081C759.336 43.0105 771.048 47.8937 784.297 47.9959C797.293 48.0961 810.613 43.0053 819.731 33.7081Z" fill="white"/>
</g>
<g clip-path="url(#clip9_3511_85336)">
<path fill-rule="evenodd" clip-rule="evenodd" d="M853.344 57.605C858.481 61.4427 862.756 66.3159 866.168 72.2247C869.583 78.1315 871.666 84.2701 872.417 90.6405C873.168 97.011 872.756 103.277 871.18 109.439L859.823 103.104C860.373 99.9215 860.507 96.7409 860.223 93.5622C859.94 90.3835 859.195 87.2325 857.988 84.1092L842.77 100.546L836.445 97.0353L836.445 89.8078L851.786 73.3659C849.684 70.7594 847.328 68.5388 844.717 66.704C842.105 64.8692 839.476 63.2995 836.445 62.1846L836.445 49.7929C842.573 51.5074 848.206 53.7672 853.344 57.605Z" fill="white"/>
<path fill-rule="evenodd" clip-rule="evenodd" d="M904.225 57.605C899.087 61.4427 894.812 66.3159 891.401 72.2247C887.986 78.1315 885.903 84.2701 885.152 90.6405C884.401 97.011 884.813 103.277 886.388 109.439L897.745 103.104C897.195 99.9215 897.062 96.7409 897.345 93.5622C897.629 90.3835 898.374 87.2325 899.58 84.1092L914.799 100.546L921.123 97.0353L921.123 89.8078L905.783 73.3659C907.884 70.7594 910.241 68.5388 912.852 66.704C915.463 64.8692 918.092 63.2995 921.123 62.1846L921.123 49.7929C914.995 51.5074 909.363 53.7672 904.225 57.605Z" fill="white"/>
<path d="M912.669 33.7081L902.793 27.8593C898.105 32.1586 889.115 35.2227 882.914 36.1204L882.914 -9.31599L872.588 -9.31599L872.588 36.1204C866.242 34.886 858.184 31.9997 853.226 27.8593L843.115 33.7081C852.274 43.0105 863.985 47.8937 877.235 47.9959C890.23 48.0961 903.551 43.0053 912.669 33.7081Z" fill="white"/>
</g>
<g clip-path="url(#clip10_3511_85336)">
<path fill-rule="evenodd" clip-rule="evenodd" d="M946.283 57.605C951.421 61.4427 955.696 66.3159 959.107 72.2247C962.522 78.1315 964.605 84.2701 965.356 90.6405C966.107 97.011 965.695 103.277 964.12 109.439L952.763 103.104C953.313 99.9215 953.446 96.7409 953.163 93.5622C952.879 90.3835 952.134 87.2325 950.928 84.1092L935.709 100.546L929.385 97.0353L929.385 89.8078L944.725 73.3659C942.624 70.7594 940.267 68.5388 937.656 66.704C935.045 64.8692 932.416 63.2995 929.385 62.1846L929.385 49.7929C935.512 51.5074 941.145 53.7672 946.283 57.605Z" fill="white"/>
<path fill-rule="evenodd" clip-rule="evenodd" d="M997.164 57.605C992.026 61.4427 987.752 66.3159 984.34 72.2247C980.925 78.1315 978.842 84.2701 978.091 90.6405C977.34 97.011 977.752 103.277 979.328 109.439L990.685 103.104C990.135 99.9215 990.001 96.7409 990.285 93.5622C990.568 90.3835 991.313 87.2325 992.519 84.1092L1007.74 100.546L1014.06 97.0353L1014.06 89.8078L998.722 73.3659C1000.82 70.7594 1003.18 68.5388 1005.79 66.704C1008.4 64.8692 1011.03 63.2995 1014.06 62.1846L1014.06 49.7929C1007.93 51.5074 1002.3 53.7672 997.164 57.605Z" fill="white"/>
<path d="M1005.61 33.7081L995.732 27.8593C991.045 32.1586 982.055 35.2227 975.854 36.1204L975.854 -9.31599L965.527 -9.31599L965.527 36.1204C959.182 34.886 951.123 31.9997 946.165 27.8593L936.055 33.7081C945.213 43.0105 956.925 47.8937 970.174 47.9959C983.17 48.0961 996.49 43.0053 1005.61 33.7081Z" fill="white"/>
</g>
<g clip-path="url(#clip11_3511_85336)">
<path fill-rule="evenodd" clip-rule="evenodd" d="M1039.22 57.605C1044.36 61.4427 1048.63 66.3159 1052.04 72.2247C1055.46 78.1315 1057.54 84.2701 1058.29 90.6405C1059.04 97.011 1058.63 103.277 1057.06 109.439L1045.7 103.104C1046.25 99.9215 1046.38 96.7409 1046.1 93.5622C1045.82 90.3835 1045.07 87.2325 1043.87 84.1092L1028.65 100.546L1022.32 97.0353L1022.32 89.8078L1037.66 73.3659C1035.56 70.7594 1033.2 68.5388 1030.59 66.704C1027.98 64.8692 1025.35 63.2995 1022.32 62.1846L1022.32 49.7929C1028.45 51.5074 1034.08 53.7672 1039.22 57.605Z" fill="white"/>
<path fill-rule="evenodd" clip-rule="evenodd" d="M1090.1 57.605C1084.96 61.4427 1080.69 66.3159 1077.28 72.2247C1073.86 78.1315 1071.78 84.2701 1071.03 90.6405C1070.28 97.011 1070.69 103.277 1072.27 109.439L1083.62 103.104C1083.07 99.9215 1082.94 96.7409 1083.22 93.5622C1083.51 90.3835 1084.25 87.2325 1085.46 84.1092L1100.68 100.546L1107 97.0353L1107 89.8078L1091.66 73.3659C1093.76 70.7594 1096.12 68.5388 1098.73 66.704C1101.34 64.8692 1103.97 63.2995 1107 62.1846L1107 49.7929C1100.87 51.5074 1095.24 53.7672 1090.1 57.605Z" fill="white"/>
<path d="M1098.55 33.7081L1088.67 27.8593C1083.98 32.1586 1074.99 35.2227 1068.79 36.1204L1068.79 -9.31599L1058.46 -9.31599L1058.46 36.1204C1052.12 34.886 1044.06 31.9997 1039.1 27.8593L1028.99 33.7081C1038.15 43.0105 1049.86 47.8937 1063.11 47.9959C1076.11 48.0961 1089.43 43.0053 1098.55 33.7081Z" fill="white"/>
</g>
<defs>
<clipPath id="clip0_3511_85336">
<rect width="84.6773" height="109.977" fill="white" transform="matrix(1 0 0 -1 0 109.438)"/>
</clipPath>
<clipPath id="clip1_3511_85336">
<rect width="84.6773" height="109.977" fill="white" transform="matrix(1 0 0 -1 92.9375 109.438)"/>
</clipPath>
<clipPath id="clip2_3511_85336">
<rect width="84.6773" height="109.977" fill="white" transform="matrix(1 0 0 -1 185.877 109.438)"/>
</clipPath>
<clipPath id="clip3_3511_85336">
<rect width="84.6773" height="109.977" fill="white" transform="matrix(1 0 0 -1 278.814 109.438)"/>
</clipPath>
<clipPath id="clip4_3511_85336">
<rect width="84.6773" height="109.977" fill="white" transform="matrix(1 0 0 -1 371.754 109.438)"/>
</clipPath>
<clipPath id="clip5_3511_85336">
<rect width="84.6773" height="109.977" fill="white" transform="matrix(1 0 0 -1 464.691 109.438)"/>
</clipPath>
<clipPath id="clip6_3511_85336">
<rect width="84.6773" height="109.977" fill="white" transform="matrix(1 0 0 -1 557.631 109.438)"/>
</clipPath>
<clipPath id="clip7_3511_85336">
<rect width="84.6773" height="109.977" fill="white" transform="matrix(1 0 0 -1 650.568 109.438)"/>
</clipPath>
<clipPath id="clip8_3511_85336">
<rect width="84.6773" height="109.977" fill="white" transform="matrix(1 0 0 -1 743.508 109.438)"/>
</clipPath>
<clipPath id="clip9_3511_85336">
<rect width="84.6773" height="109.977" fill="white" transform="matrix(1 0 0 -1 836.445 109.438)"/>
</clipPath>
<clipPath id="clip10_3511_85336">
<rect width="84.6773" height="109.977" fill="white" transform="matrix(1 0 0 -1 929.385 109.438)"/>
</clipPath>
<clipPath id="clip11_3511_85336">
<rect width="84.6773" height="109.977" fill="white" transform="matrix(1 0 0 -1 1022.32 109.438)"/>
</clipPath>
</defs>
</svg>
