<svg width="216" height="203" viewBox="0 0 216 203" fill="none" xmlns="http://www.w3.org/2000/svg">
<path d="M133.566 108.54C148.44 103.092 164.883 103.813 179.276 110.544C193.67 117.275 204.835 129.465 210.317 144.431L214.45 155.718C216.643 161.704 216.382 168.311 213.726 174.085C211.069 179.859 206.234 184.327 200.285 186.506L43.2535 244.019C37.3039 246.198 30.7269 245.91 24.9695 243.217C19.2121 240.525 14.7459 235.649 12.5533 229.662L8.41965 218.376C2.93816 203.41 3.58985 186.892 10.2314 172.457C16.8729 158.022 28.9602 146.852 43.8342 141.404L133.566 108.54ZM173.959 30.7818C175.224 27.9985 177.501 25.8104 180.326 24.6653C183.15 23.5202 186.307 23.5047 189.151 24.6221C191.996 25.7394 194.311 27.905 195.625 30.6756C196.939 33.4462 197.151 36.6123 196.218 39.5259L195.669 40.9431L175.638 84.4784C174.418 87.129 172.276 89.2375 169.613 90.4083C166.951 91.5791 163.95 91.7318 161.175 90.8377L159.778 90.2871L138.073 80.137C135.298 78.8553 133.111 76.5582 131.96 73.716C130.809 70.8738 130.781 67.7014 131.881 64.8481C132.982 61.9949 135.128 59.6766 137.88 58.3677C140.633 57.0589 143.783 56.8585 146.687 57.8075L148.088 58.3694L158.941 63.4445L173.959 30.7818ZM39.0971 -10.4635C53.9711 -15.9111 70.4134 -15.1902 84.8069 -8.45923C99.2005 -1.72829 110.366 10.4612 115.848 25.4278C121.329 40.3944 120.677 56.9121 114.036 71.3471C107.394 85.782 95.3071 96.952 80.4331 102.4C65.559 107.847 49.1167 107.126 34.7232 100.395C20.3297 93.6643 9.16399 81.4748 3.68249 66.5082C-1.799 51.5416 -1.14731 35.024 5.49421 20.589C12.1357 6.15398 24.223 -5.01595 39.0971 -10.4635Z" fill="#FC11F5"/>
</svg>
