<svg width="1107" height="229" viewBox="0 0 1107 229" fill="none" xmlns="http://www.w3.org/2000/svg">
<g clip-path="url(#clip0_2420_16244)">
<path fill-rule="evenodd" clip-rule="evenodd" d="M16.8983 51.834C22.0361 47.9963 26.3108 43.123 29.7223 37.2142C33.1373 31.3075 35.2203 25.1689 35.9714 18.7984C36.7224 12.428 36.3102 6.16181 34.7349 -1.38688e-07L23.378 6.33504C23.928 9.51747 24.0613 12.698 23.7779 15.8768C23.4944 19.0555 22.7495 22.2065 21.5431 25.3298L6.32433 8.89282L2.17681e-05 12.4037L2.17354e-05 19.6311L15.3405 36.0731C13.2388 38.6795 10.8824 40.9002 8.27126 42.735C5.66012 44.5698 3.0311 46.1395 2.16149e-05 47.2544L2.38152e-07 59.6461C6.12756 57.9316 11.7604 55.6717 16.8983 51.834Z" fill="#190B19"/>
<path fill-rule="evenodd" clip-rule="evenodd" d="M67.7791 51.834C62.6412 47.9963 58.3666 43.123 54.9551 37.2142C51.5401 31.3075 49.457 25.1689 48.706 18.7984C47.955 12.428 48.3671 6.16181 49.9425 -1.38688e-07L61.2994 6.33504C60.7494 9.51747 60.6161 12.698 60.8995 15.8768C61.1829 19.0555 61.9278 22.2065 63.1342 25.3298L78.353 8.89282L84.6773 12.4037L84.6773 19.6311L69.3369 36.0731C71.4386 38.6795 73.795 40.9002 76.4061 42.735C79.0173 44.5698 81.6463 46.1395 84.6773 47.2544L84.6774 59.6461C78.5498 57.9316 72.917 55.6717 67.7791 51.834Z" fill="#190B19"/>
<path d="M76.2238 75.7306L66.3476 81.5794C61.6605 77.2802 52.6701 74.216 46.4692 73.3183L46.4692 118.755L36.1427 118.755L36.1427 73.3183C29.7974 74.5527 21.7389 77.439 16.7806 81.5794L6.67023 75.7306C15.8288 66.4282 27.5402 61.545 40.7896 61.4429C53.7853 61.3426 67.1056 66.4334 76.2238 75.7306Z" fill="#190B19"/>
</g>
<g clip-path="url(#clip1_2420_16244)">
<path fill-rule="evenodd" clip-rule="evenodd" d="M109.837 51.834C114.975 47.9963 119.249 43.123 122.661 37.2142C126.076 31.3075 128.159 25.1689 128.91 18.7984C129.661 12.428 129.249 6.16181 127.673 -1.38688e-07L116.316 6.33504C116.866 9.51747 117 12.698 116.716 15.8768C116.433 19.0555 115.688 22.2065 114.482 25.3298L99.2628 8.89282L92.9385 12.4037L92.9385 19.6311L108.279 36.0731C106.177 38.6795 103.821 40.9002 101.21 42.735C98.5986 44.5698 95.9696 46.1395 92.9385 47.2544L92.9385 59.6461C99.066 57.9316 104.699 55.6717 109.837 51.834Z" fill="#190B19"/>
<path fill-rule="evenodd" clip-rule="evenodd" d="M160.718 51.834C155.58 47.9963 151.305 43.123 147.894 37.2142C144.479 31.3075 142.396 25.1689 141.644 18.7984C140.893 12.428 141.306 6.16181 142.881 -1.38688e-07L154.238 6.33504C153.688 9.51747 153.555 12.698 153.838 15.8768C154.121 19.0555 154.866 22.2065 156.073 25.3298L171.292 8.89282L177.616 12.4037L177.616 19.6311L162.275 36.0731C164.377 38.6795 166.733 40.9002 169.345 42.735C171.956 44.5698 174.585 46.1395 177.616 47.2544L177.616 59.6461C171.488 57.9316 165.855 55.6717 160.718 51.834Z" fill="#190B19"/>
<path d="M169.162 75.7306L159.286 81.5794C154.599 77.2802 145.608 74.216 139.407 73.3183L139.407 118.755L129.081 118.755L129.081 73.3183C122.735 74.5527 114.677 77.439 109.719 81.5794L99.6083 75.7306C108.767 66.4282 120.478 61.545 133.728 61.4429C146.723 61.3426 160.044 66.4334 169.162 75.7306Z" fill="#190B19"/>
</g>
<g clip-path="url(#clip2_2420_16244)">
<path fill-rule="evenodd" clip-rule="evenodd" d="M202.775 51.834C207.913 47.9963 212.188 43.123 215.599 37.2142C219.014 31.3075 221.097 25.1689 221.848 18.7984C222.599 12.428 222.187 6.16181 220.612 -1.38688e-07L209.255 6.33504C209.805 9.51747 209.938 12.698 209.655 15.8768C209.371 19.0555 208.626 22.2065 207.42 25.3298L192.201 8.89282L185.877 12.4037L185.877 19.6311L201.217 36.0731C199.116 38.6795 196.759 40.9002 194.148 42.735C191.537 44.5698 188.908 46.1395 185.877 47.2544L185.877 59.6461C192.004 57.9316 197.637 55.6717 202.775 51.834Z" fill="#190B19"/>
<path fill-rule="evenodd" clip-rule="evenodd" d="M253.655 51.834C248.518 47.9963 244.243 43.123 240.831 37.2142C237.416 31.3075 235.333 25.1689 234.582 18.7984C233.831 12.428 234.243 6.16181 235.819 -1.38688e-07L247.176 6.33504C246.626 9.51747 246.492 12.698 246.776 15.8768C247.059 19.0555 247.804 22.2065 249.011 25.3298L264.229 8.89282L270.554 12.4037L270.554 19.6311L255.213 36.0731C257.315 38.6795 259.671 40.9002 262.282 42.735C264.894 44.5698 267.523 46.1395 270.554 47.2544L270.554 59.6461C264.426 57.9316 258.793 55.6717 253.655 51.834Z" fill="#190B19"/>
<path d="M262.101 75.7306L252.224 81.5794C247.537 77.2802 238.547 74.216 232.346 73.3183L232.346 118.755L222.02 118.755L222.02 73.3183C215.674 74.5527 207.616 77.439 202.657 81.5794L192.547 75.7306C201.706 66.4282 213.417 61.545 226.666 61.4429C239.662 61.3426 252.982 66.4334 262.101 75.7306Z" fill="#190B19"/>
</g>
<g clip-path="url(#clip3_2420_16244)">
<path fill-rule="evenodd" clip-rule="evenodd" d="M295.713 51.834C300.851 47.9963 305.126 43.123 308.538 37.2142C311.953 31.3075 314.036 25.1689 314.787 18.7984C315.538 12.428 315.125 6.16181 313.55 -1.38688e-07L302.193 6.33504C302.743 9.51747 302.877 12.698 302.593 15.8768C302.31 19.0555 301.565 22.2065 300.358 25.3298L285.14 8.89282L278.815 12.4037L278.815 19.6311L294.156 36.0731C292.054 38.6795 289.698 40.9002 287.087 42.735C284.475 44.5698 281.846 46.1395 278.815 47.2544L278.815 59.6461C284.943 57.9316 290.576 55.6717 295.713 51.834Z" fill="#190B19"/>
<path fill-rule="evenodd" clip-rule="evenodd" d="M346.595 51.834C341.457 47.9963 337.182 43.123 333.771 37.2142C330.356 31.3075 328.272 25.1689 327.521 18.7984C326.77 12.428 327.183 6.16181 328.758 -1.38688e-07L340.115 6.33504C339.565 9.51747 339.432 12.698 339.715 15.8768C339.998 19.0555 340.743 22.2065 341.95 25.3298L357.168 8.89282L363.493 12.4037L363.493 19.6311L348.152 36.0731C350.254 38.6795 352.61 40.9002 355.222 42.735C357.833 44.5698 360.462 46.1395 363.493 47.2544L363.493 59.6461C357.365 57.9316 351.732 55.6717 346.595 51.834Z" fill="#190B19"/>
<path d="M355.039 75.7306L345.163 81.5794C340.476 77.2802 331.486 74.216 325.285 73.3183L325.285 118.755L314.958 118.755L314.958 73.3183C308.613 74.5527 300.554 77.439 295.596 81.5794L285.486 75.7306C294.644 66.4282 306.356 61.545 319.605 61.4429C332.601 61.3426 345.921 66.4334 355.039 75.7306Z" fill="#190B19"/>
</g>
<g clip-path="url(#clip4_2420_16244)">
<path fill-rule="evenodd" clip-rule="evenodd" d="M388.652 51.834C393.79 47.9963 398.064 43.123 401.476 37.2142C404.891 31.3075 406.974 25.1689 407.725 18.7984C408.476 12.428 408.064 6.16181 406.489 -1.38688e-07L395.132 6.33504C395.682 9.51747 395.815 12.698 395.532 15.8768C395.248 19.0555 394.503 22.2065 393.297 25.3298L378.078 8.89282L371.754 12.4037L371.754 19.6311L387.094 36.0731C384.992 38.6795 382.636 40.9002 380.025 42.735C377.414 44.5698 374.785 46.1395 371.754 47.2544L371.754 59.6461C377.881 57.9316 383.514 55.6717 388.652 51.834Z" fill="#190B19"/>
<path fill-rule="evenodd" clip-rule="evenodd" d="M439.533 51.834C434.395 47.9963 430.12 43.123 426.709 37.2142C423.294 31.3075 421.211 25.1689 420.46 18.7984C419.709 12.428 420.121 6.16181 421.696 -1.38688e-07L433.053 6.33504C432.503 9.51747 432.37 12.698 432.653 15.8768C432.937 19.0555 433.682 22.2065 434.888 25.3298L450.107 8.89282L456.431 12.4037L456.431 19.6311L441.091 36.0731C443.192 38.6795 445.549 40.9002 448.16 42.735C450.771 44.5698 453.4 46.1395 456.431 47.2544L456.431 59.6461C450.304 57.9316 444.671 55.6717 439.533 51.834Z" fill="#190B19"/>
<path d="M447.977 75.7306L438.101 81.5794C433.414 77.2802 424.423 74.216 418.223 73.3183L418.223 118.755L407.896 118.755L407.896 73.3183C401.551 74.5527 393.492 77.439 388.534 81.5794L378.424 75.7306C387.582 66.4282 399.294 61.545 412.543 61.4429C425.539 61.3426 438.859 66.4334 447.977 75.7306Z" fill="#190B19"/>
</g>
<g clip-path="url(#clip5_2420_16244)">
<path fill-rule="evenodd" clip-rule="evenodd" d="M481.59 51.834C486.728 47.9963 491.003 43.123 494.414 37.2142C497.829 31.3075 499.912 25.1689 500.663 18.7984C501.414 12.428 501.002 6.16181 499.427 -1.38688e-07L488.07 6.33504C488.62 9.51747 488.753 12.698 488.47 15.8768C488.186 19.0555 487.442 22.2065 486.235 25.3298L471.016 8.89282L464.692 12.4037L464.692 19.6311L480.033 36.0731C477.931 38.6795 475.574 40.9002 472.963 42.735C470.352 44.5698 467.723 46.1395 464.692 47.2544L464.692 59.6461C470.82 57.9316 476.452 55.6717 481.59 51.834Z" fill="#190B19"/>
<path fill-rule="evenodd" clip-rule="evenodd" d="M532.471 51.834C527.333 47.9963 523.059 43.123 519.647 37.2142C516.232 31.3075 514.149 25.1689 513.398 18.7984C512.647 12.428 513.059 6.16181 514.635 -1.38688e-07L525.992 6.33504C525.442 9.51747 525.308 12.698 525.592 15.8768C525.875 19.0555 526.62 22.2065 527.826 25.3298L543.045 8.89282L549.37 12.4037L549.37 19.6311L534.029 36.0731C536.131 38.6795 538.487 40.9002 541.098 42.735C543.709 44.5698 546.339 46.1395 549.37 47.2544L549.37 59.6461C543.242 57.9316 537.609 55.6717 532.471 51.834Z" fill="#190B19"/>
<path d="M540.916 75.7306L531.039 81.5794C526.352 77.2802 517.362 74.216 511.161 73.3183L511.161 118.755L500.834 118.755L500.834 73.3183C494.489 74.5527 486.431 77.439 481.472 81.5794L471.362 75.7306C480.521 66.4282 492.232 61.545 505.481 61.4429C518.477 61.3426 531.797 66.4334 540.916 75.7306Z" fill="#190B19"/>
</g>
<g clip-path="url(#clip6_2420_16244)">
<path fill-rule="evenodd" clip-rule="evenodd" d="M574.529 51.834C579.667 47.9963 583.941 43.123 587.353 37.2142C590.768 31.3075 592.851 25.1689 593.602 18.7984C594.353 12.428 593.941 6.16181 592.366 -1.38688e-07L581.009 6.33504C581.559 9.51747 581.692 12.698 581.409 15.8768C581.125 19.0555 580.38 22.2065 579.174 25.3298L563.955 8.89282L557.631 12.4037L557.631 19.6311L572.971 36.0731C570.869 38.6795 568.513 40.9002 565.902 42.735C563.291 44.5698 560.662 46.1395 557.631 47.2544L557.631 59.6461C563.758 57.9316 569.391 55.6717 574.529 51.834Z" fill="#190B19"/>
<path fill-rule="evenodd" clip-rule="evenodd" d="M625.409 51.834C620.272 47.9963 615.997 43.123 612.585 37.2142C609.17 31.3075 607.087 25.1689 606.336 18.7984C605.585 12.428 605.997 6.16181 607.573 -1.38688e-07L618.93 6.33504C618.38 9.51747 618.246 12.698 618.53 15.8768C618.813 19.0555 619.558 22.2065 620.765 25.3298L635.983 8.89282L642.308 12.4037L642.308 19.6311L626.967 36.0731C629.069 38.6795 631.425 40.9002 634.036 42.735C636.648 44.5698 639.277 46.1395 642.308 47.2544L642.308 59.6461C636.18 57.9316 630.547 55.6717 625.409 51.834Z" fill="#190B19"/>
<path d="M633.855 75.7306L623.978 81.5794C619.291 77.2802 610.301 74.216 604.1 73.3183L604.1 118.755L593.774 118.755L593.774 73.3183C587.428 74.5527 579.37 77.439 574.411 81.5794L564.301 75.7306C573.46 66.4282 585.171 61.545 598.42 61.4429C611.416 61.3426 624.736 66.4334 633.855 75.7306Z" fill="#190B19"/>
</g>
<g clip-path="url(#clip7_2420_16244)">
<path fill-rule="evenodd" clip-rule="evenodd" d="M667.467 51.834C672.605 47.9963 676.88 43.123 680.291 37.2142C683.707 31.3075 685.79 25.1689 686.541 18.7984C687.292 12.428 686.879 6.16181 685.304 -1.38688e-07L673.947 6.33504C674.497 9.51747 674.63 12.698 674.347 15.8768C674.064 19.0555 673.319 22.2065 672.112 25.3298L656.894 8.89282L650.569 12.4037L650.569 19.6311L665.91 36.0731C663.808 38.6795 661.452 40.9002 658.84 42.735C656.229 44.5698 653.6 46.1395 650.569 47.2544L650.569 59.6461C656.697 57.9316 662.33 55.6717 667.467 51.834Z" fill="#190B19"/>
<path fill-rule="evenodd" clip-rule="evenodd" d="M718.348 51.834C713.21 47.9963 708.936 43.123 705.524 37.2142C702.109 31.3075 700.026 25.1689 699.275 18.7984C698.524 12.428 698.936 6.16181 700.512 -1.38688e-07L711.868 6.33504C711.318 9.51747 711.185 12.698 711.469 15.8768C711.752 19.0555 712.497 22.2065 713.703 25.3298L728.922 8.89282L735.246 12.4037L735.246 19.6311L719.906 36.0731C722.008 38.6795 724.364 40.9002 726.975 42.735C729.586 44.5698 732.215 46.1395 735.246 47.2544L735.246 59.6461C729.119 57.9316 723.486 55.6717 718.348 51.834Z" fill="#190B19"/>
<path d="M726.792 75.7306L716.916 81.5794C712.229 77.2802 703.239 74.216 697.038 73.3183L697.038 118.755L686.711 118.755L686.711 73.3183C680.366 74.5527 672.308 77.439 667.349 81.5794L657.239 75.7306C666.397 66.4282 678.109 61.545 691.358 61.4429C704.354 61.3426 717.674 66.4334 726.792 75.7306Z" fill="#190B19"/>
</g>
<g clip-path="url(#clip8_2420_16244)">
<path fill-rule="evenodd" clip-rule="evenodd" d="M760.406 51.834C765.543 47.9963 769.818 43.123 773.23 37.2142C776.645 31.3075 778.728 25.1689 779.479 18.7984C780.23 12.428 779.818 6.16181 778.242 -1.38688e-07L766.885 6.33504C767.435 9.51747 767.569 12.698 767.285 15.8768C767.002 19.0555 766.257 22.2065 765.05 25.3298L749.832 8.89282L743.507 12.4037L743.507 19.6311L758.848 36.0731C756.746 38.6795 754.39 40.9002 751.779 42.735C749.167 44.5698 746.538 46.1395 743.507 47.2544L743.507 59.6461C749.635 57.9316 755.268 55.6717 760.406 51.834Z" fill="#190B19"/>
<path fill-rule="evenodd" clip-rule="evenodd" d="M811.286 51.834C806.149 47.9963 801.874 43.123 798.462 37.2142C795.047 31.3075 792.964 25.1689 792.213 18.7984C791.462 12.428 791.874 6.16181 793.45 -1.38688e-07L804.807 6.33504C804.257 9.51747 804.123 12.698 804.407 15.8768C804.69 19.0555 805.435 22.2065 806.642 25.3298L821.86 8.89282L828.185 12.4037L828.185 19.6311L812.844 36.0731C814.946 38.6795 817.302 40.9002 819.913 42.735C822.525 44.5698 825.154 46.1395 828.185 47.2544L828.185 59.6461C822.057 57.9316 816.424 55.6717 811.286 51.834Z" fill="#190B19"/>
<path d="M819.731 75.7306L809.855 81.5794C805.168 77.2802 796.177 74.216 789.977 73.3183L789.977 118.755L779.65 118.755L779.65 73.3183C773.305 74.5527 765.246 77.439 760.288 81.5794L750.178 75.7306C759.336 66.4282 771.048 61.545 784.297 61.4429C797.293 61.3426 810.613 66.4334 819.731 75.7306Z" fill="#190B19"/>
</g>
<g clip-path="url(#clip9_2420_16244)">
<path fill-rule="evenodd" clip-rule="evenodd" d="M853.344 51.834C858.482 47.9963 862.757 43.123 866.168 37.2142C869.583 31.3075 871.666 25.1689 872.417 18.7984C873.168 12.428 872.756 6.16181 871.181 -1.38688e-07L859.824 6.33504C860.374 9.51747 860.507 12.698 860.224 15.8768C859.94 19.0555 859.195 22.2065 857.989 25.3298L842.77 8.89282L836.446 12.4037L836.446 19.6311L851.786 36.0731C849.685 38.6795 847.328 40.9002 844.717 42.735C842.106 44.5698 839.477 46.1395 836.446 47.2544L836.446 59.6461C842.573 57.9316 848.206 55.6717 853.344 51.834Z" fill="#190B19"/>
<path fill-rule="evenodd" clip-rule="evenodd" d="M904.225 51.834C899.087 47.9963 894.813 43.123 891.401 37.2142C887.986 31.3075 885.903 25.1689 885.152 18.7984C884.401 12.428 884.813 6.16181 886.389 -1.38688e-07L897.745 6.33504C897.195 9.51747 897.062 12.698 897.346 15.8768C897.629 19.0555 898.374 22.2065 899.58 25.3298L914.799 8.89282L921.123 12.4037L921.123 19.6311L905.783 36.0731C907.885 38.6795 910.241 40.9002 912.852 42.735C915.463 44.5698 918.092 46.1395 921.123 47.2544L921.123 59.6461C914.996 57.9316 909.363 55.6717 904.225 51.834Z" fill="#190B19"/>
<path d="M912.67 75.7306L902.794 81.5794C898.106 77.2802 889.116 74.216 882.915 73.3183L882.915 118.755L872.589 118.755L872.589 73.3183C866.243 74.5527 858.185 77.439 853.227 81.5794L843.116 75.7306C852.275 66.4282 863.986 61.545 877.236 61.4429C890.231 61.3426 903.552 66.4334 912.67 75.7306Z" fill="#190B19"/>
</g>
<g clip-path="url(#clip10_2420_16244)">
<path fill-rule="evenodd" clip-rule="evenodd" d="M946.283 51.834C951.42 47.9963 955.695 43.123 959.107 37.2142C962.522 31.3075 964.605 25.1689 965.356 18.7984C966.107 12.428 965.695 6.16181 964.119 -1.38688e-07L952.762 6.33504C953.312 9.51747 953.446 12.698 953.162 15.8768C952.879 19.0555 952.134 22.2065 950.927 25.3298L935.709 8.89282L929.384 12.4037L929.384 19.6311L944.725 36.0731C942.623 38.6795 940.267 40.9002 937.656 42.735C935.044 44.5698 932.415 46.1395 929.384 47.2544L929.384 59.6461C935.512 57.9316 941.145 55.6717 946.283 51.834Z" fill="#190B19"/>
<path fill-rule="evenodd" clip-rule="evenodd" d="M997.163 51.834C992.025 47.9963 987.751 43.123 984.339 37.2142C980.924 31.3075 978.841 25.1689 978.09 18.7984C977.339 12.428 977.751 6.16181 979.327 -1.38688e-07L990.684 6.33504C990.134 9.51747 990 12.698 990.284 15.8768C990.567 19.0555 991.312 22.2065 992.518 25.3298L1007.74 8.89282L1014.06 12.4037L1014.06 19.6311L998.721 36.0731C1000.82 38.6795 1003.18 40.9002 1005.79 42.735C1008.4 44.5698 1011.03 46.1395 1014.06 47.2544L1014.06 59.6461C1007.93 57.9316 1002.3 55.6717 997.163 51.834Z" fill="#190B19"/>
<path d="M1005.61 75.7306L995.732 81.5794C991.045 77.2802 982.054 74.216 975.853 73.3183L975.853 118.755L965.527 118.755L965.527 73.3183C959.182 74.5527 951.123 77.439 946.165 81.5794L936.054 75.7306C945.213 66.4282 956.924 61.545 970.174 61.4429C983.17 61.3426 996.49 66.4334 1005.61 75.7306Z" fill="#190B19"/>
</g>
<g clip-path="url(#clip11_2420_16244)">
<path fill-rule="evenodd" clip-rule="evenodd" d="M1039.22 51.834C1044.36 47.9963 1048.63 43.123 1052.04 37.2142C1055.46 31.3075 1057.54 25.1689 1058.29 18.7984C1059.05 12.428 1058.63 6.16181 1057.06 -1.38688e-07L1045.7 6.33504C1046.25 9.51747 1046.38 12.698 1046.1 15.8768C1045.82 19.0555 1045.07 22.2065 1043.87 25.3298L1028.65 8.89282L1022.32 12.4037L1022.32 19.6311L1037.66 36.0731C1035.56 38.6795 1033.21 40.9002 1030.59 42.735C1027.98 44.5698 1025.35 46.1395 1022.32 47.2544L1022.32 59.6461C1028.45 57.9316 1034.08 55.6717 1039.22 51.834Z" fill="#190B19"/>
<path fill-rule="evenodd" clip-rule="evenodd" d="M1090.1 51.834C1084.96 47.9963 1080.69 43.123 1077.28 37.2142C1073.86 31.3075 1071.78 25.1689 1071.03 18.7984C1070.28 12.428 1070.69 6.16181 1072.27 -1.38688e-07L1083.62 6.33504C1083.07 9.51747 1082.94 12.698 1083.22 15.8768C1083.51 19.0555 1084.25 22.2065 1085.46 25.3298L1100.68 8.89282L1107 12.4037L1107 19.6311L1091.66 36.0731C1093.76 38.6795 1096.12 40.9002 1098.73 42.735C1101.34 44.5698 1103.97 46.1395 1107 47.2544L1107 59.6461C1100.87 57.9316 1095.24 55.6717 1090.1 51.834Z" fill="#190B19"/>
<path d="M1098.55 75.7306L1088.67 81.5794C1083.98 77.2802 1074.99 74.216 1068.79 73.3183L1068.79 118.755L1058.46 118.755L1058.46 73.3183C1052.12 74.5527 1044.06 77.439 1039.1 81.5794L1028.99 75.7306C1038.15 66.4282 1049.86 61.545 1063.11 61.4429C1076.11 61.3426 1089.43 66.4334 1098.55 75.7306Z" fill="#190B19"/>
</g>
<g clip-path="url(#clip12_2420_16244)">
<path fill-rule="evenodd" clip-rule="evenodd" d="M16.8983 176.604C22.0361 180.442 26.3108 185.315 29.7223 191.224C33.1373 197.131 35.2203 203.27 35.9714 209.64C36.7224 216.011 36.3102 222.277 34.7349 228.438L23.378 222.103C23.928 218.921 24.0613 215.74 23.7779 212.562C23.4944 209.383 22.7495 206.232 21.5431 203.109L6.32433 219.546L2.17681e-05 216.035L2.17354e-05 208.807L15.3405 192.365C13.2388 189.759 10.8824 187.538 8.27126 185.704C5.66012 183.869 3.0311 182.299 2.16149e-05 181.184L2.38152e-07 168.792C6.12756 170.507 11.7604 172.767 16.8983 176.604Z" fill="#190B19"/>
<path fill-rule="evenodd" clip-rule="evenodd" d="M67.7791 176.604C62.6412 180.442 58.3666 185.315 54.9551 191.224C51.5401 197.131 49.457 203.27 48.706 209.64C47.955 216.011 48.3671 222.277 49.9425 228.438L61.2994 222.103C60.7494 218.921 60.6161 215.74 60.8995 212.562C61.1829 209.383 61.9278 206.232 63.1342 203.109L78.353 219.546L84.6773 216.035L84.6773 208.807L69.3369 192.365C71.4386 189.759 73.795 187.538 76.4061 185.704C79.0173 183.869 81.6463 182.299 84.6773 181.184L84.6774 168.792C78.5498 170.507 72.917 172.767 67.7791 176.604Z" fill="#190B19"/>
<path d="M76.2238 152.708L66.3476 146.859C61.6605 151.158 52.6701 154.222 46.4692 155.12L46.4692 109.684L36.1427 109.684L36.1427 155.12C29.7974 153.886 21.7389 150.999 16.7806 146.859L6.67023 152.708C15.8288 162.01 27.5402 166.893 40.7896 166.996C53.7853 167.096 67.1056 162.005 76.2238 152.708Z" fill="#190B19"/>
</g>
<g clip-path="url(#clip13_2420_16244)">
<path fill-rule="evenodd" clip-rule="evenodd" d="M109.837 176.604C114.975 180.442 119.249 185.315 122.661 191.224C126.076 197.131 128.159 203.27 128.91 209.64C129.661 216.011 129.249 222.277 127.673 228.438L116.316 222.103C116.866 218.921 117 215.74 116.716 212.562C116.433 209.383 115.688 206.232 114.482 203.109L99.2627 219.546L92.9384 216.035L92.9384 208.807L108.279 192.365C106.177 189.759 103.821 187.538 101.21 185.704C98.5985 183.869 95.9695 182.299 92.9384 181.184L92.9384 168.792C99.066 170.507 104.699 172.767 109.837 176.604Z" fill="#190B19"/>
<path fill-rule="evenodd" clip-rule="evenodd" d="M160.718 176.604C155.58 180.442 151.305 185.315 147.894 191.224C144.479 197.131 142.396 203.27 141.644 209.64C140.893 216.011 141.306 222.277 142.881 228.438L154.238 222.103C153.688 218.921 153.555 215.74 153.838 212.562C154.121 209.383 154.866 206.232 156.073 203.109L171.292 219.546L177.616 216.035L177.616 208.807L162.275 192.365C164.377 189.759 166.733 187.538 169.345 185.704C171.956 183.869 174.585 182.299 177.616 181.184L177.616 168.792C171.488 170.507 165.855 172.767 160.718 176.604Z" fill="#190B19"/>
<path d="M169.162 152.708L159.286 146.859C154.599 151.158 145.608 154.222 139.407 155.12L139.407 109.684L129.081 109.684L129.081 155.12C122.735 153.886 114.677 150.999 109.719 146.859L99.6083 152.708C108.767 162.01 120.478 166.893 133.728 166.996C146.723 167.096 160.044 162.005 169.162 152.708Z" fill="#190B19"/>
</g>
<g clip-path="url(#clip14_2420_16244)">
<path fill-rule="evenodd" clip-rule="evenodd" d="M202.775 176.604C207.913 180.442 212.188 185.315 215.599 191.224C219.014 197.131 221.097 203.27 221.848 209.64C222.599 216.011 222.187 222.277 220.612 228.438L209.255 222.103C209.805 218.921 209.938 215.74 209.655 212.562C209.371 209.383 208.626 206.232 207.42 203.109L192.201 219.546L185.877 216.035L185.877 208.807L201.217 192.365C199.116 189.759 196.759 187.538 194.148 185.704C191.537 183.869 188.908 182.299 185.877 181.184L185.877 168.792C192.004 170.507 197.637 172.767 202.775 176.604Z" fill="#190B19"/>
<path fill-rule="evenodd" clip-rule="evenodd" d="M253.655 176.604C248.518 180.442 244.243 185.315 240.831 191.224C237.416 197.131 235.333 203.27 234.582 209.64C233.831 216.011 234.243 222.277 235.819 228.438L247.176 222.103C246.626 218.921 246.492 215.74 246.776 212.562C247.059 209.383 247.804 206.232 249.011 203.109L264.229 219.546L270.554 216.035L270.554 208.807L255.213 192.365C257.315 189.759 259.671 187.538 262.282 185.704C264.894 183.869 267.523 182.299 270.554 181.184L270.554 168.792C264.426 170.507 258.793 172.767 253.655 176.604Z" fill="#190B19"/>
<path d="M262.101 152.708L252.224 146.859C247.537 151.158 238.547 154.222 232.346 155.12L232.346 109.684L222.02 109.684L222.02 155.12C215.674 153.886 207.616 150.999 202.657 146.859L192.547 152.708C201.706 162.01 213.417 166.893 226.666 166.996C239.662 167.096 252.982 162.005 262.101 152.708Z" fill="#190B19"/>
</g>
<g clip-path="url(#clip15_2420_16244)">
<path fill-rule="evenodd" clip-rule="evenodd" d="M295.713 176.604C300.851 180.442 305.126 185.315 308.538 191.224C311.953 197.131 314.036 203.27 314.787 209.64C315.538 216.011 315.125 222.277 313.55 228.438L302.193 222.103C302.743 218.921 302.877 215.74 302.593 212.562C302.31 209.383 301.565 206.232 300.358 203.109L285.14 219.546L278.815 216.035L278.815 208.807L294.156 192.365C292.054 189.759 289.698 187.538 287.087 185.704C284.475 183.869 281.846 182.299 278.815 181.184L278.815 168.792C284.943 170.507 290.576 172.767 295.713 176.604Z" fill="#190B19"/>
<path fill-rule="evenodd" clip-rule="evenodd" d="M346.595 176.604C341.457 180.442 337.182 185.315 333.771 191.224C330.356 197.131 328.272 203.27 327.521 209.64C326.77 216.011 327.183 222.277 328.758 228.438L340.115 222.103C339.565 218.921 339.432 215.74 339.715 212.562C339.998 209.383 340.743 206.232 341.95 203.109L357.168 219.546L363.493 216.035L363.493 208.807L348.152 192.365C350.254 189.759 352.61 187.538 355.222 185.704C357.833 183.869 360.462 182.299 363.493 181.184L363.493 168.792C357.365 170.507 351.732 172.767 346.595 176.604Z" fill="#190B19"/>
<path d="M355.039 152.708L345.163 146.859C340.476 151.158 331.486 154.222 325.285 155.12L325.285 109.684L314.958 109.684L314.958 155.12C308.613 153.886 300.554 150.999 295.596 146.859L285.486 152.708C294.644 162.01 306.356 166.893 319.605 166.996C332.601 167.096 345.921 162.005 355.039 152.708Z" fill="#190B19"/>
</g>
<g clip-path="url(#clip16_2420_16244)">
<path fill-rule="evenodd" clip-rule="evenodd" d="M388.652 176.604C393.79 180.442 398.064 185.315 401.476 191.224C404.891 197.131 406.974 203.27 407.725 209.64C408.476 216.011 408.064 222.277 406.489 228.438L395.132 222.103C395.682 218.921 395.815 215.74 395.532 212.562C395.248 209.383 394.503 206.232 393.297 203.109L378.078 219.546L371.754 216.035L371.754 208.807L387.094 192.365C384.992 189.759 382.636 187.538 380.025 185.704C377.414 183.869 374.785 182.299 371.754 181.184L371.754 168.792C377.881 170.507 383.514 172.767 388.652 176.604Z" fill="#190B19"/>
<path fill-rule="evenodd" clip-rule="evenodd" d="M439.533 176.604C434.395 180.442 430.12 185.315 426.709 191.224C423.294 197.131 421.211 203.27 420.46 209.64C419.709 216.011 420.121 222.277 421.696 228.438L433.053 222.103C432.503 218.921 432.37 215.74 432.653 212.562C432.937 209.383 433.682 206.232 434.888 203.109L450.107 219.546L456.431 216.035L456.431 208.807L441.091 192.365C443.192 189.759 445.549 187.538 448.16 185.704C450.771 183.869 453.4 182.299 456.431 181.184L456.431 168.792C450.304 170.507 444.671 172.767 439.533 176.604Z" fill="#190B19"/>
<path d="M447.977 152.708L438.101 146.859C433.414 151.158 424.423 154.222 418.223 155.12L418.223 109.684L407.896 109.684L407.896 155.12C401.551 153.886 393.492 150.999 388.534 146.859L378.424 152.708C387.582 162.01 399.294 166.893 412.543 166.996C425.539 167.096 438.859 162.005 447.977 152.708Z" fill="#190B19"/>
</g>
<g clip-path="url(#clip17_2420_16244)">
<path fill-rule="evenodd" clip-rule="evenodd" d="M481.59 176.604C486.728 180.442 491.003 185.315 494.414 191.224C497.829 197.131 499.912 203.27 500.663 209.64C501.414 216.011 501.002 222.277 499.427 228.438L488.07 222.103C488.62 218.921 488.753 215.74 488.47 212.562C488.186 209.383 487.442 206.232 486.235 203.109L471.016 219.546L464.692 216.035L464.692 208.807L480.033 192.365C477.931 189.759 475.574 187.538 472.963 185.704C470.352 183.869 467.723 182.299 464.692 181.184L464.692 168.792C470.82 170.507 476.452 172.767 481.59 176.604Z" fill="#190B19"/>
<path fill-rule="evenodd" clip-rule="evenodd" d="M532.471 176.604C527.333 180.442 523.059 185.315 519.647 191.224C516.232 197.131 514.149 203.27 513.398 209.64C512.647 216.011 513.059 222.277 514.635 228.438L525.992 222.103C525.442 218.921 525.308 215.74 525.592 212.562C525.875 209.383 526.62 206.232 527.826 203.109L543.045 219.546L549.37 216.035L549.37 208.807L534.029 192.365C536.131 189.759 538.487 187.538 541.098 185.704C543.709 183.869 546.339 182.299 549.37 181.184L549.37 168.792C543.242 170.507 537.609 172.767 532.471 176.604Z" fill="#190B19"/>
<path d="M540.916 152.708L531.039 146.859C526.352 151.158 517.362 154.222 511.161 155.12L511.161 109.684L500.834 109.684L500.834 155.12C494.489 153.886 486.431 150.999 481.472 146.859L471.362 152.708C480.521 162.01 492.232 166.893 505.481 166.996C518.477 167.096 531.797 162.005 540.916 152.708Z" fill="#190B19"/>
</g>
<g clip-path="url(#clip18_2420_16244)">
<path fill-rule="evenodd" clip-rule="evenodd" d="M574.529 176.604C579.667 180.442 583.941 185.315 587.353 191.224C590.768 197.131 592.851 203.27 593.602 209.64C594.353 216.011 593.941 222.277 592.366 228.438L581.009 222.103C581.559 218.921 581.692 215.74 581.409 212.562C581.125 209.383 580.38 206.232 579.174 203.109L563.955 219.546L557.631 216.035L557.631 208.807L572.971 192.365C570.869 189.759 568.513 187.538 565.902 185.704C563.291 183.869 560.662 182.299 557.631 181.184L557.631 168.792C563.758 170.507 569.391 172.767 574.529 176.604Z" fill="#190B19"/>
<path fill-rule="evenodd" clip-rule="evenodd" d="M625.409 176.604C620.272 180.442 615.997 185.315 612.585 191.224C609.17 197.131 607.087 203.27 606.336 209.64C605.585 216.011 605.997 222.277 607.573 228.438L618.93 222.103C618.38 218.921 618.246 215.74 618.53 212.562C618.813 209.383 619.558 206.232 620.765 203.109L635.983 219.546L642.308 216.035L642.308 208.807L626.967 192.365C629.069 189.759 631.425 187.538 634.036 185.704C636.648 183.869 639.277 182.299 642.308 181.184L642.308 168.792C636.18 170.507 630.547 172.767 625.409 176.604Z" fill="#190B19"/>
<path d="M633.855 152.708L623.978 146.859C619.291 151.158 610.301 154.222 604.1 155.12L604.1 109.684L593.774 109.684L593.774 155.12C587.428 153.886 579.37 150.999 574.411 146.859L564.301 152.708C573.46 162.01 585.171 166.893 598.42 166.996C611.416 167.096 624.736 162.005 633.855 152.708Z" fill="#190B19"/>
</g>
<g clip-path="url(#clip19_2420_16244)">
<path fill-rule="evenodd" clip-rule="evenodd" d="M667.468 176.604C672.605 180.442 676.88 185.315 680.292 191.224C683.707 197.131 685.79 203.27 686.541 209.64C687.292 216.011 686.88 222.277 685.304 228.438L673.947 222.103C674.497 218.921 674.631 215.74 674.347 212.562C674.064 209.383 673.319 206.232 672.112 203.109L656.894 219.546L650.569 216.035L650.569 208.807L665.91 192.365C663.808 189.759 661.452 187.538 658.841 185.704C656.229 183.869 653.6 182.299 650.569 181.184L650.569 168.792C656.697 170.507 662.33 172.767 667.468 176.604Z" fill="#190B19"/>
<path fill-rule="evenodd" clip-rule="evenodd" d="M718.348 176.604C713.21 180.442 708.936 185.315 705.524 191.224C702.109 197.131 700.026 203.27 699.275 209.64C698.524 216.011 698.936 222.277 700.512 228.438L711.868 222.103C711.318 218.921 711.185 215.74 711.469 212.562C711.752 209.383 712.497 206.232 713.703 203.109L728.922 219.546L735.246 216.035L735.246 208.807L719.906 192.365C722.008 189.759 724.364 187.538 726.975 185.704C729.586 183.869 732.215 182.299 735.246 181.184L735.246 168.792C729.119 170.507 723.486 172.767 718.348 176.604Z" fill="#190B19"/>
<path d="M726.792 152.708L716.916 146.859C712.229 151.158 703.239 154.222 697.038 155.12L697.038 109.684L686.711 109.684L686.711 155.12C680.366 153.886 672.308 150.999 667.349 146.859L657.239 152.708C666.397 162.01 678.109 166.893 691.358 166.996C704.354 167.096 717.674 162.005 726.792 152.708Z" fill="#190B19"/>
</g>
<g clip-path="url(#clip20_2420_16244)">
<path fill-rule="evenodd" clip-rule="evenodd" d="M760.406 176.604C765.543 180.442 769.818 185.315 773.23 191.224C776.645 197.131 778.728 203.27 779.479 209.64C780.23 216.011 779.818 222.277 778.242 228.438L766.885 222.103C767.435 218.921 767.569 215.74 767.285 212.562C767.002 209.383 766.257 206.232 765.05 203.109L749.832 219.546L743.507 216.035L743.507 208.807L758.848 192.365C756.746 189.759 754.39 187.538 751.779 185.704C749.167 183.869 746.538 182.299 743.507 181.184L743.507 168.792C749.635 170.507 755.268 172.767 760.406 176.604Z" fill="#190B19"/>
<path fill-rule="evenodd" clip-rule="evenodd" d="M811.286 176.604C806.149 180.442 801.874 185.315 798.462 191.224C795.047 197.131 792.964 203.27 792.213 209.64C791.462 216.011 791.874 222.277 793.45 228.438L804.807 222.103C804.257 218.921 804.123 215.74 804.407 212.562C804.69 209.383 805.435 206.232 806.642 203.109L821.86 219.546L828.185 216.035L828.185 208.807L812.844 192.365C814.946 189.759 817.302 187.538 819.913 185.704C822.525 183.869 825.154 182.299 828.185 181.184L828.185 168.792C822.057 170.507 816.424 172.767 811.286 176.604Z" fill="#190B19"/>
<path d="M819.731 152.708L809.855 146.859C805.168 151.158 796.177 154.222 789.977 155.12L789.977 109.684L779.65 109.684L779.65 155.12C773.305 153.886 765.246 150.999 760.288 146.859L750.178 152.708C759.336 162.01 771.048 166.893 784.297 166.996C797.293 167.096 810.613 162.005 819.731 152.708Z" fill="#190B19"/>
</g>
<g clip-path="url(#clip21_2420_16244)">
<path fill-rule="evenodd" clip-rule="evenodd" d="M853.344 176.604C858.482 180.442 862.757 185.315 866.168 191.224C869.583 197.131 871.666 203.27 872.417 209.64C873.168 216.011 872.756 222.277 871.181 228.438L859.824 222.103C860.374 218.921 860.507 215.74 860.224 212.562C859.94 209.383 859.196 206.232 857.989 203.109L842.77 219.546L836.446 216.035L836.446 208.807L851.787 192.365C849.685 189.759 847.328 187.538 844.717 185.704C842.106 183.869 839.477 182.299 836.446 181.184L836.446 168.792C842.574 170.507 848.206 172.767 853.344 176.604Z" fill="#190B19"/>
<path fill-rule="evenodd" clip-rule="evenodd" d="M904.225 176.604C899.087 180.442 894.813 185.315 891.401 191.224C887.986 197.131 885.903 203.27 885.152 209.64C884.401 216.011 884.813 222.277 886.389 228.438L897.746 222.103C897.196 218.921 897.062 215.74 897.346 212.562C897.629 209.383 898.374 206.232 899.58 203.109L914.799 219.546L921.123 216.035L921.123 208.807L905.783 192.365C907.885 189.759 910.241 187.538 912.852 185.704C915.463 183.869 918.092 182.299 921.123 181.184L921.123 168.792C914.996 170.507 909.363 172.767 904.225 176.604Z" fill="#190B19"/>
<path d="M912.67 152.708L902.794 146.859C898.106 151.158 889.116 154.222 882.915 155.12L882.915 109.684L872.589 109.684L872.589 155.12C866.243 153.886 858.185 150.999 853.227 146.859L843.116 152.708C852.275 162.01 863.986 166.893 877.236 166.996C890.231 167.096 903.552 162.005 912.67 152.708Z" fill="#190B19"/>
</g>
<g clip-path="url(#clip22_2420_16244)">
<path fill-rule="evenodd" clip-rule="evenodd" d="M946.283 176.604C951.42 180.442 955.695 185.315 959.107 191.224C962.522 197.131 964.605 203.27 965.356 209.64C966.107 216.011 965.695 222.277 964.119 228.438L952.762 222.103C953.312 218.921 953.446 215.74 953.162 212.562C952.879 209.383 952.134 206.232 950.927 203.109L935.709 219.546L929.384 216.035L929.384 208.807L944.725 192.365C942.623 189.759 940.267 187.538 937.656 185.704C935.044 183.869 932.415 182.299 929.384 181.184L929.384 168.792C935.512 170.507 941.145 172.767 946.283 176.604Z" fill="#190B19"/>
<path fill-rule="evenodd" clip-rule="evenodd" d="M997.163 176.604C992.025 180.442 987.751 185.315 984.339 191.224C980.924 197.131 978.841 203.27 978.09 209.64C977.339 216.011 977.751 222.277 979.327 228.438L990.684 222.103C990.134 218.921 990 215.74 990.284 212.562C990.567 209.383 991.312 206.232 992.518 203.109L1007.74 219.546L1014.06 216.035L1014.06 208.807L998.721 192.365C1000.82 189.759 1003.18 187.538 1005.79 185.704C1008.4 183.869 1011.03 182.299 1014.06 181.184L1014.06 168.792C1007.93 170.507 1002.3 172.767 997.163 176.604Z" fill="#190B19"/>
<path d="M1005.61 152.708L995.732 146.859C991.045 151.158 982.054 154.222 975.853 155.12L975.853 109.684L965.527 109.684L965.527 155.12C959.182 153.886 951.123 150.999 946.165 146.859L936.054 152.708C945.213 162.01 956.924 166.893 970.174 166.996C983.17 167.096 996.49 162.005 1005.61 152.708Z" fill="#190B19"/>
</g>
<g clip-path="url(#clip23_2420_16244)">
<path fill-rule="evenodd" clip-rule="evenodd" d="M1039.22 176.604C1044.36 180.442 1048.63 185.315 1052.05 191.224C1055.46 197.131 1057.54 203.27 1058.29 209.64C1059.05 216.011 1058.63 222.277 1057.06 228.438L1045.7 222.103C1046.25 218.921 1046.38 215.74 1046.1 212.562C1045.82 209.383 1045.07 206.232 1043.87 203.109L1028.65 219.546L1022.32 216.035L1022.32 208.807L1037.66 192.365C1035.56 189.759 1033.21 187.538 1030.59 185.704C1027.98 183.869 1025.35 182.299 1022.32 181.184L1022.32 168.792C1028.45 170.507 1034.08 172.767 1039.22 176.604Z" fill="#190B19"/>
<path fill-rule="evenodd" clip-rule="evenodd" d="M1090.1 176.604C1084.96 180.442 1080.69 185.315 1077.28 191.224C1073.86 197.131 1071.78 203.27 1071.03 209.64C1070.28 216.011 1070.69 222.277 1072.27 228.438L1083.62 222.103C1083.07 218.921 1082.94 215.74 1083.22 212.562C1083.51 209.383 1084.25 206.232 1085.46 203.109L1100.68 219.546L1107 216.035L1107 208.807L1091.66 192.365C1093.76 189.759 1096.12 187.538 1098.73 185.704C1101.34 183.869 1103.97 182.299 1107 181.184L1107 168.792C1100.87 170.507 1095.24 172.767 1090.1 176.604Z" fill="#190B19"/>
<path d="M1098.55 152.708L1088.67 146.859C1083.98 151.158 1074.99 154.222 1068.79 155.12L1068.79 109.684L1058.46 109.684L1058.46 155.12C1052.12 153.886 1044.06 150.999 1039.1 146.859L1028.99 152.708C1038.15 162.01 1049.86 166.893 1063.11 166.996C1076.11 167.096 1089.43 162.005 1098.55 152.708Z" fill="#190B19"/>
</g>
<defs>
<clipPath id="clip0_2420_16244">
<rect width="84.6773" height="109.977" fill="white"/>
</clipPath>
<clipPath id="clip1_2420_16244">
<rect width="84.6773" height="109.977" fill="white" transform="translate(92.9385)"/>
</clipPath>
<clipPath id="clip2_2420_16244">
<rect width="84.6773" height="109.977" fill="white" transform="translate(185.877)"/>
</clipPath>
<clipPath id="clip3_2420_16244">
<rect width="84.6773" height="109.977" fill="white" transform="translate(278.815)"/>
</clipPath>
<clipPath id="clip4_2420_16244">
<rect width="84.6773" height="109.977" fill="white" transform="translate(371.754)"/>
</clipPath>
<clipPath id="clip5_2420_16244">
<rect width="84.6773" height="109.977" fill="white" transform="translate(464.692)"/>
</clipPath>
<clipPath id="clip6_2420_16244">
<rect width="84.6773" height="109.977" fill="white" transform="translate(557.631)"/>
</clipPath>
<clipPath id="clip7_2420_16244">
<rect width="84.6773" height="109.977" fill="white" transform="translate(650.569)"/>
</clipPath>
<clipPath id="clip8_2420_16244">
<rect width="84.6773" height="109.977" fill="white" transform="translate(743.507)"/>
</clipPath>
<clipPath id="clip9_2420_16244">
<rect width="84.6773" height="109.977" fill="white" transform="translate(836.446)"/>
</clipPath>
<clipPath id="clip10_2420_16244">
<rect width="84.6773" height="109.977" fill="white" transform="translate(929.384)"/>
</clipPath>
<clipPath id="clip11_2420_16244">
<rect width="84.6773" height="109.977" fill="white" transform="translate(1022.32)"/>
</clipPath>
<clipPath id="clip12_2420_16244">
<rect width="84.6773" height="109.977" fill="white" transform="matrix(1 0 0 -1 0 228.438)"/>
</clipPath>
<clipPath id="clip13_2420_16244">
<rect width="84.6773" height="109.977" fill="white" transform="matrix(1 0 0 -1 92.9385 228.438)"/>
</clipPath>
<clipPath id="clip14_2420_16244">
<rect width="84.6773" height="109.977" fill="white" transform="matrix(1 0 0 -1 185.877 228.438)"/>
</clipPath>
<clipPath id="clip15_2420_16244">
<rect width="84.6773" height="109.977" fill="white" transform="matrix(1 0 0 -1 278.815 228.438)"/>
</clipPath>
<clipPath id="clip16_2420_16244">
<rect width="84.6773" height="109.977" fill="white" transform="matrix(1 0 0 -1 371.754 228.438)"/>
</clipPath>
<clipPath id="clip17_2420_16244">
<rect width="84.6773" height="109.977" fill="white" transform="matrix(1 0 0 -1 464.692 228.438)"/>
</clipPath>
<clipPath id="clip18_2420_16244">
<rect width="84.6773" height="109.977" fill="white" transform="matrix(1 0 0 -1 557.631 228.438)"/>
</clipPath>
<clipPath id="clip19_2420_16244">
<rect width="84.6773" height="109.977" fill="white" transform="matrix(1 0 0 -1 650.569 228.438)"/>
</clipPath>
<clipPath id="clip20_2420_16244">
<rect width="84.6773" height="109.977" fill="white" transform="matrix(1 0 0 -1 743.507 228.438)"/>
</clipPath>
<clipPath id="clip21_2420_16244">
<rect width="84.6773" height="109.977" fill="white" transform="matrix(1 0 0 -1 836.446 228.438)"/>
</clipPath>
<clipPath id="clip22_2420_16244">
<rect width="84.6773" height="109.977" fill="white" transform="matrix(1 0 0 -1 929.384 228.438)"/>
</clipPath>
<clipPath id="clip23_2420_16244">
<rect width="84.6773" height="109.977" fill="white" transform="matrix(1 0 0 -1 1022.32 228.438)"/>
</clipPath>
</defs>
</svg>
