<svg width="333" height="133" viewBox="0 0 333 133" fill="none" xmlns="http://www.w3.org/2000/svg">
<path d="M207.006 -43.9331L63.3693 8.67387C28.3714 21.4918 10.391 60.2542 23.2089 95.2521L75.8159 238.889C88.6338 273.887 127.396 291.867 162.394 279.05L306.031 226.443C341.029 213.625 359.009 174.862 346.192 139.864L293.585 -3.77271C280.767 -38.7706 242.004 -56.751 207.006 -43.9331Z" fill="url(#paint0_radial_3736_13463)"/>
<path d="M207.006 -43.9331L63.3693 8.67387C28.3714 21.4918 10.391 60.2542 23.2089 95.2521L75.8159 238.889C88.6338 273.887 127.396 291.867 162.394 279.05L306.031 226.443C341.029 213.625 359.009 174.862 346.192 139.864L293.585 -3.77271C280.767 -38.7706 242.004 -56.751 207.006 -43.9331Z" fill="url(#paint1_radial_3736_13463)"/>
<path d="M146.023 11.9392C117.34 22.4444 113.786 23.8887 102.709 28.5267C91.6536 33.1602 84.6303 37.7508 78.8718 42.822C72.9124 48.0639 68.3418 53.8308 64.6224 61.853C60.8974 69.876 59.4465 77.09 59.284 85.0253C59.1248 92.7017 60.1553 101.033 63.7655 112.456C67.3878 123.907 68.5749 127.557 79.0804 156.241C89.5859 184.925 91.0271 188.467 95.664 199.545C100.3 210.599 104.89 217.623 109.959 223.382C115.203 229.341 120.97 233.911 128.992 237.63C137.013 241.356 144.23 242.816 152.16 242.97C159.837 243.121 168.165 242.089 179.596 238.487C191.049 234.874 194.693 233.682 223.375 223.177C252.061 212.671 255.604 211.231 266.681 206.593C277.736 201.959 284.768 197.365 290.532 192.292C296.488 187.052 301.047 181.279 304.763 173.255C308.488 165.233 309.938 158.019 310.102 150.083C310.237 142.414 309.208 134.084 305.62 122.651C302 111.201 300.817 107.562 290.311 78.8777C279.806 50.1936 278.356 46.6425 273.723 35.5618C269.077 24.5114 264.484 17.4903 259.429 11.7261C254.177 5.77011 248.411 1.19918 240.386 -2.52013C232.36 -6.24299 225.163 -7.70002 217.223 -7.84786C209.533 -7.99483 201.202 -6.96297 189.77 -3.35928C178.316 0.254645 174.683 1.44259 145.991 11.9512L146.023 11.9392ZM143.519 34.4423C146.33 33.408 149.47 32.263 152.994 30.9722C181.195 20.6438 184.573 19.5213 195.895 15.9486C206.365 12.6482 212.584 12.3217 216.837 12.404C222.467 12.5125 226.819 13.5143 231.867 15.8588C236.918 18.2015 240.495 20.8838 244.219 25.11C247.026 28.2981 250.796 33.2564 255.036 43.3822C259.62 54.3309 260.955 57.6344 271.278 85.8211C281.601 114.008 282.716 117.393 286.288 128.711C289.588 139.181 289.915 145.4 289.831 149.649C289.723 155.279 288.715 159.628 286.372 164.676C284.029 169.727 281.357 173.3 277.127 177.021C273.94 179.835 268.976 183.6 258.851 187.842C247.902 192.426 244.598 193.76 216.398 204.089C188.197 214.417 184.814 215.532 173.495 219.103C163.024 222.4 156.804 222.726 152.549 222.645C146.919 222.535 142.56 221.537 137.51 219.194C132.46 216.852 128.886 214.178 125.161 209.949C122.353 206.76 118.583 201.802 114.343 191.676C109.759 180.727 108.433 177.421 98.1032 149.216C87.7737 121.013 86.6566 117.649 83.0847 106.329C79.7843 95.8593 79.4578 89.64 79.5401 85.3875C79.6497 79.7572 80.6523 75.3976 82.996 70.3468C85.3387 65.2964 88.0206 61.7185 92.2472 57.9952C95.4383 55.1795 100.401 51.4155 110.525 47.1708C120.107 43.1621 123.834 41.6472 143.51 34.4159L143.519 34.4423ZM215.794 27.8604C208.797 30.423 205.198 38.1737 207.761 45.1718C210.324 52.1688 218.079 55.7665 225.077 53.2039C232.074 50.6412 235.671 42.8852 233.109 35.8882C230.546 28.8912 222.79 25.2935 215.793 27.8561L215.794 27.8604ZM164.84 63.3169C134.888 74.287 119.497 107.467 130.468 137.42C141.438 167.374 174.614 182.753 204.566 171.783C234.52 160.813 249.906 127.648 238.936 97.694C227.966 67.7414 194.792 52.3472 164.838 63.3177L164.84 63.3169ZM171.811 82.3499C191.254 75.229 212.79 85.2168 219.911 104.662C227.032 124.104 217.042 145.641 197.6 152.762C178.156 159.883 156.621 149.892 149.501 130.45C142.379 111.005 152.367 89.4712 171.811 82.3499Z" fill="white"/>
<defs>
<radialGradient id="paint0_radial_3736_13463" cx="0" cy="0" r="1" gradientUnits="userSpaceOnUse" gradientTransform="translate(178.47 296.779) rotate(-110.115) scale(285.369 265.416)">
<stop stop-color="#FFDD55"/>
<stop offset="0.1" stop-color="#FFDD55"/>
<stop offset="0.5" stop-color="#FF543E"/>
<stop offset="1" stop-color="#C837AB"/>
</radialGradient>
<radialGradient id="paint1_radial_3736_13463" cx="0" cy="0" r="1" gradientUnits="userSpaceOnUse" gradientTransform="translate(-38.1557 67.9464) rotate(58.5658) scale(127.562 525.813)">
<stop stop-color="#3771C8"/>
<stop offset="0.128" stop-color="#3771C8"/>
<stop offset="1" stop-color="#6600FF" stop-opacity="0"/>
</radialGradient>
</defs>
</svg>
