<svg width="133" height="52" viewBox="0 0 133 52" fill="none" xmlns="http://www.w3.org/2000/svg">
<g clip-path="url(#clip0_3267_20392)">
<path d="M29.5875 29.488L25.754 31.7582C23.9346 30.0895 20.445 28.9001 18.038 28.5516L18.038 51.8038L14.0298 51.8038L14.0298 28.5516C11.5668 29.0308 8.43882 30.1511 6.51425 31.7582L2.58984 29.488C6.1448 25.8772 10.6906 23.9818 15.8335 23.9421C20.8779 23.9032 26.0482 25.8792 29.5875 29.488Z" fill="black"/>
<path fill-rule="evenodd" clip-rule="evenodd" d="M6.55916 20.2126C8.55346 18.7229 10.2127 16.8314 11.5369 14.5378C12.8624 12.2451 13.671 9.86235 13.9625 7.38961C14.254 4.91688 14.094 2.48464 13.4825 0.0928955L9.0743 2.55188C9.28779 3.78716 9.33953 5.02171 9.22952 6.25555C9.1195 7.48939 8.83036 8.71248 8.36209 9.92481L2.45483 3.5447L8.4494e-06 4.90745L8.43671e-06 7.71283L5.9545 14.0949C5.13872 15.1066 4.22407 15.9685 3.21054 16.6807C2.19701 17.3929 1.17654 18.0022 8.38993e-06 18.435L9.24402e-08 23.2449C2.37845 22.5794 4.56486 21.7022 6.55916 20.2126Z" fill="#FF6DFB"/>
<path fill-rule="evenodd" clip-rule="evenodd" d="M26.308 20.2126C24.3137 18.7229 22.6545 16.8314 21.3303 14.5378C20.0048 12.2451 19.1962 9.86235 18.9047 7.38961C18.6132 4.91688 18.7732 2.48464 19.3846 0.0928955L23.7929 2.55188C23.5794 3.78716 23.5277 5.02171 23.6377 6.25555C23.7477 7.48939 24.0368 8.71248 24.5051 9.92481L30.4124 3.5447L32.8672 4.90745L32.8672 7.71283L26.9127 14.0949C27.7285 15.1066 28.6431 15.9685 29.6567 16.6807C30.6702 17.3929 31.6906 18.0022 32.8672 18.435L32.8672 23.2449C30.4887 22.5794 28.3023 21.7022 26.308 20.2126Z" fill="#FF6DFB"/>
<path d="M32.4608 35.6759C34.1155 33.8674 36.3857 32.8285 39.1563 32.8285V36.5994C36.2703 36.7149 34.077 38.4601 32.4608 40.5765V51.8998H28.459L28.459 32.1591H32.4608V35.6759Z" fill="black"/>
<path d="M48.2053 32.891C54.2081 32.891 57.9406 37.4701 57.171 43.5883H42.2875C42.6723 46.3203 45.05 48.4928 48.4362 48.4928C50.2063 48.4928 52.2785 47.4427 53.0097 46.2883H56.9177C55.7633 49.559 52.3611 51.8998 48.4362 51.8998C42.7413 51.8998 38.8933 47.7825 38.8933 42.3954C38.8933 37.0468 42.7028 32.891 48.2053 32.891ZM48.2438 36.2772C45.2424 36.2772 43.0892 38.0713 42.2875 40.8178H54.2121C53.7111 37.9711 51.0528 36.2772 48.2438 36.2772Z" fill="black"/>
<path d="M69.171 32.7539C73.8655 32.7539 77.0593 35.9862 77.0593 41.2194V51.9023H73.0574V41.4503C73.0574 38.141 71.2874 36.371 68.3629 36.371C66.6314 36.371 64.7459 37.333 63.3221 39.103V51.9023H59.3203V32.1615H63.3221V34.8318C64.8998 33.485 66.8622 32.7539 69.171 32.7539Z" fill="black"/>
<path d="M93.9741 24.0424H97.9375V51.8999H93.9741V49.9759C92.4349 51.2072 90.4725 51.8999 88.1637 51.8999C83.0844 51.8999 79.0056 47.6671 79.0056 42.357C79.0056 37.1238 83.0844 32.891 88.1637 32.891C90.4725 32.891 92.4349 33.5836 93.9741 34.7765V24.0424ZM88.4829 48.593C92.0962 48.4541 94.7959 45.9405 94.7959 42.357C94.7959 38.8399 92.0587 36.1674 88.4829 36.1674C85.1736 36.1674 82.3703 39.1632 82.3703 42.357C82.3703 45.5892 85.1736 48.593 88.4829 48.593Z" fill="black"/>
<path d="M102.539 28.9677C101.116 28.9677 99.9997 27.9288 99.9997 26.505C99.9997 25.0813 101.116 24.0424 102.539 24.0424C103.925 24.0424 105.079 25.0813 105.079 26.505C105.079 27.9288 103.925 28.9677 102.539 28.9677ZM100.611 32.1591H104.575V51.8999H100.611V32.1591Z" fill="black"/>
<path d="M120.673 47.5228L121.25 51.1784C119.673 51.7556 118.365 51.9095 117.133 51.9095C112.516 51.9095 110.053 49.139 110.053 44.4829V35.5068H104.575V32.1591H110.053V24.0424H114.055V32.1591H119.338V35.5068H114.055V44.4829C114.055 47.0996 115.363 48.2155 117.595 48.2155C118.672 48.2155 119.75 47.9076 120.673 47.5228Z" fill="black"/>
<path d="M122.99 14.7231C124.463 14.9 125.728 14.9885 126.784 14.9885C128.985 14.9885 130.815 14.9221 132.273 14.7895C132.198 14.9664 132.087 15.2096 131.938 15.5191C131.789 15.8286 131.417 16.4182 130.822 17.2879C130.227 18.1428 129.558 18.9461 128.814 19.6978C129.35 19.6978 129.848 19.8526 130.309 20.1621C130.517 20.2948 130.703 20.5085 130.867 20.8033C131.031 21.0834 131.112 21.4592 131.112 21.9309C131.112 22.3878 131.001 22.8669 130.778 23.368C130.57 23.8544 130.22 24.3482 129.729 24.8494C128.718 25.9106 126.903 26.6771 124.285 27.1488C123.734 26.7213 123.206 26.1391 122.7 25.4021C122.195 24.6799 121.83 24.0608 121.607 23.5449L121.25 22.749C122.663 23.1027 123.89 23.2796 124.932 23.2796C126.166 23.2796 126.992 23.088 127.408 22.7047C127.602 22.5279 127.699 22.3362 127.699 22.1299C127.699 21.7614 127.408 21.5108 126.828 21.3782C126.456 21.3045 126.099 21.2676 125.757 21.2676L124.731 21.3339C124.493 21.3339 124.329 21.2971 124.24 21.2234L127.297 18.3712C126.345 18.3712 125.423 18.4523 124.53 18.6144C123.638 18.7766 122.983 18.9387 122.566 19.1009L121.942 19.3441C122.641 17.649 122.99 16.1087 122.99 14.7231Z" fill="black"/>
</g>
<defs>
<clipPath id="clip0_3267_20392">
<rect width="132.273" height="51.9071" fill="white" transform="translate(0 0.0928955)"/>
</clipPath>
</defs>
</svg>
