<svg width="345" height="177" viewBox="0 0 345 177" fill="none" xmlns="http://www.w3.org/2000/svg">
<g clip-path="url(#clip0_4569_39718)">
<path d="M285.516 87.1336C287.805 79.6474 287.631 71.5662 284.894 64.0939C280.552 52.2385 269.815 43.4441 256.856 41.0933C253.519 40.4883 250.082 40.7857 246.9 41.9547L183.583 65.1442L173.282 32.1137C170.78 24.1363 165.281 17.7058 157.815 14.0018C154.147 12.1718 150.142 11.1136 146.049 10.8925C141.956 10.6713 137.861 11.292 134.017 12.7161C120.287 17.7447 111.525 31.4344 112.727 45.9973L120.12 136.42L120.041 136.449L161.431 249.458L286.136 203.785C288.565 202.895 290.767 201.549 292.611 199.796C303.216 189.833 306.825 174.586 301.835 160.962C300.617 157.635 298.942 154.535 296.832 151.715C299.121 144.228 298.946 136.147 296.209 128.675C294.991 125.348 293.316 122.248 291.205 119.428C293.494 111.941 293.319 103.86 290.583 96.3879C289.311 93.0804 287.627 89.954 285.516 87.1336ZM80.6256 160.468L115.826 256.578C117.537 261.251 122.696 263.644 127.37 261.933L144.532 255.647L103.143 142.638L85.9803 148.924C81.3068 150.636 78.9139 155.794 80.6256 160.468Z" fill="#1877F2"/>
</g>
<defs>
<clipPath id="clip0_4569_39718">
<rect width="287.939" height="287.939" fill="white" transform="translate(0 31.8828) rotate(-20.1152)"/>
</clipPath>
</defs>
</svg>
