<svg width="335" height="177" viewBox="0 0 335 177" fill="none" xmlns="http://www.w3.org/2000/svg">
<path d="M163.895 74.3868L73.4315 214.746C76.1516 217.823 79.889 220.21 84.3581 221.726C88.8272 223.241 93.9097 223.845 99.2169 223.491C104.524 223.136 109.916 221.833 114.98 219.681C120.043 217.529 124.645 214.585 128.433 211.073L248.004 101.695L163.895 74.3868Z" fill="#EA4335"/>
<path d="M284.498 11.986L214.422 9.12793L161.795 77.5914L248.514 101.35L299.804 54.348C304.414 50.367 307.783 45.6863 309.545 40.8131C311.307 35.94 311.395 31.0603 309.799 26.703C308.203 22.3458 304.984 18.6771 300.492 16.0946C295.999 13.5121 290.404 12.1144 284.313 12.0529L284.498 11.986Z" fill="#FBBC04"/>
<path d="M7.72679 35.3356C7.70923 37.6291 8.09492 39.8477 8.87346 41.9317L70.0487 208.964C70.8214 211.049 71.9588 212.99 73.4337 214.741L169.072 75.2322L7.72679 35.3356Z" fill="#4285F4"/>
<path d="M166.609 78.8878L214.429 9.13337L52.5867 2.51644C46.4797 2.21901 40.0313 3.23872 33.8983 5.47173C18.6813 11.0208 7.97706 23.2001 7.70817 35.274L166.609 78.8878Z" fill="#34A853"/>
</svg>
