<svg width="333" height="163" viewBox="0 0 333 163" fill="none" xmlns="http://www.w3.org/2000/svg">
<path d="M279.825 -22.7748C275.289 -30.3579 269.543 -36.6812 263.159 -41.1149C256.775 -45.5487 249.975 -47.9382 243.437 -48.0456C219.479 -48.5009 135.052 -17.5795 135.052 -17.5795C135.052 -17.5795 50.7104 13.5898 32.7135 29.4111C27.7914 33.7159 24.1435 39.9321 22.1331 47.4407C20.1227 54.9493 19.82 63.4883 21.255 72.2074C34.3286 127.552 61.4569 209.245 89.0797 256.855C93.6155 264.438 99.3616 270.762 105.746 275.195C112.13 279.629 118.93 282.019 125.468 282.126C149.426 282.581 233.855 251.659 233.855 251.659C233.855 251.659 318.284 220.737 336.279 204.916C341.202 200.612 344.85 194.396 346.861 186.888C348.871 179.379 349.174 170.84 347.74 162.121C334.986 106.574 307.477 25.0774 279.825 -22.7748Z" fill="#FF0000"/>
<path d="M178.628 184.62L227.532 101.261L136.357 69.2056L178.628 184.62Z" fill="white"/>
</svg>
