<svg width="345" height="177" viewBox="0 0 345 177" fill="none" xmlns="http://www.w3.org/2000/svg">
<path d="M59.2123 10.1964L211.163 -45.4556C243.866 -57.4329 280.085 -40.6325 292.062 -7.92974L347.714 144.021C359.691 176.724 342.891 212.943 310.188 224.92L158.237 280.572C125.534 292.549 89.3157 275.749 77.3384 243.046L21.6864 91.0951C9.70907 58.3923 26.5095 22.1737 59.2123 10.1964Z" fill="url(#paint0_linear_5526_43467)"/>
<path d="M158.52 196.39L158.549 196.389L155.168 215.786C153.934 222.866 147.194 227.606 140.114 226.372C133.034 225.138 128.294 218.399 129.527 211.318L132.018 197.029L132.257 195.657C132.809 193.552 134.629 189.601 140.59 188.036C140.59 188.036 154.687 184.542 158.249 191.229C158.249 191.229 159.231 193.499 158.52 196.39ZM274.657 107.475L245.83 118.032C243.818 118.62 242.705 118.232 242.218 117.948L242.183 117.919L191.75 75.7727L191.72 75.8138L188.898 73.8384C184.166 70.3107 183.694 83.9373 183.694 83.9373C182.785 99.2624 194.856 111.885 198.808 115.589L268.859 174.129C274.372 178.737 282.579 178.004 287.189 172.487C291.797 166.972 291.063 158.765 285.547 154.157L268.032 139.519C267.659 139.145 266.85 138.056 269.046 137.246L283.607 131.913C290.356 129.441 293.823 121.967 291.352 115.218C288.88 108.469 281.406 105.003 274.657 107.475ZM224.749 144.592C224.749 144.592 229.155 151.855 223.201 154.036L116.636 193.065C109.888 195.537 102.413 192.069 99.9412 185.321C97.4694 178.572 100.937 171.097 107.685 168.625L135.082 158.591C139.412 156.716 139.524 153.778 139.524 153.778L139.554 153.782L152.629 78.7428L152.618 78.7446C152.832 77.3093 151.874 76.377 151.715 76.2329L132.412 60.102C126.897 55.4942 126.162 47.2864 130.771 41.7724C135.38 36.2573 143.587 35.5216 149.102 40.1305L158.054 47.6119L160.053 36.1388C161.287 29.0593 168.027 24.3186 175.108 25.5535C182.188 26.7872 186.927 33.5261 185.694 40.6068L167.498 145.026C167.472 145.63 167.708 146.478 169.38 146.03L199.125 135.136L199.238 135.424C199.238 135.424 216.528 129.394 224.749 144.592Z" fill="white"/>
<defs>
<linearGradient id="paint0_linear_5526_43467" x1="13518.8" y1="-4919.36" x2="23421.3" y2="22118.2" gradientUnits="userSpaceOnUse">
<stop stop-color="#17C9FB"/>
<stop offset="1" stop-color="#1A74E8"/>
</linearGradient>
</defs>
</svg>
