<svg width="345" height="177" viewBox="0 0 345 177" fill="none" xmlns="http://www.w3.org/2000/svg">
<path d="M135.188 -17.6296C60.5261 9.71518 22.168 92.41 49.5124 167.071C76.8587 241.737 159.552 280.09 234.213 252.746C308.88 225.399 347.234 142.712 319.888 68.0458C292.546 -6.60954 209.857 -44.9689 135.188 -17.6214L135.188 -17.6296ZM268.595 154.646C267.627 159.504 262.89 162.667 258.026 161.683C219.185 153.921 177.62 164.163 134.501 192.149C132.503 193.443 130.074 193.891 127.746 193.394C125.419 192.897 123.384 191.497 122.089 189.5C121.446 188.512 121.004 187.407 120.789 186.248C120.574 185.089 120.59 183.9 120.835 182.747C121.081 181.594 121.551 180.501 122.219 179.53C122.888 178.559 123.741 177.73 124.73 177.09C171.919 146.463 217.946 135.35 261.557 144.077C266.421 145.06 269.578 149.782 268.595 154.646ZM271.66 111.775C270.424 117.852 264.508 121.795 258.435 120.558C213.917 111.532 156.155 125.35 117.953 154.138C112.996 157.863 105.958 156.878 102.228 151.933C98.5073 146.974 99.4981 139.946 104.443 136.214C148.082 103.335 211.76 88.1974 262.882 98.557C268.956 99.7943 272.898 105.709 271.66 111.775ZM259.042 72.924C205.992 63.0017 133.235 86.9489 96.2615 114.812C90.3232 119.284 81.8773 118.1 77.4071 112.161C72.9346 106.219 74.1165 97.78 80.0581 93.3005C122.501 61.3146 202.912 35.042 263.98 46.4495C271.308 47.8095 276.119 54.8491 274.749 62.1558C273.399 69.4658 266.343 74.2961 259.048 72.9217L259.042 72.924Z" fill="#1ED760"/>
</svg>
