<svg width="333" height="163" viewBox="0 0 333 163" fill="none" xmlns="http://www.w3.org/2000/svg">
<path d="M236.026 55.8523C260.308 61.0697 287.155 59.5398 313.254 49.981L297.024 5.66736C292.085 7.47745 286.992 8.82676 281.829 9.69326L294.604 44.5745C268.507 54.1325 241.664 55.6622 217.377 50.4473L250.498 140.88C267.067 186.119 238.934 238.012 187.667 256.788C168.538 263.794 148.889 265.204 130.914 261.861C153.342 270.896 180.306 271.721 206.313 262.195C257.584 243.417 285.718 191.524 269.148 146.283L236.028 55.8515L236.026 55.8523ZM237.785 4.50397C224.145 -1.52138 212.925 -11.6555 206.408 -25.0152L204.321 -30.7146L190.392 -25.6132C200.361 -9.25111 217.843 1.44426 237.785 4.50397ZM150.626 215.271C142.608 210.818 136.643 203.961 133.655 195.76C126.077 175.07 138.944 151.331 162.399 142.741C166.768 141.138 171.33 140.139 175.923 139.778L159.33 94.4737C154.246 95.6685 149.241 97.2171 144.364 99.108L157.279 134.371C152.684 134.731 148.12 135.731 143.749 137.336C120.295 145.926 107.429 169.663 115.008 190.356C120.367 204.988 134.508 214.175 150.626 215.271Z" fill="#FF004F"/>
<path d="M217.377 50.4464C241.664 55.6609 268.506 54.132 294.604 44.5736L281.828 9.69234C266.258 12.2895 250.902 10.2961 237.784 4.50437C217.841 1.44411 200.361 -9.25202 190.392 -25.6131L153.806 -12.2135L218.631 164.783C226.105 185.448 213.246 209.106 189.842 217.677C176.051 222.728 161.674 221.416 150.624 215.271C134.508 214.175 120.366 204.987 115.007 190.357C107.429 169.666 120.295 145.927 143.748 137.337C148.242 135.691 152.799 134.722 157.278 134.372L144.363 99.1093C94.3327 118.475 67.1258 169.622 83.4823 214.282C91.6474 236.576 109.136 253.092 130.916 261.863C148.89 265.203 168.539 263.796 187.669 256.79C238.937 238.013 267.068 186.118 250.499 140.879L217.377 50.4464Z" fill="white"/>
<path d="M281.828 9.69115L278.375 0.261565C265.244 5.09046 251.178 6.56067 237.784 4.50411C251.141 10.4211 266.539 12.2352 281.829 9.69302M190.391 -25.6139C189.439 -27.1776 188.561 -28.7809 187.759 -30.4201L185.672 -36.1194L135.155 -17.6176L199.98 159.381C207.456 180.042 194.597 203.7 171.192 212.272C164.56 214.711 157.514 215.739 150.624 215.273C161.674 221.416 176.05 222.727 189.841 217.677C213.244 209.105 226.105 185.448 218.63 164.784L153.805 -12.2134L190.391 -25.6139ZM144.365 99.1074L140.688 89.0671C136.28 90.1038 131.931 91.4076 127.671 92.9696C76.3982 111.748 48.267 163.643 64.8342 208.878C75.2212 237.238 100.71 256.249 130.917 261.86C109.137 253.09 91.648 236.573 83.4833 214.28C67.1271 169.622 94.3327 118.473 144.365 99.1074Z" fill="#00F2EA"/>
</svg>
