<svg width="333" height="163" viewBox="0 0 333 163" fill="none" xmlns="http://www.w3.org/2000/svg">
<path d="M319.888 68.0458C292.543 -6.61589 209.85 -44.9744 135.188 -17.6296C60.5261 9.71518 22.1676 92.4089 49.5124 167.071C74.2253 234.546 144.146 272.369 212.488 258.84L177.889 164.372L143.564 176.944L129.252 137.866L163.577 125.295L152.669 95.511C140.26 61.6295 153.589 35.5224 184.468 24.2127C199.259 18.7957 215.696 15.77 215.696 15.77L227.881 49.0389L210.835 55.2821C194.041 61.4329 192.62 73.7722 196.536 84.4636L205.823 109.822L243.317 96.0899L251.635 137.363L220.135 148.9L254.734 243.367C315.648 209.556 344.601 135.522 319.888 68.0458Z" fill="#1877F2"/>
<path d="M251.635 137.363L243.316 96.0898L205.823 109.822L196.535 84.4635C192.619 73.771 194.041 61.4327 210.834 55.282L227.881 49.0388L215.696 15.7699C215.696 15.7699 199.258 18.7956 184.467 24.213C153.588 35.5223 140.259 61.6294 152.669 95.5108L163.577 125.294L129.252 137.866L143.564 176.944L177.889 164.372L212.488 258.84C219.876 257.376 227.14 255.338 234.212 252.746C241.286 250.158 248.147 247.022 254.734 243.367L220.135 148.9L251.635 137.363Z" fill="white"/>
</svg>
