<svg width="333" height="163" viewBox="0 0 333 163" fill="none" xmlns="http://www.w3.org/2000/svg">
<path d="M54.7224 163.327C63.0361 186.046 77.1405 206.037 95.6729 221.423L101.705 294.974L164.017 251.823C186.838 255.139 210.158 252.715 231.849 244.772L231.906 244.751C303.511 218.526 340.619 139.348 314.617 68.2565C302.015 33.8079 276.65 6.36477 243.193 -9.01758C209.741 -24.3994 172.203 -25.8773 137.439 -13.163C65.8259 13.0653 28.721 92.2386 54.7235 163.327" fill="url(#paint0_linear_5550_5136)"/>
<path d="M50.0694 164.984C58.6814 188.521 73.2907 209.227 92.4849 225.164L98.7326 301.352L163.28 256.654C186.834 260.092 211.022 257.594 233.547 249.354L233.605 249.333C307.779 222.167 346.219 140.142 319.286 66.5052C306.23 30.8193 279.953 2.38979 245.3 -13.5445C210.645 -29.4746 171.763 -31.0082 135.755 -17.837C61.568 9.33377 23.1335 91.3473 50.0694 164.984ZM115.733 212.694L111.531 209.473C93.8601 195.902 80.4694 177.644 72.7973 156.67C50.4075 95.465 82.3527 27.2988 144.057 4.6998C173.943 -6.23173 206.259 -4.95569 235.064 8.28453C263.868 21.5272 285.704 45.1571 296.559 74.8193C318.944 136.025 287.001 204.198 225.345 226.78L225.301 226.796C205.221 234.138 183.573 235.998 162.698 232.175L157.731 231.267L119.427 257.791L115.733 212.694Z" fill="url(#paint1_linear_5550_5136)"/>
<path d="M130.575 72.1881C126.021 67.5534 123.328 68.4123 120.897 69.1923C118.904 69.827 116.664 70.6547 114.423 71.4753C112.18 72.2967 108.843 74.4686 106.986 78.9344C105.126 83.4045 99.3952 94.66 105.409 111.081C111.424 127.502 129.287 138.958 131.783 140.572C134.28 142.181 168.599 169.052 207.68 169.911C240.159 170.625 245.13 166.297 251.091 163.481C257.054 160.667 268.032 148.122 267.979 139.303C267.929 130.483 265.482 123.803 264.13 122.715C262.781 121.632 260.232 121.619 256.258 121.182C252.282 120.745 232.792 118.725 229.302 118.74C225.811 118.756 223.366 119.022 222.347 123.185C221.327 127.343 217.64 137.218 216.492 140.163C215.348 143.112 213.487 144.109 209.514 143.671C205.535 143.228 193.416 143.675 176.403 137.011C163.165 131.826 152.415 123.373 149.229 120.749C146.045 118.131 147.134 115.681 148.212 113.4C149.175 111.351 150.148 108.271 151.118 105.706C152.081 103.143 152.131 101.547 152.437 98.9104C152.743 96.2713 151.468 94.5279 150.017 93.1659C148.563 91.8051 135.983 77.6919 130.575 72.1881Z" fill="white"/>
<defs>
<linearGradient id="paint0_linear_5550_5136" x1="22581.7" y1="21271.6" x2="13053.6" y2="-4743.71" gradientUnits="userSpaceOnUse">
<stop stop-color="#1FAF38"/>
<stop offset="1" stop-color="#60D669"/>
</linearGradient>
<linearGradient id="paint1_linear_5550_5136" x1="23385.1" y1="22030.1" x2="13515.4" y2="-4918.11" gradientUnits="userSpaceOnUse">
<stop stop-color="#F9F9F9"/>
<stop offset="1" stop-color="white"/>
</linearGradient>
</defs>
</svg>
