<svg width="175" height="131" viewBox="0 0 175 131" fill="none" xmlns="http://www.w3.org/2000/svg">
<path fill-rule="evenodd" clip-rule="evenodd" d="M125.938 96.5488C125.167 97.4399 124.029 98.1012 123.156 98.9159C122.24 99.7716 121.245 100.519 120.332 101.365C116.304 96.4419 110.786 93.4233 106.006 89.3382C103.74 87.4014 102.071 84.7744 100.849 82.0783C100.222 80.6961 99.7596 79.2736 99.3975 77.8012C99.2344 77.138 99.075 76.477 98.9684 75.8048C98.8392 74.9906 98.8058 74.9212 98.2566 74.2858C98.0201 74.0124 97.5622 73.2134 97.099 73.3015C96.7093 73.3757 95.9965 74.562 95.7502 74.855C94.5657 76.2645 93.4174 77.7167 92.1703 79.0716C90.2625 81.1447 88.5255 83.1848 86.7541 85.3821C83.1305 89.8776 79.2216 94.1093 75.2773 98.3393C74.9848 98.653 74.3027 99.5729 73.8824 99.6966C73.3713 99.8469 72.5408 99.22 72.0262 98.8697C70.7839 98.024 69.8048 96.9771 68.7428 95.929C66.6705 93.8835 65.2672 91.0122 64.3233 88.2803C63.7582 86.645 63.3908 84.9499 62.8076 83.3202C62.5645 82.641 62.0136 81.8062 62.2933 81.2147C62.3765 81.0383 62.9067 80.5697 63.0936 80.5339C63.3147 80.4914 63.6833 80.7946 63.7601 80.7736C64.4935 80.5728 64.0865 79.8051 64.5229 79.3919C64.7702 79.1576 66.0282 79.1919 66.4038 79.0631C67.7771 78.5919 69.0091 77.6934 70.3073 77.1569C75.7423 74.9115 81.2434 72.7273 85.9354 69.0605C87.1523 68.1097 87.9608 67.3952 89.4127 66.7806C90.88 66.1596 92.3549 65.6055 93.852 65.0636C95.1729 64.5855 96.501 64.1373 97.8656 63.7946C99.341 63.4239 101.434 62.954 102.908 63.4314C105.804 64.3687 106.738 66.7542 107.891 69.2706C109.451 72.6753 111.337 75.8971 113.382 79.0308C117.315 85.0602 122.099 90.4706 125.938 96.5488Z" fill="#FF6DFB"/>
<path fill-rule="evenodd" clip-rule="evenodd" d="M38.7471 43.2455C38.5878 43.1647 37.344 43.6709 37.1352 43.7484C36.3013 44.0578 35.5158 44.5719 34.7302 44.9902C35.3323 45.7229 35.9346 46.4559 36.5365 47.1888C37.1267 45.7412 37.8852 44.5467 38.7471 43.2455ZM39.1577 52.2526C38.9529 52.2757 40.6825 56.432 40.8844 56.8987C41.6194 58.5961 42.3911 60.2769 43.1358 61.97C43.8573 63.6107 44.7726 65.1201 45.6947 66.6529C46.4835 67.9638 47.2947 69.998 48.4845 70.9689C47.7333 67.6363 47.8322 63.8043 45.6775 61.0061C43.444 58.1052 41.2358 55.2725 39.1577 52.2526ZM125.937 96.6971C122.6 91.4119 118.422 86.7363 114.941 81.5455C112.993 78.6389 111.096 75.6952 109.455 72.6013C108.262 70.3508 107.521 67.1397 105.678 65.4192C104.866 64.6611 103.998 63.9191 102.908 63.5795C101.417 63.1149 99.3635 63.5754 97.8653 63.9428C95.0736 64.6274 92.3463 65.6904 89.7019 66.8068C87.0196 67.939 84.7312 69.9729 82.3077 71.607C79.708 73.3602 76.8939 74.6373 73.9812 75.7552C71.4451 76.7287 69.189 78.1262 66.6664 79.1059C66.1637 79.3012 65.1378 79.2726 64.7162 79.5272C64.2618 79.8014 64.4407 80.6109 63.8891 80.9096C63.6402 81.0443 63.5573 80.5558 63.3663 80.5638C63.1326 80.5735 62.9195 80.8478 62.6944 81.0215C61.7776 81.7288 62.3393 82.2005 62.7022 83.1738C63.8855 86.345 64.5214 89.5716 66.1828 92.5655C67.5487 95.0263 69.5037 97.2315 71.8054 98.8607C72.1556 99.1087 73.2969 100.069 73.7078 100.005C74.0777 99.9481 74.8305 98.9645 75.086 98.6974C76.245 97.4853 77.3045 96.1815 78.4628 94.9675C80.2528 93.0914 81.976 91.1649 83.7131 89.2632C85.7296 87.0555 87.5143 84.554 89.3306 82.1952C90.166 81.11 91.2415 80.2261 92.1701 79.2199C93.4188 77.8669 94.5654 76.4124 95.75 75.0033C96.1083 74.5769 96.7087 73.4861 97.2656 73.4989C97.6559 73.5079 98.344 74.4268 98.5481 74.7147C99.3068 75.785 99.3034 77.718 99.6807 79.0541C100.601 82.312 102.262 85.4941 104.539 88.0081C106.803 90.5082 109.703 92.2861 112.381 94.2956C115.282 96.4728 118.031 98.7008 120.331 101.513C121.245 100.668 122.24 99.9197 123.156 99.0641C124.029 98.2493 125.167 97.5882 125.937 96.6971ZM82.9753 111.65C83.6242 111.656 84.723 112.055 85.3035 111.815C83.5817 109.91 82.0005 108.275 79.8221 106.879C77.5615 105.43 75.3084 103.994 73.1128 102.449C68.688 99.3347 65.4334 95.6413 63.5851 90.4548C63.1092 89.1192 62.7904 87.7185 62.4416 86.3456C62.254 85.6061 61.8804 82.1469 61.2461 81.8482C60.8703 81.6712 58.0422 83.6589 57.5941 83.9065C56.5464 84.486 55.4948 84.9353 54.4117 85.3886C52.0836 86.3635 49.6834 87.107 47.2146 87.7277C44.2546 88.4719 42.2384 87.2406 40.4048 84.9141C38.3245 82.2747 36.5957 79.2966 34.6936 76.5248C33.8287 75.2641 33.1121 74.0055 32.4733 72.6149C32.0552 71.7051 30.3971 69.2504 30.97 68.281C32.6046 69.5255 33.1928 72 34.3063 73.6664C35.6941 75.7431 37.258 77.7011 38.653 79.7759C39.826 81.5206 41.0228 83.6348 42.7558 84.889C44.2802 85.9921 45.7284 85.653 47.3689 85.1572C49.3573 84.5564 51.4183 84.2603 53.367 83.5151C55.4757 82.7088 57.4709 81.5649 59.5284 80.6322C60.4875 80.1973 61.636 79.9501 62.5399 79.4078C63.3189 78.9408 63.2027 78.6942 63.2598 77.6996C63.3267 76.5391 63.4036 75.3779 63.455 74.2165C63.4894 73.4361 63.0674 72.378 63.3538 71.7955C61.018 72.2005 58.7351 72.7429 56.4156 73.2227C55.1457 73.4854 53.9211 73.8102 52.6383 74.0165C52.1492 74.0952 51.4808 74.093 51.0429 74.306C50.6936 74.2057 50.5155 74.2695 50.5087 74.4972C50.4919 74.6209 50.4655 74.7428 50.4292 74.8628C49.7129 75.1886 49.2964 74.4897 48.6752 73.8194C47.9086 72.9921 47.3346 72.0604 46.7723 71.0883C45.5148 68.9149 44.0654 66.8707 42.9018 64.6361C41.7158 62.3581 40.7526 59.919 39.747 57.5556C38.8246 55.3873 38.2339 53.0422 37.2145 50.9252C36.7596 49.9803 36.1831 49.1989 35.5098 48.4006C34.9543 47.7418 34.0995 46.3208 33.2699 46.0182C33.0505 45.9382 32.476 46.0726 32.2268 46.0549C31.7301 46.0194 31.2875 45.8371 30.7792 45.877C29.6786 45.9631 28.4788 46.659 27.5993 47.2709C28.1677 47.7775 29.5894 48.3933 28.5682 49.3058C27.5772 50.1918 27.0298 48.6026 26.6516 47.9063C24.8709 49.3686 25.1283 51.3849 24.9226 53.4511C24.8151 54.5298 24.5324 55.5921 24.3501 56.6546C24.2188 57.4193 24.3109 58.2102 24.2733 58.9909C24.1777 60.9749 23.9783 62.8739 23.988 64.83C23.9982 66.9209 24.1406 68.9401 24.308 71.0158C24.5896 74.5105 25.2349 78.0064 25.7882 81.4733C26.0995 83.4221 26.5256 85.3155 26.9392 87.2327C27.4087 89.4087 28.277 91.4697 28.764 93.6401C29.2602 93.0093 29.6334 93.0063 30.436 93.0898C31.0533 93.1541 31.4679 93.0073 31.4318 93.8641C31.4084 94.4198 30.9182 94.8442 30.3758 94.9412C29.6684 95.0676 29.4281 94.7147 29.0635 94.1789C28.9783 95.1935 29.6606 96.2543 29.9304 97.2452C30.1857 98.1842 30.355 99.1046 30.7841 100.003C31.2029 100.88 31.5614 101.745 31.9851 102.613C32.1803 103.013 32.3628 103.419 32.5601 103.817C32.6599 104.019 32.7774 104.297 32.9263 104.467C33.2757 104.866 33.2201 104.672 33.6289 104.899C34.5197 105.394 34.1852 105.271 34.206 106.293C34.2263 107.301 34.7431 108.041 35.5719 108.608C37.3304 109.81 39.0648 110.144 41.0639 110.751C42.9265 111.317 44.8885 111.803 46.8608 111.792C49.2764 111.778 51.66 111.462 54.0757 111.43C56.7407 111.394 59.4313 111.409 62.0909 111.501C63.1865 111.539 64.204 111.588 65.2617 111.867C66.49 112.192 67.6782 112.064 68.9442 112.014C71.645 111.909 74.439 111.7 77.1046 111.681C79.0238 111.668 81.0489 111.534 82.9753 111.65ZM153.011 112.697C153.491 112.95 154.567 112.846 155.05 112.776C155.9 112.652 155.991 112.315 156.531 111.556C157.459 110.251 158.213 109 158.76 107.488C159.805 104.593 160.232 101.631 160.691 98.6033C161.201 95.2385 160.27 91.7508 159.936 88.409C159.86 87.6423 159.755 86.8825 159.634 86.1216C159.561 85.6667 159.542 84.1191 159.243 83.7252C158.668 82.9686 155.993 83.5789 154.942 83.6474C152.007 83.8392 149.052 83.884 146.118 83.9173C144.554 83.935 142.981 84.0005 141.432 84.0126C140.721 84.0183 140.025 83.9829 139.311 83.9137C139.073 83.8907 138.84 83.8357 138.599 83.8224C137.775 83.7769 137.837 83.6575 137.625 84.3867C137.252 85.6643 137.539 87.2897 137.441 88.6157C137.31 90.3876 137.239 92.1846 137.271 93.9603C137.301 95.6012 137.245 97.2383 137.307 98.8828C137.332 99.5639 137.407 100.119 137.586 100.77C137.789 101.505 138.013 103.223 138.519 103.732C138.576 103.79 139.006 103.655 139.12 103.799C139.296 104.021 139.264 104.491 139.385 104.635C139.775 105.1 140.583 105.137 141.169 105.346C142.777 105.919 144.251 106.542 145.767 107.315C147.12 108.005 149.303 108.593 150.117 109.956C150.49 110.58 150.541 111.404 150.884 112.048C151.275 112.782 150.493 112.399 151.45 112.697C151.882 112.831 152.569 112.697 153.011 112.697ZM10.2828 104.393C10.161 106.089 9.20596 107.704 8.87351 109.37C8.71795 110.151 8.45408 110.918 8.27122 111.694C8.09587 112.438 7.46236 113.32 7.5265 114.056C9.86471 113.223 12.2331 113.014 14.6769 112.789C16.9931 112.576 19.44 112.491 21.7368 112.49C24.0772 112.489 26.5797 112.261 28.9895 112.225C31.5097 112.188 34.068 112.123 36.5517 111.862C35.253 110.9 33.6279 109.996 32.6689 108.658C31.6264 107.203 31.085 105.38 30.1677 103.845C28.3268 100.765 27.1565 96.9419 26.1916 93.4808C24.2435 86.4938 22.0665 79.6357 21.5418 72.3884C20.5433 72.8998 19.7506 74.8837 19.2507 75.8717C18.6125 77.1331 18.2784 78.5004 17.8636 79.8411C17.0093 82.6025 16.4181 85.4657 15.3722 88.2009C13.3731 93.4293 12.0881 99.063 10.2828 104.393ZM137.208 63.6713C137.641 66.7962 138.547 69.9615 138.582 73.1241C138.59 73.8199 138.472 74.5926 138.617 75.2786C138.772 76.0111 139.275 76.6585 139.566 77.3547C140.028 78.4596 141.197 80.7245 140.07 81.6608C140.047 80.7723 139.234 79.6439 138.824 78.867C138.207 77.6963 137.396 76.626 136.726 75.4843C135.326 73.0948 133.756 70.7564 131.951 68.6498C130.193 66.5978 128.166 64.7776 126.302 62.8237C125.742 62.2366 121.248 56.586 121.069 56.665C122.463 62.0405 124.833 66.7176 128.075 71.2183C129.665 73.4247 131.573 74.8766 133.509 76.7457C135.121 78.3024 138.158 79.9668 137.601 82.5174C140.121 82.2752 142.624 81.8881 145.166 81.8881C144.748 78.6703 144.428 75.5034 143.681 72.3384C142.834 68.7446 142.26 65.0434 141.543 61.4177C140.811 57.7163 139.57 54.1329 138.798 50.4384C138.058 46.9007 137.423 43.3694 136.881 39.7923C136.433 41.7743 136.598 43.9514 136.439 45.9737C136.277 48.0398 136.293 50.0679 136.347 52.1462C136.447 56.0064 136.858 59.8201 137.208 63.6713ZM148.126 45.2668C148.14 43.6145 148.46 41.9845 148.559 40.3361C148.589 39.8303 149.093 36.3798 148.623 36.1997C148.237 37.042 148.147 38.1198 147.796 39.0036C147.445 39.8864 146.977 40.7275 146.64 41.6166C145.911 43.5425 145.66 45.7217 145.582 47.7693C145.404 52.4007 145.312 57.0217 145.624 61.6531C145.757 63.6382 145.859 65.6267 145.823 67.6158C145.783 69.8044 145.447 71.7041 145.854 73.8748C146.257 76.0244 146.51 78.1651 146.645 80.346C146.739 81.8767 146.777 81.7684 148.237 81.6608C149.292 81.583 150.356 81.6661 151.412 81.6178C150.918 75.6518 150.838 69.6736 150.049 63.7305C149.647 60.6986 149.636 57.6228 149.136 54.6021C148.888 53.1016 148.471 51.6312 148.232 50.129C147.975 48.5161 148.101 46.8922 148.126 45.2668ZM41.3288 41.5123C44.1403 41.7559 47.131 42.5965 50.0128 42.0415C49.5378 41.8491 48.2946 41.5836 48.8541 40.8243C49.423 40.0521 50.3816 41.0315 50.9489 40.9303C51.2988 40.8679 52.0718 39.4056 52.2874 39.1028C52.7768 38.4147 52.8358 38.2948 53.7158 38.1185C54.5683 37.9479 54.7616 38.1326 54.8695 37.285C54.9935 36.3104 54.6563 35.2146 54.6897 34.218C54.7616 32.0723 55.4537 30.1907 56.098 28.172C53.3608 28.7675 50.6843 29.4736 47.8856 29.8574C46.6892 30.0215 44.8279 30.4 43.741 29.5867C43.4584 29.3752 43.5036 29.0897 43.2723 28.8446C42.8844 28.4333 42.1649 28.0079 41.6148 27.8907C38.2295 27.1701 37.8992 31.9961 39.5957 33.8019C40.0206 34.2545 40.6118 34.4779 41.047 34.8926C41.6278 35.4456 41.6754 36.0281 41.7601 36.8722C41.9191 38.4552 41.7032 40.0442 41.0279 41.4922L41.3288 41.5123ZM82.4104 64.2958C83.4098 64.4854 84.4528 64.4421 85.4548 64.604C85.8108 64.6615 86.878 64.8621 87.191 64.654C87.669 64.3362 87.8389 63.1707 88.0649 62.6279C88.4623 61.6732 89.0247 60.8405 89.4037 59.8684C90.9525 55.8978 92.3968 51.9113 94.27 48.0763C93.5521 47.8897 93.0008 47.8824 92.2772 47.786C91.5234 47.6855 90.8401 47.2398 90.121 47.0483C89.4375 46.8663 88.7214 46.9127 88.0443 46.701C87.6712 46.5845 87.3511 46.3254 86.9833 46.2348C86.397 46.0907 85.7129 46.0064 85.3642 46.3912C85.0069 46.7859 84.8815 47.8682 84.687 48.3781C84.1692 49.7363 83.5676 51.0472 83.1338 52.4367C82.7423 53.6899 82.3705 54.9298 82.0259 56.1944C81.6619 57.5295 80.9445 58.6298 80.5075 59.9052C80.175 60.8759 79.8614 61.8683 79.8117 62.9034C79.7635 63.9133 79.6164 63.9776 80.6264 64.139C81.1362 64.2204 81.9308 64.5233 82.4104 64.2958ZM148.165 111.564C148.425 111.686 148.67 111.669 148.901 111.516C146.644 110.563 144.449 109.241 142.095 108.587C139.886 107.974 137.74 107.241 135.612 106.485C133.883 105.872 132.329 105.394 130.766 104.314C129.817 103.658 128.975 102.921 128.323 101.963C127.597 100.896 127.435 99.378 126.649 98.4173C125.588 99.5825 124.342 100.465 123.087 101.391C122.652 101.711 121.611 102.409 121.462 102.905C121.275 103.531 121.777 104.129 122.025 104.762C122.661 106.383 122.972 108.003 123.317 109.689C123.456 110.364 123.754 111.38 124.309 111.663C124.814 111.92 126.277 111.733 126.906 111.685C130.186 111.437 133.408 111.182 136.708 111.409C140.442 111.665 144.44 111.841 148.165 111.564ZM154.716 81.5243C155.312 81.5264 155.895 81.4518 156.489 81.4518C156.146 79.851 156.947 77.7796 157.231 76.1816C157.549 74.3942 157.791 72.5459 158.003 70.7441C158.45 66.949 158.653 63.2 158.659 59.3771C158.664 55.6779 159.337 52.2975 160.281 48.7414C161.294 44.9223 162.952 41.4878 164.324 37.8046C162.819 38.5998 161.987 40.4606 161.196 41.8832C160.197 43.6819 159.531 45.6735 159.123 47.6927C158.336 51.5881 157.473 55.4952 156.564 59.3841C155.619 63.4333 155.063 67.5198 153.979 71.5359C153.451 73.4944 152.732 75.9039 152.692 77.9237C152.676 78.7592 152.424 80.5089 152.803 81.2345C153.157 81.9134 153.94 81.5936 154.716 81.5243ZM64.7302 76.5003C64.6988 76.9161 64.6691 77.3117 64.5953 77.7224C65.421 77.7146 66.4668 76.8578 67.175 76.4731C68.0378 76.0046 68.9015 75.4877 69.7454 75.0168C71.3743 74.1073 73.2237 73.5081 74.963 72.761C76.9611 71.9026 78.7977 70.8656 80.7084 69.8322C81.3759 69.4713 86.1727 67.392 86.0922 66.824C85.0391 66.7889 83.986 66.7539 82.9327 66.7189C82.0299 66.6889 80.6315 66.8929 79.7669 66.6138C79.2934 66.4608 78.7617 65.8978 78.5829 65.4569C78.406 65.0205 78.8036 63.0137 78.5725 62.8858C77.3939 64.0892 76.6527 65.6887 75.5989 66.9869C74.4344 68.4218 72.9296 69.2596 71.2711 70.0221C69.4397 70.8642 67.5441 71.5163 65.6724 72.238C64.883 72.5423 64.8987 72.7164 64.83 73.5819C64.753 74.5492 64.7614 75.5304 64.7302 76.5003ZM159.901 112.894C161.886 113.107 163.921 112.985 165.922 113.151C166.65 113.212 167.659 113.302 166.926 114.279C166.465 114.894 164.988 114.697 164.317 114.74C162.518 114.854 160.613 114.793 158.809 114.766C158.43 114.76 158.01 114.648 157.626 114.673C157.183 114.702 156.653 115.021 156.249 115.018C156 115.017 155.911 114.754 155.697 114.73C155.229 114.678 154.762 114.639 154.29 114.64C147.162 114.641 140.132 114.498 133.021 114.49C129.621 114.487 126.166 114.428 122.768 114.268C122.054 114.235 117.99 114.381 118.102 113.095C118.16 112.434 119.487 112.34 119.971 112.27C120.329 112.218 120.702 112.226 121.061 112.207C122.016 112.156 122.434 112.386 122.233 111.341C121.469 107.378 120.1 104.103 117.175 101.254C114.783 98.9239 111.903 96.8105 109.194 94.865C105.905 92.5026 103.236 90.018 101.283 86.403C100.143 84.292 99.1881 82.1338 98.6022 79.7997C98.3914 78.9599 98.3864 78.0049 98.128 77.1953C97.9293 76.5721 97.4762 76.1359 97.2095 75.4903C93.9369 80.9565 89.5994 85.5297 85.6223 90.4582C83.7219 92.8128 81.5541 95.0492 79.2836 97.0976C78.6099 97.7055 77.9811 98.3402 77.3522 98.9944C76.8262 99.5419 75.9911 100.029 75.5469 100.636C75.1208 101.219 75.2257 101.191 75.8742 101.654C76.7315 102.265 77.6763 102.773 78.5471 103.37C79.939 104.323 81.4583 105.128 82.7028 106.276C84.0488 107.516 85.2247 108.954 86.4011 110.353C87.1852 111.285 88.2141 112.482 88.4113 113.661C88.4767 114.051 88.7247 115.016 88.3973 115.301C88.1176 115.545 88.1458 115.453 87.7985 115.304C87.3434 115.109 87.2095 114.661 86.6536 114.448C85.2312 113.902 83.5099 114.089 82.0299 114.083C80.5493 114.076 79.0564 114.242 77.5765 114.236C74.1971 114.222 70.8897 114.496 67.5114 114.643C63.9232 114.799 60.291 114.424 56.7148 114.477C54.0651 114.517 51.3448 114.319 48.622 114.466C47.2214 114.541 45.8459 114.366 44.4803 114.347C42.6923 114.321 40.8561 114.564 39.0528 114.599C36.093 114.656 33.1694 114.656 30.1915 114.727C23.7862 114.88 17.4155 115.038 11.0064 115.14C10.1514 115.153 9.21551 115.124 8.37067 115.22C7.47396 115.323 7.9369 115.513 7.32164 115.836C5.5992 116.74 5.99697 113.39 6.03825 112.732C6.25966 109.201 7.15585 105.739 8.23284 102.388C9.25457 99.2091 10.0841 95.8823 10.9494 92.6349C11.8966 89.0807 13.1307 85.672 14.2513 82.1527C15.3996 78.5465 16.3345 74.7996 18.4201 71.6029C18.8952 70.8749 19.3861 70.0915 20.1503 69.6325C21.0069 69.1179 21.0437 69.4184 21.043 68.4767C21.0425 67.5897 21.0971 66.4047 20.8878 65.5583C20.6987 64.7937 20.7278 65.247 20.3019 64.6978C19.9553 64.2511 19.5927 63.9458 19.344 63.4033C17.8163 64.9523 14.3194 64.1349 12.8434 63.0195C11.0369 61.6543 9.66088 59.351 9.15667 57.1575C8.75173 55.396 9.2486 52.0382 11.1983 51.1912C12.1487 50.7782 15.6396 50.4661 15.7793 49.1202C15.8513 48.4255 14.6227 47.4486 14.3392 46.8513C13.8138 45.7446 13.3093 44.2726 13.1633 43.0594C12.8781 40.6915 13.953 38.0437 15.6654 36.4443C18.8067 33.5101 24.3337 32.0043 28.3744 33.8659C27.5205 30.604 27.0051 27.7901 27.4351 24.3971C27.8056 21.474 29.5302 19.8385 31.9034 18.3825C35.9532 15.8975 41.4603 14.9167 46.0908 15.6393C47.1431 15.8035 48.1529 16.1558 49.1272 16.436C50.5426 16.8432 52.2371 16.7076 53.5735 17.3691C54.5425 17.8486 55.2784 18.8038 56.1294 19.4416C57.123 20.1861 57.9485 21.2974 58.6389 22.3251C60.1152 24.5228 59.5383 28.6015 58.3027 30.8075C58.0378 31.2807 57.7104 31.679 57.272 32.0019C56.8156 32.3379 56.1198 32.4425 55.8846 32.8783C55.2821 33.9947 55.8633 36.4115 55.9436 37.6182C56.0373 39.0193 55.3289 40.0717 53.7402 40.1834C52.8211 40.2482 52.7918 39.715 52.3517 40.8121C52.0665 41.5233 51.8074 42.298 51.3958 42.9499C50.5472 44.2935 48.9929 44.1624 47.5772 44.126C45.9383 44.0837 44.324 43.8248 42.6843 43.6614C43.1174 45.049 44.3029 46.126 45.0432 47.3621C46.0441 49.0341 46.6465 50.42 46.8093 52.3679C46.9341 53.8646 46.6646 55.0465 45.6405 56.1603C45.2166 56.6213 44.8409 56.644 44.9461 57.1759C45.0102 57.5003 45.5713 58.0356 45.7698 58.2945C46.295 58.9795 46.9048 59.6083 47.367 60.3398C49.1458 63.1546 49.6712 67.4456 49.6756 70.7223C49.6758 70.8725 49.7559 71.192 49.6896 71.3474C49.6404 71.4622 49.2672 71.8257 49.2618 71.8569C49.1888 72.2782 49.5995 73.0004 50.2441 73.0719C50.9211 73.1468 52.161 72.5819 52.7908 72.3963C53.7985 72.0991 54.8257 71.8798 55.8312 71.5746C57.4552 71.0818 59.0718 70.6888 60.7227 70.3027C61.4688 70.1283 62.219 69.983 62.9675 69.8199C63.82 69.6344 64.2161 69.2756 64.6561 70.143C65.0336 70.8874 64.7989 71.0223 65.7134 70.6472C66.6213 70.2745 67.5085 69.8126 68.3949 69.392C69.9584 68.6503 71.8204 67.9892 73.1691 66.8943C75.4188 65.0676 76.2519 62.1587 78.405 60.2204C79.0046 59.6807 79.3623 59.6712 79.7413 58.9236C80.1471 58.1234 80.3564 57.0973 80.5696 56.2365C80.9433 54.7294 81.2092 53.2169 81.5482 51.7111C81.9703 49.8351 82.8827 48.1362 83.5485 46.3469C83.8079 45.6498 83.9423 44.7636 84.3607 44.1371C84.4716 43.971 84.6835 43.8773 84.7699 43.7399C85.0676 43.2679 85.0645 43.1382 85.1416 42.5704C85.5024 39.9171 87.0862 41.3129 88.8168 41.9214C89.546 42.1777 93.0084 43.8403 91.6863 44.946C93.2624 45.4033 95.7867 45.1548 95.7656 47.4135C95.7547 48.5708 95.0625 49.8088 94.691 50.8922C94.3609 51.854 94.0419 52.8196 93.7068 53.7799C92.9725 55.8836 92.0816 57.9244 91.365 60.0345C91.0383 60.9962 90.7688 61.9804 90.3141 62.888C89.9131 63.6887 88.942 64.5712 88.782 65.4468C92.982 63.6549 96.8675 61.0643 101.569 61.2294C103.627 61.3015 105.495 62.1668 106.632 63.9768C108.057 66.2454 108.995 68.7854 110.388 71.075C115.456 79.4039 121.501 86.9705 127.064 94.9547C127.491 95.5683 128.041 96.1484 128.189 96.9066C128.286 97.4012 128.098 97.8961 128.214 98.3713C128.455 99.3589 129.671 100.592 130.495 101.159C132.076 102.247 134.645 103.782 136.618 103.646C135.38 100.671 135.396 97.4118 135.454 94.2386C135.509 91.2244 135.834 88.2345 136.221 85.2513C136.309 84.5764 136.385 83.9507 136.579 83.2966C136.801 82.546 137.107 82.6172 136.44 81.9426C135.414 80.9038 134.193 80.049 133.159 78.9973C130.922 76.7229 128.628 74.9402 126.867 72.2242C125.193 69.6408 123.426 66.9828 122.186 64.1538C120.91 61.2417 120.4 58.1316 119.766 55.0475C119.509 53.796 118.572 52.3988 118.76 51.0919C118.998 49.4402 119.764 50.6429 120.076 51.5318C121.027 54.2451 123.255 56.6735 125.1 58.8557C127.094 61.213 129.532 63.1853 131.613 65.4741C133.879 67.9668 135.432 70.8316 137.447 73.4925C137.447 70.1903 136.319 66.8276 135.858 63.5608C135.452 60.6854 135.325 57.801 135.068 54.9132C134.486 48.3533 134.989 41.6002 135.807 35.0872C136.195 31.994 135.975 28.9737 135.987 25.87C135.99 24.8822 135.582 22.6055 136.103 21.729C137.101 20.05 137.683 23.7212 137.733 24.2686C138.035 27.5293 137.494 30.7536 137.77 34.0003C138.059 37.3908 138.686 40.6861 139.22 44.0373C139.798 47.6659 140.739 51.2127 141.64 54.7717C142.586 58.5084 143.382 62.3231 144.433 66.03C144.717 64.8648 144.319 63.4333 144.24 62.2467C144.128 60.5484 143.909 58.8499 143.89 57.1472C143.86 54.4336 143.838 51.6696 143.992 48.9686C144.143 46.3063 144.098 43.5166 144.914 40.9517C145.302 39.7343 145.87 38.5466 146.426 37.3998C147.112 35.9858 147.355 34.6147 147.735 33.1108C148.06 31.8228 148.536 30.5687 148.753 29.255C148.888 28.4379 149.264 26.026 150.199 27.8534C150.742 28.914 150.508 30.4863 150.523 31.6258C150.542 33.0866 150.319 34.5069 150.284 35.9616C150.218 38.8156 150.17 41.6662 149.957 44.5155C149.734 47.5047 149.929 50.1838 150.497 53.1292C151.12 56.3534 151.302 59.5845 151.624 62.8481C151.791 64.5332 152.071 66.2089 152.207 67.8964C152.278 68.79 151.911 71.3525 152.551 71.9889C152.613 70.4412 153.057 68.892 153.393 67.3838C153.791 65.5971 153.952 63.7187 154.245 61.9064C154.721 58.9701 155.643 56.1661 156.254 53.2628C157.512 47.2779 158.557 39.5859 163.829 35.6685C164.519 35.1559 165.277 34.7776 166.023 34.3558C166.445 34.117 167.072 33.4992 167.555 33.3914C168.082 33.2737 168.302 33.3651 168.516 33.9768C168.814 34.8295 168.269 35.2278 167.76 35.8471C165.999 37.9902 165.247 40.7374 164.16 43.2508C161.67 49.0061 160.568 55.0765 160.556 61.2976C160.549 64.5544 160.325 67.6954 159.977 70.9324C159.604 74.416 159.111 78.1004 158.053 81.4516C159.114 81.6896 160.266 81.3348 160.554 82.5687C160.625 82.8718 160.497 83.2302 160.575 83.6247C160.652 84.0082 160.835 84.3896 160.943 84.7667C161.167 85.5468 161.285 86.3164 161.394 87.1174C161.815 90.213 162.537 93.1572 162.614 96.2959C162.685 99.1972 162.117 102.137 161.594 104.982C161.066 107.848 159.554 110.291 158.364 112.883C158.876 112.883 159.388 112.888 159.901 112.894Z" fill="black"/>
<path fill-rule="evenodd" clip-rule="evenodd" d="M92.5243 106.305C91.9597 106.465 89.2341 106.766 89.2346 107.621C89.235 108.134 91.957 108.124 92.4387 108.18C92.4673 107.555 92.4958 106.93 92.5243 106.305ZM98.5406 112.207C100.111 112.505 102.243 112.086 103.247 110.701C103.717 110.054 103.939 109.07 104.092 108.298C104.238 107.562 104.688 105.726 104.382 105.036C104.006 104.189 100.397 105.074 99.3459 105.171C97.5124 105.34 95.6165 105.36 93.7818 105.241C93.7818 107.135 93.6849 108.981 94.7991 110.612C95.603 111.788 97.1126 112.066 98.5406 112.207ZM98.2249 114.547C96.5183 113.922 94.7266 114.328 93.6153 112.496C93.3333 112.031 93.0959 111.531 92.9253 111.015C92.8419 110.789 92.7771 110.557 92.731 110.32C92.8179 109.809 92.6308 109.665 92.1699 109.888C91.2653 109.712 90.2734 110.333 89.3206 110.15C87.0097 109.706 87.4295 106.396 88.9803 105.25C89.2867 105.023 89.5927 104.96 89.9434 104.848C90.7164 104.602 91.1348 104.877 91.8419 104.807C92.4133 104.751 92.5704 104.152 93.1844 103.888C93.5865 103.715 94.1446 103.729 94.5673 103.711C96.7793 103.62 98.9982 103.621 101.224 103.477C102.263 103.41 103.384 103.574 104.401 103.397C104.877 103.313 104.809 102.997 105.26 103.275C105.726 103.563 105.525 104.627 105.501 105.052C105.365 107.507 105.219 110.14 103.904 112.286C102.701 114.25 100.333 114.451 98.2249 114.547Z" fill="black"/>
<path fill-rule="evenodd" clip-rule="evenodd" d="M8.09659 115.223C8.64566 115.217 9.19457 115.212 9.74176 115.206C9.19201 115.212 8.6443 115.218 8.09659 115.223Z" fill="black"/>
<path fill-rule="evenodd" clip-rule="evenodd" d="M160.559 62.8783C160.558 62.3509 160.557 61.8235 160.556 61.2971C160.557 61.8249 160.558 62.3516 160.559 62.8783Z" fill="black"/>
<path fill-rule="evenodd" clip-rule="evenodd" d="M20.8899 65.0444C20.8881 65.5582 20.8864 66.072 20.8847 66.5845C20.8863 66.0704 20.888 65.5573 20.8899 65.0444Z" fill="black"/>
<path fill-rule="evenodd" clip-rule="evenodd" d="M66.5298 114.641C66.9667 114.642 67.4035 114.642 67.8383 114.643C67.4008 114.643 66.9655 114.642 66.5298 114.641Z" fill="black"/>
<path fill-rule="evenodd" clip-rule="evenodd" d="M40.006 114.536C40.4428 114.537 40.8795 114.539 41.3142 114.541C40.8767 114.539 40.4414 114.538 40.006 114.536Z" fill="black"/>
<path fill-rule="evenodd" clip-rule="evenodd" d="M135.512 93.199C135.493 93.5457 135.473 93.8924 135.454 94.2384C135.473 93.8913 135.493 93.5452 135.512 93.199Z" fill="black"/>
<path fill-rule="evenodd" clip-rule="evenodd" d="M159.901 112.893C159.564 112.89 159.226 112.886 158.889 112.883C159.228 112.741 159.565 112.748 159.901 112.893Z" fill="black"/>
<path fill-rule="evenodd" clip-rule="evenodd" d="M129.93 114.429C130.173 114.425 130.415 114.421 130.655 114.417C130.412 114.421 130.171 114.425 129.93 114.429Z" fill="black"/>
<path fill-rule="evenodd" clip-rule="evenodd" d="M160.428 67.1576C160.434 66.8955 160.44 66.6335 160.446 66.3723C160.44 66.6347 160.434 66.8961 160.428 67.1576Z" fill="black"/>
<path fill-rule="evenodd" clip-rule="evenodd" d="M137.77 34.0002C137.75 33.7298 137.731 33.4596 137.71 33.1899C137.731 33.4605 137.75 33.7303 137.77 34.0002Z" fill="black"/>
<path fill-rule="evenodd" clip-rule="evenodd" d="M160.548 63.911C160.551 63.64 160.554 63.3691 160.557 63.0991C160.554 63.3703 160.551 63.6407 160.548 63.911Z" fill="black"/>
<path fill-rule="evenodd" clip-rule="evenodd" d="M84.3554 114.093C84.5709 114.096 84.7863 114.099 84.9999 114.102C84.7841 114.098 84.5697 114.096 84.3554 114.093Z" fill="black"/>
<path fill-rule="evenodd" clip-rule="evenodd" d="M139.844 114.535C140.054 114.539 140.265 114.543 140.473 114.547C140.262 114.543 140.053 114.539 139.844 114.535Z" fill="black"/>
<path fill-rule="evenodd" clip-rule="evenodd" d="M162.59 95.48C162.575 95.2422 162.56 95.0046 162.545 94.7673C162.56 95.0051 162.575 95.2425 162.59 95.48Z" fill="black"/>
<path fill-rule="evenodd" clip-rule="evenodd" d="M158.81 114.766C158.981 114.765 159.152 114.764 159.322 114.763C159.15 114.764 158.98 114.765 158.81 114.766Z" fill="black"/>
<path fill-rule="evenodd" clip-rule="evenodd" d="M135.455 114.545C135.625 114.541 135.795 114.537 135.963 114.533C135.792 114.537 135.624 114.542 135.455 114.545Z" fill="black"/>
<path fill-rule="evenodd" clip-rule="evenodd" d="M97.3 114.416C97.4869 114.415 97.6737 114.414 97.8587 114.413C97.6715 114.414 97.4857 114.415 97.3 114.416Z" fill="black"/>
<path fill-rule="evenodd" clip-rule="evenodd" d="M54.2121 114.415C54.3896 114.416 54.5674 114.418 54.7431 114.419C54.5648 114.418 54.3884 114.417 54.2121 114.415Z" fill="black"/>
<path fill-rule="evenodd" clip-rule="evenodd" d="M43.73 114.444C43.9112 114.434 44.092 114.423 44.2714 114.414C44.0898 114.424 43.91 114.434 43.73 114.444Z" fill="black"/>
<path fill-rule="evenodd" clip-rule="evenodd" d="M93.9132 45.427C93.6437 45.4038 93.3742 45.3806 93.1047 45.3572C93.3745 45.3761 93.6599 45.2165 93.9132 45.427Z" fill="black"/>
<path fill-rule="evenodd" clip-rule="evenodd" d="M162.615 112.996C162.35 112.969 162.084 112.942 161.818 112.915C162.084 112.942 162.35 112.969 162.615 112.996Z" fill="black"/>
<path fill-rule="evenodd" clip-rule="evenodd" d="M144.079 47.0632C144.061 47.2961 144.043 47.5291 144.026 47.7612C144.044 47.528 144.061 47.2956 144.079 47.0632Z" fill="black"/>
<path fill-rule="evenodd" clip-rule="evenodd" d="M160.615 56.7709C160.633 56.5502 160.651 56.3295 160.669 56.1096C160.651 56.3307 160.633 56.5507 160.615 56.7709Z" fill="black"/>
<path fill-rule="evenodd" clip-rule="evenodd" d="M143.973 50.675C143.954 50.9075 143.935 51.1399 143.916 51.3715C143.935 51.1388 143.954 50.9069 143.973 50.675Z" fill="black"/>
<path fill-rule="evenodd" clip-rule="evenodd" d="M160.502 65.6813C160.5 65.4567 160.498 65.232 160.497 65.0081C160.642 65.232 160.636 65.4562 160.502 65.6813Z" fill="black"/>
<path fill-rule="evenodd" clip-rule="evenodd" d="M135.515 97.9421C135.513 98.1673 135.511 98.3926 135.509 98.6168C135.36 98.3897 135.39 98.1654 135.515 97.9421Z" fill="black"/>
<path fill-rule="evenodd" clip-rule="evenodd" d="M152.454 71.8916C152.428 71.6638 152.402 71.4357 152.376 71.2085C152.402 71.4367 152.428 71.6643 152.454 71.8916Z" fill="black"/>
<path fill-rule="evenodd" clip-rule="evenodd" d="M12.1977 50.9744C12.0215 51.2072 11.7815 51.0477 11.5721 51.076C11.7808 51.0421 11.9893 51.0083 12.1977 50.9744Z" fill="black"/>
<path fill-rule="evenodd" clip-rule="evenodd" d="M99.325 103.638C99.1024 103.639 98.8798 103.639 98.6572 103.639C98.8799 103.639 99.1024 103.639 99.325 103.638Z" fill="black"/>
<path fill-rule="evenodd" clip-rule="evenodd" d="M134.889 51.9312C134.91 52.1205 134.93 52.3098 134.951 52.4985C134.93 52.3088 134.91 52.12 134.889 51.9312Z" fill="black"/>
<path fill-rule="evenodd" clip-rule="evenodd" d="M24.8782 33.127C24.6544 33.1314 24.4306 33.1358 24.2068 33.1403C24.4282 33.0099 24.6513 32.9722 24.8782 33.127Z" fill="black"/>
<path fill-rule="evenodd" clip-rule="evenodd" d="M143.968 53.9502C143.953 54.1487 143.939 54.3471 143.924 54.5448C143.939 54.3463 143.953 54.1482 143.968 53.9502Z" fill="black"/>
<path fill-rule="evenodd" clip-rule="evenodd" d="M137.831 29.5783C137.848 29.3973 137.866 29.2163 137.883 29.0364C137.866 29.2177 137.848 29.398 137.831 29.5783Z" fill="black"/>
<path fill-rule="evenodd" clip-rule="evenodd" d="M136.072 29.0115C136.054 29.2078 136.037 29.4043 136.019 29.6C136.037 29.4033 136.054 29.2073 136.072 29.0115Z" fill="black"/>
<path fill-rule="evenodd" clip-rule="evenodd" d="M38.8639 15.8955C38.6362 15.9231 38.4085 15.9508 38.1809 15.9782C38.4086 15.9506 38.6362 15.9231 38.8639 15.8955Z" fill="black"/>
<path fill-rule="evenodd" clip-rule="evenodd" d="M22.4168 33.2832C22.1831 33.3071 21.9494 33.331 21.7159 33.3548C21.9496 33.331 22.1833 33.3071 22.4168 33.2832Z" fill="black"/>
<path fill-rule="evenodd" clip-rule="evenodd" d="M150.471 33.8587C150.486 33.676 150.5 33.4932 150.514 33.3115C150.5 33.4944 150.485 33.6765 150.471 33.8587Z" fill="black"/>
<path fill-rule="evenodd" clip-rule="evenodd" d="M14.7467 64.0085C14.8813 64.0106 15.0157 64.0125 15.1482 64.0145C15.0131 64.0125 14.8799 64.0106 14.7467 64.0085Z" fill="black"/>
<path fill-rule="evenodd" clip-rule="evenodd" d="M136.079 86.5559C136.066 86.7582 136.052 86.9603 136.039 87.1621C136.052 86.9598 136.066 86.7579 136.079 86.5559Z" fill="black"/>
<path fill-rule="evenodd" clip-rule="evenodd" d="M149.808 47.1872C149.802 46.9923 149.797 46.7975 149.791 46.603C149.797 46.7982 149.803 46.9926 149.808 47.1872Z" fill="black"/>
<path fill-rule="evenodd" clip-rule="evenodd" d="M44.5959 15.4343C44.3883 15.4343 44.1807 15.4345 43.9735 15.4345C44.1811 15.2919 44.3885 15.2955 44.5959 15.4343Z" fill="black"/>
<path fill-rule="evenodd" clip-rule="evenodd" d="M100.017 61.3226C99.7898 61.3284 99.5624 61.3342 99.3354 61.34C99.5586 61.1821 99.7862 61.1782 100.017 61.3226Z" fill="black"/>
<path fill-rule="evenodd" clip-rule="evenodd" d="M119.887 114.085C120.022 114.087 120.157 114.09 120.29 114.094C120.155 114.091 120.021 114.088 119.887 114.085Z" fill="black"/>
<path fill-rule="evenodd" clip-rule="evenodd" d="M124.963 114.322C125.097 114.317 125.232 114.312 125.364 114.308C125.229 114.312 125.096 114.317 124.963 114.322Z" fill="black"/>
<path fill-rule="evenodd" clip-rule="evenodd" d="M45.5279 114.415C45.6682 114.419 45.8086 114.422 45.9471 114.426C45.8062 114.422 45.6671 114.419 45.5279 114.415Z" fill="black"/>
<path fill-rule="evenodd" clip-rule="evenodd" d="M162.473 93.2243C162.454 93.0315 162.434 92.8386 162.413 92.6467C162.434 92.8398 162.454 93.0321 162.473 93.2243Z" fill="black"/>
<path fill-rule="evenodd" clip-rule="evenodd" d="M144.14 60.7305C144.156 60.9142 144.172 61.0979 144.188 61.2804C144.172 61.0965 144.156 60.9135 144.14 60.7305Z" fill="black"/>
<path fill-rule="evenodd" clip-rule="evenodd" d="M151.195 57.5764C151.173 57.3816 151.152 57.1868 151.13 56.9927C151.152 57.1876 151.173 57.3819 151.195 57.5764Z" fill="black"/>
<path fill-rule="evenodd" clip-rule="evenodd" d="M46.6667 114.531C46.8082 114.529 46.95 114.527 47.09 114.525C46.9478 114.528 46.8072 114.529 46.6667 114.531Z" fill="black"/>
<path fill-rule="evenodd" clip-rule="evenodd" d="M98.225 114.547C98.3628 114.54 98.5003 114.534 98.6364 114.528C98.4984 114.534 98.3616 114.541 98.225 114.547Z" fill="black"/>
<path fill-rule="evenodd" clip-rule="evenodd" d="M150.043 43.3525C150.037 43.1551 150.031 42.9578 150.025 42.7607C150.031 42.9583 150.037 43.1553 150.043 43.3525Z" fill="black"/>
<path fill-rule="evenodd" clip-rule="evenodd" d="M33.242 114.661C33.3802 114.66 33.5182 114.658 33.6544 114.657C33.5156 114.659 33.379 114.66 33.242 114.661Z" fill="black"/>
<path fill-rule="evenodd" clip-rule="evenodd" d="M149.986 114.658C150.128 114.66 150.27 114.661 150.41 114.663C150.267 114.662 150.127 114.66 149.986 114.658Z" fill="black"/>
<path fill-rule="evenodd" clip-rule="evenodd" d="M153.052 114.642C153.189 114.652 153.326 114.661 153.461 114.671C153.324 114.661 153.188 114.652 153.052 114.642Z" fill="black"/>
<path fill-rule="evenodd" clip-rule="evenodd" d="M154.291 114.639C154.43 114.643 154.57 114.648 154.708 114.651C154.568 114.646 154.429 114.643 154.291 114.639Z" fill="black"/>
<path fill-rule="evenodd" clip-rule="evenodd" d="M160.649 58.3586C160.64 58.1645 160.631 57.9702 160.622 57.7766C160.631 57.9711 160.64 58.1648 160.649 58.3586Z" fill="black"/>
<path fill-rule="evenodd" clip-rule="evenodd" d="M66.9471 112.095C67.3716 112.073 67.7964 112.05 68.2211 112.028C67.7964 112.05 67.3716 112.073 66.9471 112.095Z" fill="black"/>
<path fill-rule="evenodd" clip-rule="evenodd" d="M41.3292 41.5122C41.6978 41.5443 42.0664 41.5763 42.4346 41.6081C42.066 41.5762 41.6976 41.5441 41.3292 41.5122Z" fill="black"/>
<path fill-rule="evenodd" clip-rule="evenodd" d="M145.404 57.5378C145.415 57.8896 145.427 58.2413 145.438 58.592C145.427 58.2401 145.415 57.8891 145.404 57.5378Z" fill="black"/>
<path fill-rule="evenodd" clip-rule="evenodd" d="M153.011 112.696C153.395 112.72 153.78 112.743 154.165 112.766C153.778 112.784 153.385 112.894 153.011 112.696Z" fill="black"/>
<path fill-rule="evenodd" clip-rule="evenodd" d="M150.734 71.0924C150.736 70.7569 150.739 70.4213 150.742 70.0867C150.739 70.4224 150.736 70.7574 150.734 71.0924Z" fill="black"/>
<path fill-rule="evenodd" clip-rule="evenodd" d="M149.749 81.6338C150.087 81.6382 150.424 81.6428 150.762 81.6473C150.424 81.6427 150.087 81.6382 149.749 81.6338Z" fill="black"/>
<path fill-rule="evenodd" clip-rule="evenodd" d="M64.7547 75.7354C64.7462 75.991 64.7378 76.2467 64.7298 76.5012C64.7384 76.2452 64.7465 75.9904 64.7547 75.7354Z" fill="black"/>
<path fill-rule="evenodd" clip-rule="evenodd" d="M155.368 64.9084C155.354 65.1629 155.34 65.4173 155.327 65.6704C155.341 65.4157 155.355 65.1621 155.368 64.9084Z" fill="black"/>
<path fill-rule="evenodd" clip-rule="evenodd" d="M148.165 111.564C148.41 111.547 148.656 111.531 148.901 111.515C148.716 111.663 148.531 111.675 148.165 111.564Z" fill="black"/>
<path fill-rule="evenodd" clip-rule="evenodd" d="M146.521 78.3025C146.538 78.5768 146.555 78.8511 146.572 79.1245C146.555 78.85 146.538 78.5763 146.521 78.3025Z" fill="black"/>
<path fill-rule="evenodd" clip-rule="evenodd" d="M54.6816 35.0105C54.6842 34.7456 54.6867 34.4807 54.6895 34.2168C54.6869 34.482 54.6843 34.7463 54.6816 35.0105Z" fill="black"/>
<path fill-rule="evenodd" clip-rule="evenodd" d="M146.818 81.6894L147.734 81.6694C147.432 81.8154 147.126 81.8206 146.818 81.6894Z" fill="black"/>
<path fill-rule="evenodd" clip-rule="evenodd" d="M155.264 83.644C155.048 83.6459 154.833 83.6476 154.618 83.6498C154.835 83.6481 155.05 83.6461 155.264 83.644Z" fill="black"/>
<path fill-rule="evenodd" clip-rule="evenodd" d="M76.2083 111.669C76.5072 111.673 76.806 111.677 77.1049 111.681C76.8038 111.832 76.5046 111.853 76.2083 111.669Z" fill="black"/>
<path fill-rule="evenodd" clip-rule="evenodd" d="M145.509 59.7969C145.524 60.0722 145.539 60.3475 145.554 60.6219C145.539 60.3463 145.524 60.0717 145.509 59.7969Z" fill="black"/>
<path fill-rule="evenodd" clip-rule="evenodd" d="M48.7021 42.1583C48.9577 42.0323 49.2155 42.0111 49.4758 42.1447C49.2177 42.1493 48.96 42.1539 48.7021 42.1583Z" fill="black"/>
<path fill-rule="evenodd" clip-rule="evenodd" d="M137.145 62.9756C137.166 63.2077 137.188 63.4401 137.209 63.6715C137.187 63.439 137.166 63.2072 137.145 62.9756Z" fill="black"/>
<path fill-rule="evenodd" clip-rule="evenodd" d="M158.744 57.5571C158.613 57.3299 158.617 57.1038 158.751 56.8799C158.748 57.1059 158.746 57.3316 158.744 57.5571Z" fill="black"/>
<path fill-rule="evenodd" clip-rule="evenodd" d="M145.551 49.6697C145.551 49.8994 145.551 50.1294 145.551 50.3585C145.551 50.1282 145.551 49.8989 145.551 49.6697Z" fill="black"/>
<path fill-rule="evenodd" clip-rule="evenodd" d="M154.716 81.5241C154.98 81.4434 155.243 81.3293 155.505 81.5268C155.242 81.526 154.979 81.5249 154.716 81.5241Z" fill="black"/>
<path fill-rule="evenodd" clip-rule="evenodd" d="M33.3627 111.992C33.6052 111.885 33.8473 111.829 34.0862 112C33.8449 111.997 33.6039 111.994 33.3627 111.992Z" fill="black"/>
<path fill-rule="evenodd" clip-rule="evenodd" d="M82.9757 111.649C83.2351 111.536 83.4939 111.474 83.7499 111.657C83.4917 111.655 83.2338 111.652 82.9757 111.649Z" fill="black"/>
<path fill-rule="evenodd" clip-rule="evenodd" d="M25.239 78.0933C25.2584 78.3275 25.278 78.5617 25.2973 78.7952C25.2777 78.5608 25.2582 78.3271 25.239 78.0933Z" fill="black"/>
<path fill-rule="evenodd" clip-rule="evenodd" d="M85.4551 64.6036C85.7103 64.5108 85.9646 64.4623 86.2152 64.6174C85.9617 64.6126 85.7084 64.6082 85.4551 64.6036Z" fill="black"/>
<path fill-rule="evenodd" clip-rule="evenodd" d="M145.505 71.575C145.519 71.8039 145.533 72.0328 145.547 72.2612C145.533 72.0321 145.519 71.8035 145.505 71.575Z" fill="black"/>
<path fill-rule="evenodd" clip-rule="evenodd" d="M25.0736 50.9199C25.0525 51.1043 25.0313 51.2889 25.0103 51.4722C25.0315 51.2875 25.0525 51.1038 25.0736 50.9199Z" fill="black"/>
<path fill-rule="evenodd" clip-rule="evenodd" d="M10.2832 104.393C10.2701 104.573 10.2571 104.752 10.2442 104.931C10.2576 104.751 10.2704 104.572 10.2832 104.393Z" fill="black"/>
<path fill-rule="evenodd" clip-rule="evenodd" d="M150.847 72.7864C150.833 72.6008 150.818 72.4152 150.804 72.2305C150.818 72.4164 150.833 72.6015 150.847 72.7864Z" fill="black"/>
<path fill-rule="evenodd" clip-rule="evenodd" d="M64.6691 77.3147C64.7115 77.4498 64.754 77.5851 64.7965 77.7203C64.5128 77.7889 64.4703 77.6536 64.6691 77.3147Z" fill="black"/>
<path fill-rule="evenodd" clip-rule="evenodd" d="M81.7179 64.2983C81.9489 64.2973 82.1798 64.2964 82.4108 64.2954C82.1802 64.4049 81.9494 64.4801 81.7179 64.2983Z" fill="black"/>
<path fill-rule="evenodd" clip-rule="evenodd" d="M25.3685 79.2021C25.3764 79.4068 25.3842 79.6117 25.3917 79.8157C25.3837 79.6108 25.376 79.4065 25.3685 79.2021Z" fill="black"/>
<path fill-rule="evenodd" clip-rule="evenodd" d="M137.706 81.3601C137.714 81.5486 137.722 81.7371 137.731 81.9245C137.723 81.7355 137.714 81.5479 137.706 81.3601Z" fill="black"/>
<path fill-rule="evenodd" clip-rule="evenodd" d="M23.0786 112.445C23.2978 112.3 23.5175 112.312 23.7375 112.443C23.5178 112.444 23.2981 112.444 23.0786 112.445Z" fill="black"/>
<path fill-rule="evenodd" clip-rule="evenodd" d="M28.8504 48.2866C28.8621 48.479 28.8741 48.6716 28.8864 48.8628C28.8746 48.6701 28.8625 48.4783 28.8504 48.2866Z" fill="black"/>
<path fill-rule="evenodd" clip-rule="evenodd" d="M21.9385 112.465C22.1664 112.466 22.3943 112.467 22.622 112.468C22.3935 112.623 22.1657 112.631 21.9385 112.465Z" fill="black"/>
<path fill-rule="evenodd" clip-rule="evenodd" d="M148.126 45.2664C148.128 45.0709 148.13 44.8756 148.131 44.6807C148.13 44.8763 148.128 45.0713 148.126 45.2664Z" fill="black"/>
<path fill-rule="evenodd" clip-rule="evenodd" d="M43.5052 41.8481C43.7232 41.8766 43.9412 41.9051 44.159 41.9334C43.941 41.9049 43.723 41.8766 43.5052 41.8481Z" fill="black"/>
<path fill-rule="evenodd" clip-rule="evenodd" d="M24.2688 58.7178C24.2717 58.9003 24.2746 59.083 24.278 59.2646C24.2751 59.0818 24.2721 58.8998 24.2688 58.7178Z" fill="black"/>
<path fill-rule="evenodd" clip-rule="evenodd" d="M149.594 58.6914C149.582 58.5055 149.57 58.3196 149.558 58.1345C149.57 58.3208 149.582 58.5062 149.594 58.6914Z" fill="black"/>
<path fill-rule="evenodd" clip-rule="evenodd" d="M98.7511 112.247C99.0201 112.271 99.2891 112.296 99.5579 112.32C99.2889 112.295 99.0201 112.271 98.7511 112.247Z" fill="black"/>
<path fill-rule="evenodd" clip-rule="evenodd" d="M97.852 105.283C97.7065 105.286 97.5614 105.288 97.4172 105.291C97.5631 105.289 97.7076 105.286 97.852 105.283Z" fill="black"/>
<path fill-rule="evenodd" clip-rule="evenodd" d="M97.8643 112.14C98.0898 112.163 98.3156 112.185 98.5411 112.207C98.3154 112.185 98.0898 112.163 97.8643 112.14Z" fill="black"/>
<path fill-rule="evenodd" clip-rule="evenodd" d="M57.2642 96.9476C57.5578 98.6062 54.9801 100.228 54.7757 97.8705C54.701 97.0083 55.2775 96.4021 55.9232 95.875C56.8395 95.1271 57.3514 95.8433 57.2642 96.9476Z" fill="black"/>
<path fill-rule="evenodd" clip-rule="evenodd" d="M28.8515 76.7114C29.4588 76.96 34.0982 78.4717 31.6883 79.2322C31.0504 79.4334 30.0861 79.4634 29.5331 79.1088C28.8679 78.6821 28.1969 77.4227 28.8515 76.7114Z" fill="black"/>
<path fill-rule="evenodd" clip-rule="evenodd" d="M29.9933 54.2497C31.568 54.0669 33.0189 56.6533 31.0774 56.5694C29.6642 56.5081 27.7637 54.2497 29.9933 54.2497Z" fill="black"/>
<path fill-rule="evenodd" clip-rule="evenodd" d="M35.6265 60.5913C36.9414 61.7386 34.5041 64.3062 33.5364 63.3125C33.0423 62.8048 33.4981 61.7113 33.9059 61.2866C34.3245 60.8508 35.0692 60.7689 35.6265 60.5913Z" fill="black"/>
<path fill-rule="evenodd" clip-rule="evenodd" d="M39.5414 90.3339C38.7651 90.4572 35.3512 91.5728 36.0632 89.5465C36.3348 88.7738 37.0921 89.0031 37.7845 89.0386C38.9004 89.0955 39.5414 89.0421 39.5414 90.3339Z" fill="black"/>
<path fill-rule="evenodd" clip-rule="evenodd" d="M37.2923 95.553C38.4544 96.1747 36.7557 99.6541 35.7924 98.9138C34.456 97.8866 36.2839 95.8655 37.2923 95.553Z" fill="black"/>
<path fill-rule="evenodd" clip-rule="evenodd" d="M42.3611 92.7559C42.9262 92.5251 45.59 95.0874 44.576 95.8002C44.0562 96.1656 43.0715 95.5393 42.7582 95.1616C42.1707 94.4534 42.1175 93.5797 42.3611 92.7559Z" fill="black"/>
<path fill-rule="evenodd" clip-rule="evenodd" d="M26.992 71.8123C27.5695 71.9071 28.5667 71.9371 28.6041 72.7487C28.6368 73.462 27.7425 73.6932 27.1129 73.7491C26.4596 73.8071 25.5948 73.6227 25.5824 72.8014C25.5692 71.9153 26.9715 71.9687 26.992 71.8123Z" fill="black"/>
<path fill-rule="evenodd" clip-rule="evenodd" d="M41.2338 107.13C41.8489 107.503 44.7179 108.847 43.4881 109.819C43.0279 110.182 41.6328 109.432 41.3188 109.05C40.944 108.595 40.5778 107.528 41.2338 107.13Z" fill="black"/>
<path fill-rule="evenodd" clip-rule="evenodd" d="M49.2098 97.374C49.1209 95.89 51.6246 95.2993 51.1055 97.4057C50.9592 97.9996 50.8176 98.9011 50.0833 98.9356C49.2154 98.9763 49.184 97.9495 49.2098 97.374Z" fill="black"/>
<path fill-rule="evenodd" clip-rule="evenodd" d="M41.4757 71.5681C41.4931 72.6938 39.3361 73.6866 39.3193 71.9022C39.3045 70.3077 41.5562 69.841 41.4757 71.5681Z" fill="black"/>
<path fill-rule="evenodd" clip-rule="evenodd" d="M40.0512 65.7046C40.5827 65.8758 41.289 65.964 41.3357 66.6393C41.3854 67.354 40.7215 67.6721 40.1242 67.6321C39.6343 67.5991 38.9093 67.2365 38.8203 66.705C38.6898 65.9248 39.4513 65.8738 40.0512 65.7046Z" fill="black"/>
<path fill-rule="evenodd" clip-rule="evenodd" d="M30.1681 86.3155C30.1591 85.3865 32.0207 84.2701 32.3636 85.348C32.4732 85.6929 31.5958 87.2395 31.304 87.3553C30.5318 87.6618 30.424 86.9474 30.1681 86.3155Z" fill="black"/>
<path fill-rule="evenodd" clip-rule="evenodd" d="M45.4229 101.777C44.7938 102.34 42.9068 103.922 43.0478 101.798C43.1379 100.442 45.5889 100.513 45.4229 101.777Z" fill="black"/>
<path fill-rule="evenodd" clip-rule="evenodd" d="M76.1675 107.845C76.3737 106.953 79.326 108.501 78.3408 109.629C78.0102 110.007 77.1456 109.665 76.8131 109.441C76.1552 108.997 76.1409 108.587 76.1675 107.845Z" fill="black"/>
<path fill-rule="evenodd" clip-rule="evenodd" d="M59.7183 88.7345C59.8334 88.3365 59.9613 87.6328 60.341 87.3788C61.0281 86.9193 61.6263 87.6125 61.6265 88.343C61.6266 89.7059 60.0753 90.1357 59.7183 88.7345Z" fill="black"/>
<path fill-rule="evenodd" clip-rule="evenodd" d="M52.4012 104.669C53.1677 104.845 54.8745 106.708 53.8847 107.468C52.932 108.2 51.665 105.226 52.4012 104.669Z" fill="black"/>
<path fill-rule="evenodd" clip-rule="evenodd" d="M53.1312 90.5649C54.1168 90.6436 55.4715 92.2396 53.9395 92.4933C52.7413 92.6918 51.3477 90.9559 53.1312 90.5649Z" fill="black"/>
<path fill-rule="evenodd" clip-rule="evenodd" d="M62.0534 97.9094C62.3006 97.0768 64.7449 97.9689 64.6076 98.8856C64.5346 99.3729 63.5352 99.4874 63.0098 99.3586C62.2365 99.1687 62.0357 98.6615 62.0534 97.9094Z" fill="black"/>
<path fill-rule="evenodd" clip-rule="evenodd" d="M33.2414 51.41C33.2591 50.3337 35.3273 49.895 35.4788 50.9796C35.6157 51.9596 33.2154 53.0023 33.2414 51.41Z" fill="black"/>
<path fill-rule="evenodd" clip-rule="evenodd" d="M61.3708 109C61.5199 108.459 61.5842 107.807 62.2602 107.736C63.0342 107.654 63.0114 108.248 62.9204 108.863C62.6728 110.537 61.7271 110.62 61.3708 109Z" fill="black"/>
<path fill-rule="evenodd" clip-rule="evenodd" d="M28.7097 64.216C27.6315 64.4592 25.6568 62.3826 26.8637 61.9371C27.7142 61.6227 28.7097 63.5894 28.7097 64.216Z" fill="black"/>
<path fill-rule="evenodd" clip-rule="evenodd" d="M42.462 80.3459C41.9133 80.6043 41.7869 80.7611 41.3654 80.3371C40.9983 79.9678 41.0145 78.9389 41.3296 78.5547C42.5362 77.0837 42.5079 79.7506 42.462 80.3459Z" fill="black"/>
<path fill-rule="evenodd" clip-rule="evenodd" d="M46.9385 77.3625C47.5107 77.4354 49.2112 79.0483 48.3257 79.6893C47.2407 80.4747 46.6268 78.0145 46.9385 77.3625Z" fill="black"/>
<path fill-rule="evenodd" clip-rule="evenodd" d="M59.3204 77.7872C58.9043 79.3891 57.8661 78.3112 57.9249 77.0991C58.0194 75.1577 59.0954 76.8486 59.3204 77.7872Z" fill="black"/>
<path fill-rule="evenodd" clip-rule="evenodd" d="M65.6338 103.514C66.3376 103.805 67.2928 106.496 66.2876 106.64C65.1586 106.802 65.5345 104.074 65.6338 103.514Z" fill="black"/>
<path fill-rule="evenodd" clip-rule="evenodd" d="M56.8447 102.002C57.65 101.731 57.9451 103.429 57.477 103.745C56.4473 104.439 56.6644 102.403 56.8447 102.002Z" fill="black"/>
<path fill-rule="evenodd" clip-rule="evenodd" d="M49.2097 97.374C49.1995 97.5995 49.1894 97.825 49.1788 98.0492C49.1889 97.8233 49.1991 97.5987 49.2097 97.374Z" fill="black"/>
<path fill-rule="evenodd" clip-rule="evenodd" d="M76.1679 107.845C76.1595 108.077 76.1512 108.308 76.1425 108.538C76.1505 108.306 76.1592 108.076 76.1679 107.845Z" fill="black"/>
<path fill-rule="evenodd" clip-rule="evenodd" d="M62.0539 97.9094C62.0495 98.1056 62.0447 98.3017 62.0396 98.4967C62.044 98.3 62.0492 98.1047 62.0539 97.9094Z" fill="black"/>
<path fill-rule="evenodd" clip-rule="evenodd" d="M151.126 94.5336C152.796 94.4801 154.658 93.8517 156.299 94.0516C156.75 94.1067 157.79 94.2205 157.067 94.8903C156.72 95.2106 155.064 95.045 154.562 95.1513C151.497 95.8003 148.017 96.2189 144.874 96.1648C143.403 96.1396 141.92 96.0217 140.45 95.9439C138.98 95.8661 138.836 95.269 140.489 95.0789C142.207 94.8818 143.969 94.9549 145.695 94.9529C147.51 94.9505 149.315 94.6547 151.126 94.5336Z" fill="black"/>
<path fill-rule="evenodd" clip-rule="evenodd" d="M154.791 90.5112C154.631 90.9687 154.49 92.0187 153.874 92.0876C153.011 92.184 152.869 90.7033 152.9 90.1617C152.939 89.5081 153.174 88.4222 153.987 88.6487C154.673 88.8398 154.742 89.9881 154.791 90.5112Z" fill="black"/>
<path fill-rule="evenodd" clip-rule="evenodd" d="M149.57 90.1761C149.697 89.6862 149.758 88.5816 150.451 88.5441C151.226 88.5023 151.447 89.6531 151.442 90.2046C151.437 90.7281 151.243 91.7169 150.626 91.8378C149.791 92.0018 149.716 90.7359 149.57 90.1761Z" fill="black"/>
<path fill-rule="evenodd" clip-rule="evenodd" d="M140.875 91.055C140.624 91.6438 140.458 92.4549 139.682 92.0533C139.082 91.7429 138.998 90.4907 139.111 89.9174C139.228 89.3235 139.477 88.6422 140.159 88.9093C140.946 89.2176 140.867 90.4066 140.875 91.055Z" fill="black"/>
<path fill-rule="evenodd" clip-rule="evenodd" d="M147.46 90.511C146.72 92.7546 145.37 91.2367 145.883 89.5616C146.419 87.8109 147.392 89.5113 147.46 90.511Z" fill="black"/>
<path fill-rule="evenodd" clip-rule="evenodd" d="M143.854 90.6222C143.649 91.0172 143.43 91.8694 142.876 91.7797C142.197 91.6695 142.175 90.3624 142.249 89.8756C142.314 89.4495 142.506 88.7394 143.074 88.7486C143.896 88.7619 143.841 90.1108 143.854 90.6222Z" fill="black"/>
<path fill-rule="evenodd" clip-rule="evenodd" d="M158.617 91.0528C158.067 92.289 157.309 91.2241 157.551 90.3461C157.911 89.0441 158.586 90.1977 158.617 91.0528Z" fill="black"/>
<path fill-rule="evenodd" clip-rule="evenodd" d="M145.125 94.9545C144.523 94.9521 143.921 94.9499 143.319 94.9477C143.922 94.8343 144.524 94.7901 145.125 94.9545Z" fill="black"/>
<path fill-rule="evenodd" clip-rule="evenodd" d="M157.082 94.0465C156.56 94.0499 156.038 94.0531 155.516 94.0565C156.037 93.9003 156.559 93.8969 157.082 94.0465Z" fill="black"/>
<path fill-rule="evenodd" clip-rule="evenodd" d="M140.875 91.0549C140.871 90.7551 140.867 90.4552 140.864 90.156C141.018 90.4542 141.007 90.7537 140.875 91.0549Z" fill="black"/>
<path fill-rule="evenodd" clip-rule="evenodd" d="M144.15 96.1584C144.392 96.1607 144.634 96.1627 144.874 96.1649C144.631 96.1627 144.391 96.1607 144.15 96.1584Z" fill="black"/>
<path fill-rule="evenodd" clip-rule="evenodd" d="M142.094 94.9802C141.752 95.0082 141.411 95.0362 141.07 95.0641C141.411 95.0362 141.752 95.0082 142.094 94.9802Z" fill="black"/>
<path fill-rule="evenodd" clip-rule="evenodd" d="M146.706 94.9504C146.369 94.9511 146.032 94.9518 145.695 94.9525C146.032 94.8106 146.369 94.8065 146.706 94.9504Z" fill="black"/>
<path fill-rule="evenodd" clip-rule="evenodd" d="M143.854 90.6222C143.846 90.3097 143.838 89.9972 143.83 89.6851C143.838 89.9977 143.846 90.31 143.854 90.6222Z" fill="black"/>
<path fill-rule="evenodd" clip-rule="evenodd" d="M139.112 89.9172C139.11 90.2221 139.108 90.5269 139.105 90.8305C139.107 90.5253 139.109 90.2214 139.112 89.9172Z" fill="black"/>
<path fill-rule="evenodd" clip-rule="evenodd" d="M153.041 94.4202C152.743 94.4471 152.445 94.4739 152.148 94.5009C152.445 94.4739 152.743 94.4471 153.041 94.4202Z" fill="black"/>
<path fill-rule="evenodd" clip-rule="evenodd" d="M158.617 91.0529C158.608 90.7866 158.598 90.5203 158.589 90.2544C158.598 90.5208 158.608 90.7868 158.617 91.0529Z" fill="black"/>
<path fill-rule="evenodd" clip-rule="evenodd" d="M145.949 96.1672C146.157 96.1633 146.364 96.1593 146.569 96.1558C146.361 96.1599 146.155 96.1636 145.949 96.1672Z" fill="black"/>
<path fill-rule="evenodd" clip-rule="evenodd" d="M154.792 90.5111C154.773 90.3197 154.755 90.1282 154.737 89.9375C154.755 90.1292 154.774 90.3201 154.792 90.5111Z" fill="black"/>
<path fill-rule="evenodd" clip-rule="evenodd" d="M147.46 90.511C147.447 90.3145 147.433 90.1179 147.42 89.9219C147.433 90.1185 147.447 90.3149 147.46 90.511Z" fill="black"/>
<path fill-rule="evenodd" clip-rule="evenodd" d="M40.573 32.767C39.7578 32.5531 39.605 31.4076 39.736 30.704C39.8846 30.3649 40.0332 30.0259 40.1817 29.6868C40.1236 29.5615 40.0656 29.4361 40.0076 29.3107C40.0821 28.6124 39.8916 28.3089 40.6941 28.5917C42.1849 29.1175 42.4232 32.7131 40.573 32.767Z" fill="black"/>
<path fill-rule="evenodd" clip-rule="evenodd" d="M52.6399 30.5521C53.3114 30.4992 54.5312 31.2813 53.8627 32.038C53.4486 32.5067 52.0838 32.285 51.5271 32.3829C50.7886 32.5127 50.0185 32.6902 50.418 31.5842C50.7317 30.7157 51.852 30.5294 52.6399 30.5521Z" fill="black"/>
<path fill-rule="evenodd" clip-rule="evenodd" d="M51.9331 35.7543C51.251 35.2073 51.5555 32.7158 52.5936 33.164C53.6615 33.6254 52.5023 35.3948 51.9331 35.7543Z" fill="black"/>
<path fill-rule="evenodd" clip-rule="evenodd" d="M39.7364 30.7041C39.7364 30.9663 39.7362 31.2286 39.7357 31.4896C39.5934 31.2269 39.5979 30.9654 39.7364 30.7041Z" fill="black"/>
<path fill-rule="evenodd" clip-rule="evenodd" d="M40.5732 32.7672C40.7123 32.7633 40.8514 32.7592 40.9888 32.7556C40.8491 32.7601 40.7112 32.7636 40.5732 32.7672Z" fill="black"/>
<path fill-rule="evenodd" clip-rule="evenodd" d="M124.799 104.521C124.735 105.655 123.518 104.817 123.605 104.059C123.761 102.683 124.539 104.042 124.799 104.521Z" fill="black"/>
</svg>
