<svg width="180" height="121" viewBox="0 0 180 121" fill="none" xmlns="http://www.w3.org/2000/svg">
<path fill-rule="evenodd" clip-rule="evenodd" d="M171.396 40.5497C171.193 42.1248 171.338 43.8417 169.559 44.2566C167.914 44.6408 166.108 44.5335 164.431 44.6678C162.546 44.8191 160.666 45.0263 158.784 45.2127C156.413 45.4475 156.751 44.536 156.233 42.5108C155.759 40.6615 155.002 38.8152 154.373 37.0117C154.081 36.173 153.732 35.4021 153.333 34.6119C152.972 33.8967 153.144 32.9237 152.755 32.3226C151.427 30.2715 144.951 35.8805 144.348 34.7748C145.445 33.9218 147.341 32.9674 147.677 31.5077C148.072 29.7922 146.982 29.28 145.612 29.9072C142.241 31.4513 138.35 32.6582 134.674 33.2209C135.863 32.4262 146.617 26.1627 143.008 24.3048C142.195 23.8861 141.108 24.6743 140.375 24.9725C139.21 25.4459 137.994 25.7632 136.779 26.0734C135.498 26.4002 134.214 26.7147 132.926 27.0119C132.023 27.2204 130.413 27.961 129.533 27.7782C128.64 27.5925 130.222 27.0379 130.481 26.9073C131.611 26.338 132.723 25.7264 133.827 25.107C135.783 24.008 137.591 22.7349 139.08 21.0357C140.203 19.7535 142.058 16.9537 141.276 15.1808C140.823 14.1531 139.83 13.2033 139.246 12.2297C138.565 11.0926 138.015 9.88045 137.424 8.69575C138.414 9.13103 139.525 9.24246 140.536 9.63318C141.547 10.0241 142.573 10.3405 143.625 10.6312C145.734 11.2141 147.838 11.3177 149.928 11.7905C152.295 12.3255 154.76 12.9237 157.164 13.233C159.258 13.5018 161.14 14.0746 162.934 15.2157C166.596 17.5467 169.137 20.8953 170.422 25.0363C171.175 27.4621 171.358 29.9932 171.447 32.5171C171.54 35.178 171.737 37.9006 171.396 40.5497ZM150.84 40.7456C148.282 42.61 145.301 44.0664 142.556 45.6528C140.985 46.5599 139.381 47.4073 137.779 48.2579C136.642 48.8612 135.261 49.9717 134.009 50.2812C133.218 50.4771 133.277 50.4921 132.776 49.7702C132.297 49.0816 131.879 48.3396 131.431 47.6296C130.604 46.3213 129.77 45.0175 128.936 43.7136C127.066 40.7914 125.2 37.8698 123.235 35.0098C121.264 32.1395 119.373 29.2168 117.464 26.3061C116.577 24.9529 115.695 23.5945 114.753 22.2785C114.034 21.2736 112.19 19.7409 113.066 18.5578C113.878 17.4587 115.731 16.5458 116.827 15.7139C118.166 14.6983 119.513 13.6931 120.848 12.6723C123.719 10.4778 126.515 8.18777 129.383 5.99037C131.817 10.2591 134.681 14.261 137.57 18.2297C134.958 19.8963 132.319 21.4805 129.566 22.9073C127.533 23.9611 124.423 25.385 123.139 27.384C121.874 29.3523 123.117 31.6234 125.371 31.6596C126.72 31.6811 128.064 31.324 129.386 31.12C130.34 30.9727 132.083 30.2848 132.943 30.7697C131.397 31.7564 125.786 34.6318 128.81 37.1529C130.972 38.9552 134.628 36.3249 136.963 36.8667C136.251 38.2321 135.511 40.411 137.487 41.1543C139.131 41.7726 141.284 40.62 142.763 40.0086C143.833 39.5673 144.895 39.1109 145.947 38.6288C146.783 38.2452 147.784 37.4687 148.678 37.303C149.72 37.1096 151.843 40.0149 150.84 40.7456ZM103.292 141.419C104.755 141.153 105.507 140.548 105.967 142.324C106.381 143.915 106.79 145.448 107.322 147.01C105.036 147.207 103.02 148.298 101.353 149.833C100.166 150.927 97.8048 153.538 98.3898 155.369C99.8117 159.82 106.993 149.835 107.847 148.768C108.892 150.295 109.276 152.293 109.795 154.039C110.165 155.282 111.536 157.663 109.723 157.965C107.178 158.39 102.402 159.338 102.704 162.941C103.06 167.196 108.473 167.172 111.511 167.363C113.222 167.471 113.231 168.842 113.474 170.377C113.583 171.064 113.924 171.992 113.341 172.495C112.823 172.94 111.238 172.953 110.564 173.097C108.6 173.519 106.637 173.949 104.674 174.37C102.444 174.848 101.265 174.178 99.1808 173.567C98.4093 173.341 97.634 173.437 97.5775 172.573C97.5424 172.043 98.0615 171.223 98.231 170.699C98.904 168.625 99.4765 166.49 99.6698 164.312C99.9511 161.147 99.5995 156.402 95.7018 155.784C93.848 155.491 93.4915 155.395 92.654 153.655C91.7488 151.774 90.3112 150.031 90.6584 147.863C90.9101 146.293 90.4858 143.321 91.4883 142.018C91.9522 141.416 92.8555 141.057 93.472 140.615C94.2579 140.051 95.015 139.448 95.7476 138.817C96.3634 138.286 97.1142 137.249 97.8129 136.866C98.6661 136.397 98.6924 136.716 99.3051 137.448C100.21 138.529 101.648 141.72 103.292 141.419ZM107.428 148.45C106.921 149.474 105.749 150.425 105.003 151.28C104.252 152.139 103.541 153.047 102.703 153.826C101.782 154.683 98.5072 156.754 99.2285 153.966C99.7904 151.799 101.89 150.043 103.739 148.961C104.097 148.752 108.286 146.719 107.428 148.45ZM111.01 158.771C111.335 160.221 111.509 161.717 111.787 163.178C111.929 163.925 112.715 165.73 112.394 166.449C111.851 167.667 106.966 166.225 105.954 165.806C103.544 164.808 102.437 162.247 104.66 160.423C105.503 159.732 110.686 157.32 111.01 158.771ZM114.212 176.196C114.485 177.581 115.281 178.865 113.965 179.912C112.872 180.782 111.082 181.375 109.736 181.684C107.901 182.106 107.311 181.078 106.34 179.756C105.295 178.334 104.183 176.961 103.03 175.625C106.652 174.815 110.275 174.004 113.898 173.193C113.895 174.202 114.018 175.207 114.212 176.196ZM105.532 182.624C103.644 182.527 101.611 183.095 99.6949 183.245C97.3019 183.431 94.9165 183.703 92.5216 183.864C93.1349 181.907 94.2372 180.161 95.0991 178.312C95.9642 176.457 96.5712 176.256 98.5606 176.113C100.404 175.981 101.704 175.346 103.065 176.91C104.48 178.536 105.762 180.303 107.055 182.027C106.615 182.322 106.09 182.654 105.532 182.624ZM92.0288 183.024C91.5624 183.364 90.1254 182.398 89.6408 182.211C88.6985 181.847 88.4895 181.73 87.998 180.811C87.5755 180.021 86.9032 179.123 86.7707 178.221C86.5962 177.033 87.1222 175.467 87.3137 174.286C87.8241 175.515 89.4983 175.659 90.6295 175.859C91.4852 176.012 94.0207 175.769 94.666 176.379C95.3785 177.052 94.0665 178.929 93.7243 179.636C93.3163 180.48 92.8122 182.453 92.0288 183.024ZM91.1154 183.999C90.5548 184.09 88.9402 184.648 88.9722 183.624C89.0087 182.453 91.2297 183.716 91.1154 183.999ZM88.2704 183.938C88.1681 184.923 86.0475 184.841 85.9992 183.974C85.9163 182.51 88.4336 182.364 88.2704 183.938ZM85.846 157.367C85.3036 158.911 82.0016 159.463 80.7336 159.938C79.5754 160.373 76.1152 162.376 74.9212 161.65C78.9633 158.872 83.1059 156.15 86.5309 152.603C86.6709 153.479 86.4575 154.211 86.1994 155.04C85.9659 155.789 86.0858 156.683 85.846 157.367ZM84.8404 162.997C84.259 166.778 83.6878 170.61 82.9006 174.353C81.4009 173.896 80.1642 172.967 78.5879 172.643C77.1497 172.348 75.6644 172.341 74.2143 172.556C71.1245 173.016 68.3699 174.544 65.6743 176.033C65.4251 173.439 64.9091 170.664 64.9706 168.062C65.0208 165.9 68.7208 165.26 70.3995 164.367C71.4145 163.827 72.3329 163.067 73.4893 162.879C74.6801 162.684 75.8283 162.69 77.0047 162.328C79.7844 161.47 82.4009 160.11 85.1247 159.097C85.347 160.395 85.0381 161.717 84.8404 162.997ZM82.2427 179.001C82.119 179.861 82.2753 181.395 81.62 182.05C81.0029 182.667 79.6852 182.688 78.8717 182.855C76.3933 183.365 73.9168 183.88 71.4422 184.405C70.3348 184.64 69.2274 184.865 68.1157 185.076C67.5852 185.176 66.255 185.684 65.8087 185.263C65.3849 184.861 65.7001 183.581 65.7227 183.045C65.7685 181.972 65.8294 180.896 65.7616 179.823C65.6329 177.765 65.7472 176.977 67.6631 175.912C69.6989 174.78 71.8012 174.006 74.0925 173.586C76.4121 173.162 78.6218 173.394 80.8296 174.284C81.4442 174.532 82.3657 174.837 82.652 175.5C83.0406 176.401 82.3739 178.088 82.2427 179.001ZM79.4523 212.178C78.544 212.748 76.5672 212.651 75.5238 212.766C73.8383 212.953 72.1427 212.846 70.4685 212.586C69.2086 212.391 67.3278 212.12 66.3617 211.235C64.9894 209.979 66.5733 209.921 67.6235 210.009C70.6763 210.266 73.768 210.087 76.8183 209.866C77.4121 209.824 79.0085 209.302 79.581 209.546C80.313 209.858 80.0889 211.78 79.4523 212.178ZM77.7216 232.49C72.0329 231.937 68.7353 227.227 66.6718 222.413C65.5651 219.828 65.9644 217.116 65.8551 214.382C65.835 213.883 65.5218 212.644 66.0347 212.271C66.5174 211.921 68.4685 213.004 68.9964 213.134C71.702 213.797 74.6946 213.86 77.4058 213.216C78.5804 212.937 79.2383 212.418 79.6118 213.582C79.9118 214.52 79.4191 216.247 79.3651 217.229C79.2722 218.929 79.5383 232.666 77.7216 232.49ZM66.358 232.495C66.336 231.67 65.9198 223.333 66.3234 223.308C67.5237 225.897 68.7566 228.212 70.9412 230.116C72.0574 231.089 73.3122 231.966 74.7077 232.489C75.2325 232.685 78.2037 232.834 78.3494 233.484C78.6042 234.622 76.5753 234.163 75.9739 234.071C75.4912 233.996 75.0568 233.791 74.5828 233.705C73.6807 233.541 72.8282 233.76 71.9218 233.779C70.5451 233.807 69.1935 233.663 67.8156 233.782C66.557 233.89 66.3912 233.746 66.358 232.495ZM67.1973 195.103C72.0674 193.529 76.1371 196.509 78.7072 200.41C80.1724 202.635 80.5001 204.19 80.2439 206.824C80.1516 207.768 80.3211 208.405 79.4542 208.79C78.5961 209.171 76.6462 208.888 75.7178 208.932C73.0473 209.056 70.3869 209.222 67.7164 209.064C65.9819 208.961 65.7365 208.667 65.7666 206.984C65.8024 204.957 65.6342 202.94 65.5193 200.909C65.395 198.714 64.641 195.929 67.1973 195.103ZM65.604 192.184C65.6072 190.695 65.5174 189.167 65.6084 187.68C65.6994 186.206 66.3266 186.279 67.7183 186.027C70.7322 185.482 73.7429 184.873 76.7159 184.135C77.8917 183.843 79.2207 183.282 80.4461 183.278C81.7317 183.273 81.6633 183.933 81.5779 185.071C81.3871 187.592 80.925 190.076 80.7844 192.584C80.6331 195.29 80.5534 198.031 80.5653 200.741C80.5697 201.655 80.792 202.333 80.0123 201.477C79.2314 200.619 78.8497 199.253 78.1522 198.29C76.7241 196.317 74.6023 194.73 72.2469 194.061C70.9443 193.692 69.5752 193.628 68.2475 193.895C67.8445 193.976 65.8269 194.939 65.5701 194.749C65.3962 194.621 65.604 192.244 65.604 192.184ZM83.4191 243.793C85.3507 245.176 87.4895 246.294 89.6546 247.264C90.8731 247.81 95.6955 248.958 95.8493 250.186C95.9315 250.842 95.1324 251.576 94.6089 251.653C93.9447 251.752 92.8505 251.318 92.1744 251.236C89.7149 250.938 87.2604 250.936 84.8604 250.251C80.0688 248.884 75.1013 248.499 70.2601 247.307C69.1082 247.024 67.9531 246.758 66.7955 246.501C65.6957 246.257 65.2029 246.299 65.1646 245.124C65.0786 242.545 65.8187 239.902 65.8244 237.292C69.7409 237.739 73.6707 237.733 77.5979 238.101C79.2809 238.258 79.242 238.577 79.979 240.047C80.7449 241.572 82.0468 242.812 83.4191 243.793ZM64.3228 160.007C64.2732 159.053 64.2343 158.095 64.1483 157.143C64.0899 156.503 63.5054 154.715 63.835 154.217C64.2267 153.626 64.621 153.987 65.3215 153.97C66.245 153.948 67.0177 153.577 67.7792 153.091C69.2212 152.172 70.2934 150.961 71.2293 149.549C72.0523 148.305 71.8992 146.607 71.8891 145.118C71.8634 141.268 72.144 137.514 71.9086 133.647C71.8006 131.871 73.3173 132.96 74.5414 133.19C76.5446 133.566 78.7216 133.306 80.7574 133.31C80.6815 133.784 76.5188 134.959 75.8465 135.406C74.1246 136.551 73.1208 138.382 73.2777 140.47C73.5941 144.671 78.2207 145.373 81.6018 145.381C78.797 147.861 76.0417 150.226 73.837 153.285C72.2118 155.541 69.3486 159.988 72.0059 162.484C69.6568 163.818 67.3291 165.301 64.6718 165.943C64.5532 163.965 64.4257 161.987 64.3228 160.007ZM63.2562 83.3269C64.2123 83.9415 64.6147 83.0727 65.3429 82.6232C66.3674 81.9898 66.707 82.0519 66.8369 80.637C67.0774 78.0123 65.9731 75.6363 64.5864 73.4887C63.9568 72.5126 63.3278 71.3499 62.4383 70.5866C61.6272 69.891 60.808 70.1302 60.0565 69.4114C59.7615 69.1283 59.8249 68.7297 59.3371 68.741C59.0157 68.7485 58.2354 69.7429 57.9705 69.9626C57.1325 70.6557 56.108 71.1836 55.01 70.6117C53.4117 69.7793 53.9252 66.7592 55.1663 65.7805C56.1224 65.0272 57.2524 65.1433 58.3409 65.0222C59.157 64.9311 59.3265 64.9669 58.9906 64.0328C58.7558 63.3787 58.2134 62.8683 57.9454 62.2293C57.43 61.0008 57.5424 59.5086 57.3202 58.2085C57.1205 57.044 56.6535 55.7841 56.6704 54.6014C56.6924 53.0954 57.1846 52.7043 58.4897 52.2819C59.754 51.8732 60.8011 50.9717 61.8777 50.214C63.0968 49.3565 64.432 48.7903 65.6844 48.0068C66.535 47.4751 67.0836 46.4004 68.019 46.9026C69.1301 47.499 70.3053 49.2266 71.2501 50.1092C69.8671 50.9862 69.5457 51.3704 69.7365 53.0879C69.9111 54.6629 70.2318 56.066 71.4359 57.1633C71.8985 57.5851 72.7617 57.9222 73.1201 58.4088C73.5382 58.975 73.2664 58.4759 73.2137 59.115C73.1854 59.4596 72.9124 59.685 72.972 60.0836C73.2375 61.8539 75.2708 60.8093 76.1089 60.1941C79.1033 57.9976 73.5125 56.253 72.1848 55.4527C71.2676 54.8996 70.8144 53.135 72.267 53.6039C73.2331 53.9159 75.4165 56.5594 75.6381 54.1494C78.0349 55.5412 79.5132 58.4979 81.5227 60.368C82.9715 61.7164 84.9182 63.2117 83.7682 65.3649C82.3023 68.1101 79.3958 69.3562 76.7429 70.5401C74.1691 71.6889 74.704 74.9395 76.0794 76.9288C76.8748 78.0795 77.9168 78.7531 79.1705 79.3118C80.4511 79.883 80.7166 80.5541 80.9966 81.8787C81.3073 83.3483 80.9771 83.9409 79.7047 84.6998C78.4617 85.4412 77.1629 86.1593 75.8358 86.74C72.9676 87.9949 69.9914 88.074 66.9405 88.5021C65.8708 88.6522 64.8457 88.9642 64.2619 87.9039C63.6059 86.7111 63.5575 84.6571 63.2562 83.3269ZM62.7948 77.6187C62.0767 77.2402 60.3434 78.4969 59.4357 78.5522C57.9674 78.6407 57.0031 78.6074 55.6999 79.3859C53.236 80.8579 51.1907 82.7538 49.2152 84.809C46.9898 87.1242 44.777 89.4513 42.5585 91.7727C41.5534 92.8249 40.5427 93.8713 39.522 94.9071C38.7172 95.7232 37.93 96.8714 36.9344 97.4546C36.9859 96.7621 37.4102 96.2725 37.5609 95.6309C37.6488 95.2562 37.4956 94.9373 37.5521 94.5782C37.5709 94.462 37.8842 94.0565 37.9313 93.9234C38.0587 93.5725 38.2144 93.226 38.3651 92.8619C38.5057 92.5217 38.4856 92.1689 38.6281 91.8135C38.775 91.4476 39.1774 91.2053 39.3167 90.8443C39.726 89.7884 39.0487 89.2994 37.9658 89.3239C38.3895 87.2115 38.5747 86.1782 40.7838 85.4337C42.8943 84.7218 44.9559 83.9233 46.895 82.8109C48.6163 81.8234 50.052 80.4009 51.7068 79.3005C53.1883 78.3149 55.0326 77.2829 55.0175 75.2621C55.8575 75.8321 56.6447 76.3111 57.6052 75.7442C58.4162 75.2653 58.5236 74.8798 59.4614 74.7894C60.2267 74.716 60.7006 74.6965 61.3836 75.033C62.1871 75.4291 62.297 75.7041 62.7653 74.539C63.297 74.9865 64.6423 76.8516 64.5971 77.5892C64.5726 77.996 64.5111 78.1793 64.007 78.2867C63.2926 78.4386 63.3202 77.8949 62.7948 77.6187ZM59.4464 187.976C59.0973 188.512 57.624 188.413 57.0552 188.406C55.3214 188.384 54.715 186.928 53.9541 185.522C52.7551 183.306 50.9622 178.701 52.9296 176.375C54.4833 174.539 57.5085 176.852 58.5681 178.239C59.4828 179.437 59.211 181.234 59.2957 182.671C59.3679 183.883 60.1369 186.92 59.4464 187.976ZM54.7093 188.779C54.0163 189.472 51.7658 189.326 50.8474 189.475C49.2083 189.74 47.5774 190.059 45.9873 190.543C44.8027 190.904 43.6326 191.873 43.3199 190.223C43.0582 188.835 43.1887 187.171 43.2138 185.77C43.2408 184.259 43.3984 182.768 43.5302 181.264C43.6187 180.247 43.3965 178.375 44.227 177.595C44.9427 176.922 46.6828 176.857 47.6119 176.634C49.138 176.268 50.7318 175.788 52.3182 175.952C51.3929 178.463 51.3144 181.096 52.3063 183.598C52.5894 184.313 55.1374 188.351 54.7093 188.779ZM43.0487 178.775C42.6627 182.553 42.2735 186.354 42.6457 190.15C42.6683 190.376 42.9389 191.414 42.8209 191.576C42.6997 191.744 41.7367 191.831 41.5183 191.883C40.6495 192.089 39.7825 192.307 38.9087 192.489C37.2081 192.845 36.9859 191.771 36.6525 190.195C35.9375 186.818 37.3236 183.157 38.1629 179.914C38.5722 178.335 38.8754 178.153 40.4285 178.022C41.5095 177.931 43.2132 177.17 43.0487 178.775ZM36.4812 192.868C35.8314 193.459 35.1817 190.67 35.124 190.386C34.8973 189.258 35.0235 188.113 35.0266 186.966C35.0323 185.176 34.8954 183.394 34.8929 181.612C34.8911 180.648 34.1691 178.677 35.3098 178.167C35.6444 178.018 36.9746 178.08 37.2759 178.277C37.903 178.686 37.6557 178.951 37.4699 179.663C37.0543 181.261 36.6946 182.867 36.3324 184.478C35.9771 186.058 35.6268 187.578 35.7963 189.209C35.8515 189.749 36.8955 192.491 36.4812 192.868ZM57.209 175.267C58.7935 174.821 58.8782 176.035 58.8757 177.197C58.634 177.011 56.3829 175.501 57.209 175.267ZM36.0154 90.0018C35.6274 90.6415 33.1685 90.816 32.466 90.9843C31.0837 91.3157 29.7008 91.6441 28.3216 91.9893C25.7386 92.6347 23.2191 93.3635 20.5711 93.7012C22.0251 91.3735 22.4776 89.3634 22.207 86.4588C21.8657 82.7908 21.4319 79.1605 20.5874 75.5704C19.7549 72.0304 18.7911 68.5137 17.8628 64.9977C17.4068 63.2701 16.9136 61.5752 16.3071 59.8947C15.8208 58.5469 15.0613 56.8513 15.8866 55.4696C17.9811 56.9976 19.6611 58.6435 20.8556 60.965C22.1356 63.4528 23.253 66.0071 24.7383 68.3876C25.4176 69.4755 26.2104 70.4679 26.9374 71.5213C27.3693 72.1485 27.6844 73.0524 28.235 73.5816C28.8696 74.1906 29.5457 74.4781 29.9086 73.4498C30.2978 72.3462 29.0567 70.1622 28.6901 69.1258C27.8049 66.6236 26.928 64.127 26.245 61.5601C25.693 59.486 24.7804 56.9775 25.1033 54.7885C25.4231 52.6215 26.8941 54.1727 27.638 55.1802C29.1722 57.2568 30.0906 59.6781 31.0982 62.0334C32.0247 64.1967 33.1051 66.2595 34.1302 68.3725C34.4868 69.1082 34.957 71.0078 35.8911 71.2263C37.2489 71.5446 37.134 69.6324 37.0041 68.8565C36.1441 63.7139 33.8973 58.7898 33.4315 53.5581C33.4089 53.3082 33.0844 51.3641 33.3455 51.2015C33.8515 50.887 34.5345 52.8588 34.7529 53.3421C35.8886 55.855 36.6795 58.5048 37.4052 61.1596C38.0229 63.4176 38.581 65.692 39.274 67.9287C39.6551 69.1578 40.0914 70.3669 40.5214 71.5791C40.9106 72.6777 41.3055 74.5546 42.3206 75.2784C43.7606 76.3048 48.9139 73.8641 49.4362 76.0462C49.8078 77.5974 45.0293 78.8466 44.0117 79.3181C42.6721 79.9383 41.3582 80.6169 40.0179 81.2377C39.0029 81.7073 37.5446 81.9 36.8107 82.7833C36.0329 83.7199 35.9086 85.0344 35.8854 86.1951C35.8672 87.074 36.4768 89.2435 36.0154 90.0018ZM32.7592 106.941C32.6908 107.428 32.3034 108.074 32.1289 108.538C31.7742 109.483 31.4723 110.612 30.9783 111.496C30.5539 112.256 29.9268 112.936 29.5168 113.708C29.1276 114.44 29.0755 115.285 28.621 116.019C28.1006 116.857 27.2406 117.459 26.7239 118.292C26.4697 118.703 26.2067 119.172 25.847 119.61C24.5726 121.16 23.3076 122.622 22.2829 124.282C22.0209 124.708 20.7409 126.563 20.2314 126.663C19.1665 126.873 20.4061 125.36 20.6144 125.046C22.1232 122.782 23.4631 120.399 24.9195 118.1C26.3303 115.874 27.7736 113.665 29.1314 111.405C30.2388 109.563 31.004 106.918 32.8038 105.62C32.8107 106.062 32.7962 106.502 32.7592 106.941ZM81.9577 86.1342C82.834 89.7363 83.8824 93.2272 84.8705 96.7979C85.787 100.111 87.0074 103.656 87.3872 107.071C87.7638 110.453 88.6289 113.877 89.7921 117.088C90.3301 118.574 90.8831 120.065 91.4669 121.533C91.7877 122.34 92.1462 123.129 92.5103 123.916C92.7928 124.529 93.5398 125.52 93.568 126.169C93.5913 126.688 93.7714 126.481 93.2592 126.871C92.7281 127.275 91.8078 127.129 91.1895 127.2C89.5768 127.386 88.0042 127.993 86.4317 128.386C83.3997 129.143 79.785 129.744 76.6783 129.218C75.3713 128.996 74.0134 128.803 72.7209 128.515C71.1308 128.159 70.8037 127.501 70.4773 125.938C69.7635 122.521 69.149 119.114 68.5595 115.675C67.8589 111.584 67.1006 107.498 66.5595 103.381C66.0133 99.2173 65.621 95.049 64.7653 90.9303C68.218 91.5072 71.4692 92.1594 74.9325 91.2134C77.9991 90.376 80.2125 88.7388 81.9577 86.1342ZM95.4739 130.734C96.2454 132.325 94.3848 133.755 93.4833 134.98C92.2943 136.595 91.1838 138.282 89.8009 139.743C89.3859 138.083 89.0218 136.215 87.9151 134.852C86.5008 133.111 84.851 133.822 83.1184 132.999C84.9351 132.115 87.2547 132.453 89.1819 131.665C91.0828 130.888 93.0018 130.277 94.7702 129.268C95.005 129.756 95.2373 130.246 95.4739 130.734ZM88.7368 167.846C87.5761 167.91 88.3527 165.463 88.428 164.854C88.6351 163.182 88.8448 161.51 89.0262 159.835C89.9842 162.36 90.9421 164.886 91.8995 167.411C90.8467 167.561 89.8015 167.787 88.7368 167.846ZM86.8485 179.952C87.0067 180.305 87.7456 181.477 87.1624 181.694C86.3633 181.99 86.2672 180.047 86.8485 179.952ZM85.4631 152.745C81.765 155.698 78.092 158.658 74.09 161.199C73.2137 161.756 72.3304 161.989 71.7491 160.885C71.2927 160.017 71.7749 159.039 72.068 158.189C72.8151 156.021 74.1164 154.137 75.559 152.374C78.4398 148.851 81.8686 145.843 86.2434 144.454C86.959 144.227 88.0639 143.541 88.3144 144.488C88.4625 145.045 87.8373 146.436 87.7105 146.958C87.1882 149.116 87.3024 151.278 85.4631 152.745ZM96.1098 174.277C96.1908 176.784 89.337 174.761 88.4826 174.314C89.379 174.013 96.0728 173.15 96.1098 174.277ZM98.6548 174.293C99.0622 174.401 100.624 174.539 100.04 175.072C99.5179 175.55 97.1538 175.358 96.5267 175.417C96.9479 174.034 97.2674 173.923 98.6548 174.293ZM97.3848 170.935C97.2316 171.492 97.1695 172.343 96.6698 172.725C96.0464 173.202 94.7231 172.912 94.0182 172.916C92.8204 172.922 91.6245 172.984 90.4324 173.102C89.9767 173.148 88.1298 173.704 87.7023 173.325C87.3884 173.046 87.5058 171.738 87.7343 171.444C88.2032 170.839 89.2842 171.048 89.9616 171.024C92.44 170.936 94.9052 170.928 97.3848 170.935ZM95.7941 161.668C95.4438 161.149 95.3816 161.154 95.2322 160.368C95.0728 159.528 94.6672 158.81 94.4287 157.997C93.9039 156.211 95.5806 156.369 96.811 157.024C100.002 158.724 99.2317 164.664 98.4426 167.444C97.295 166.601 96.8719 166.218 96.4771 164.858C96.327 164.341 96.1588 163.833 96.0025 163.319C95.8882 162.94 95.9679 161.927 95.7941 161.668ZM96.0703 132.761C96.9611 132.653 97.7759 135.417 97.5216 136.015C97.0006 137.239 95.01 138.332 93.9962 139.112C93.3213 139.632 92.6509 140.229 91.9296 140.682C91.2598 141.102 90.8743 140.866 90.2516 141.069C89.3502 141.36 89.1317 142.313 88.2095 142.723C86.9119 143.3 85.3388 143.462 83.9828 143.982C82.3381 144.614 80.8309 144.631 79.1064 144.332C76.6262 143.901 73.719 142.671 73.9425 139.658C74.3367 134.342 84.8962 131.618 87.7757 136.125C88.5259 137.299 88.514 138.666 89.0005 139.927C89.5278 141.29 90.0388 140.755 90.8317 139.75C91.8687 138.435 92.8323 137.051 93.8286 135.705C94.1506 135.27 95.4268 132.839 96.0703 132.761ZM31.3568 184.522C31.3059 185.426 31.3599 186.343 31.0454 187.205C30.729 188.076 30.0862 188.779 29.7165 189.625C28.9663 191.338 28.9719 193.411 29.0021 195.248C29.0718 199.52 30.0837 203.668 30.6185 207.889C28.8376 207.885 26.9964 207.906 25.2696 207.396C23.7275 206.942 23.4815 205.815 23.0454 204.395C21.8207 200.407 20.4981 196.435 20.1027 192.259C19.9146 190.269 19.8355 188.262 19.7455 186.266C19.6669 184.514 20.0603 183.75 21.6418 182.883C25.0792 180.998 28.6424 179.428 32.0448 177.453C31.697 179.796 31.4892 182.158 31.3568 184.522ZM178.102 44.5523C177.265 44.3985 176.42 44.3025 175.576 44.202C175.135 44.1493 173.762 44.2227 173.432 43.9352C173.039 43.5937 173.719 41.0092 173.754 40.4549C173.967 37.1197 173.719 33.682 173.414 30.3598C172.86 24.3456 170.968 18.7738 166.604 14.4432C164.431 12.2874 161.988 10.5771 159.022 9.75176C157.293 9.27083 155.512 9.0144 153.779 8.54816C152.382 8.17151 151.078 7.74043 149.626 7.59115C146.731 7.29334 144.084 6.19954 141.258 5.56676C139.18 5.10115 135.835 3.99693 134.488 6.34386C133.427 5.09983 132.36 4.16567 131.022 3.23772C129.74 2.34882 129.531 1.46092 127.962 2.4873C124.912 4.48175 122.056 6.91474 119.208 9.18383C116.548 11.3031 113.975 13.5223 111.187 15.4711C108.344 17.459 108.882 20.8324 110.219 23.6291C112.735 28.8929 116.615 33.393 120.012 37.905C122.139 40.7318 124.273 43.5617 126.392 46.3941C128.418 49.101 130.17 52.2341 132.537 54.6661C134.029 56.1991 135.81 54.194 137.158 53.2681C138.829 52.1174 140.471 50.924 142.146 49.7771C145.631 47.3872 149.361 45.1493 153.04 43.0689C153.307 43.8272 153.575 44.5862 153.843 45.3445C153.035 45.4054 151.942 45.2246 151.532 46.0934C150.944 47.3339 152.386 47.4971 152.638 48.2083C152.864 48.8436 151.939 50.5216 151.664 51.0941C151.049 52.3842 150.189 53.4966 149.242 54.5581C145.495 58.7603 140.753 61.766 135.942 64.6311C130.793 67.697 125.275 69.5684 119.638 71.5439C116.772 72.5483 113.797 73.0148 110.839 73.6582C107.989 74.2778 105.141 75.0914 102.229 75.3255C96.2712 75.8032 89.9484 76.1617 84.0619 74.8773C83.4179 74.7367 82.7355 74.4322 82.0801 74.3739C81.5547 74.3274 81.1655 74.5477 80.6695 74.576C79.6042 74.6369 78.9941 73.6846 78.1479 74.5697C77.7241 75.0123 77.7166 75.7555 77.1271 74.9294C76.3763 73.8786 78.2947 73.6752 79.0054 73.3757C81.3996 72.3675 83.3231 70.3386 84.8441 68.2871C86.3639 66.2369 86.5824 64.0479 85.6571 61.648C84.7324 59.2487 82.6281 57.6222 81.0487 55.6743C80.2847 54.7307 79.5816 53.7326 78.7423 52.8519C78.2947 52.3817 77.5728 51.9316 77.5452 51.457C77.5126 50.9058 77.8428 50.6315 77.645 49.961C77.5942 49.7872 77.3751 49.688 77.328 49.4965C77.2545 49.1908 77.3688 48.929 77.3305 48.6315C77.2414 47.9491 76.9739 47.521 76.5954 46.9616C76.3594 46.6126 76.0141 45.9133 75.6896 45.6515C75.1202 45.1926 74.3443 45.3797 73.7655 44.9145C72.8502 44.1794 72.5282 42.6295 71.7184 41.7368C70.5777 40.4807 70.3348 41.75 69.127 41.3495C68.0937 41.0067 68.1063 39.453 67.2713 38.927C66.0956 38.1869 65.1056 39.5491 64.061 39.8523C62.6875 40.2515 63.2154 38.7022 61.9913 38.561C60.8858 38.4336 59.3541 40.6759 58.8029 41.4719C58.2411 40.8172 57.6265 39.7023 56.6158 40.1015C55.5549 40.5215 55.3666 42.4738 54.5907 43.1706C54.3207 43.4123 54.3779 43.5912 54.0451 43.7029C53.6158 43.8467 53.0439 43.2233 52.4889 43.4135C51.369 43.7965 51.5059 45.2905 51.5034 46.2585C50.1826 46.0652 49.261 45.9666 48.8191 47.3904C48.3859 48.784 48.2215 48.1688 46.8291 48.6214C45.6282 49.0113 45.46 50.1519 45.2622 51.2668C45.1398 51.9598 45.2528 52.2429 45.4392 52.8751C45.6746 53.6717 45.6746 53.6617 45.2911 54.4219C44.6225 55.7477 44.5824 57.2091 44.4756 58.668C44.362 60.2255 44.0896 61.6436 44.5321 63.1646C44.8058 64.1056 44.8272 65.3869 45.7487 65.9136C46.1147 66.1226 46.7362 66.0084 47.0476 66.2155C47.6414 66.611 47.4606 67.213 47.8561 67.7912C48.153 68.2231 48.6308 68.2652 48.9635 68.6154C49.3244 68.9971 49.3458 69.4623 49.5517 69.9281C50.1606 71.3066 50.7331 71.9739 48.7481 72.0524C47.524 72.1014 46.2183 72.4686 44.9986 72.3556C43.5597 72.2232 43.2019 71.419 42.7437 70.1942C40.4354 64.0234 39.1949 57.3353 36.1547 51.467C35.4874 50.1789 32.7473 44.9158 31.5891 48.7507C30.6129 51.9849 31.8941 55.9323 32.3851 59.152C30.8439 57.7628 30.2739 55.2612 29.1031 53.5656C28.2387 52.3126 25.532 49.236 23.9452 50.9987C22.6946 52.3886 23.0072 55.3353 23.238 56.9963C23.6027 59.6247 24.4426 62.1577 25.0427 64.7353C24.2872 63.7472 23.9146 62.5406 23.3905 61.4283C22.733 60.0334 21.9126 58.7095 20.9778 57.4841C20.161 56.4125 19.2477 55.4169 18.2575 54.5035C17.5006 53.8048 16.1451 52.2762 15.0701 52.1933C12.3038 51.9812 13.1737 57.0547 13.5952 58.5054C14.4684 61.5118 15.4152 64.4352 16.0932 67.5024C17.4185 73.4944 19.0238 79.3482 20 85.4161C20.2161 86.762 20.4765 87.8361 19.9442 89.1293C19.4752 90.2686 18.9886 91.6315 18.1232 92.5072C16.1643 94.4916 14.5378 96.6102 13.0736 99.0007C11.5052 101.561 9.89079 104.151 8.61048 106.869C8.02184 108.12 7.54041 109.472 6.86375 110.675C6.25294 111.761 5.51859 112.619 5.08437 113.821C3.00977 119.564 1.47358 125.208 0.770184 131.289C0.192585 136.283 0.730763 142.924 6.76042 144.092C9.53027 144.629 12.0173 143.401 14.515 142.387C17.0984 141.339 18.9664 139.635 21.0736 137.824C23.692 135.574 26.4101 133.463 29.0567 131.25C31.7039 129.036 34.149 126.581 36.7819 124.343C39.3826 122.132 41.7355 119.784 43.9841 117.217C46.2151 114.67 48.0275 111.848 50.1876 109.266C50.1794 112.61 49.6835 115.923 49.5441 119.262C49.4167 122.322 49.4136 125.381 49.5372 128.441C49.6609 131.498 48.853 134.409 48.8461 137.46C48.8392 140.437 48.7211 143.396 48.6559 146.369C48.627 147.703 48.3652 149.2 48.8637 150.486C49.2359 151.447 50.406 151.748 51.4036 152.007C52.9459 152.407 57.5869 151.636 58.2756 153.283C58.6516 154.182 58.2731 155.82 58.302 156.813C58.3509 158.45 58.4112 160.086 58.4671 161.723C58.5248 163.414 58.5813 165.104 58.6428 166.794C58.6981 168.283 58.9875 169.942 58.8079 171.417C58.6548 172.68 57.9178 172.515 56.7495 172.58C54.9868 172.677 53.2234 172.755 51.4601 172.832C48.8731 172.946 46.1731 172.894 43.6928 173.199C42.6514 173.327 41.5132 173.273 40.414 173.481C39.0361 173.744 37.7637 173.81 36.3657 173.879C35.2388 173.935 33.7906 173.854 32.9055 174.686C32.5979 174.976 32.5294 175.32 32.3116 175.642C31.9036 176.244 32.1308 176.085 31.4616 176.221C28.8483 176.75 26.3661 177.347 23.8103 178.238C22.531 178.684 21.3439 179.283 20.0587 179.702C18.9322 180.069 18.1066 180.522 17.5499 181.627C16.5551 183.602 16.807 186.458 16.879 188.587C16.9925 191.906 17.7301 195.067 18.5258 198.278C19.3533 201.618 20.0022 205.048 21.6121 208.116C22.1411 209.125 22.7122 210.411 23.7927 210.937C25.1878 211.615 27.3329 211.204 28.8558 211.206C29.8772 211.208 32.6142 211.559 33.3782 210.702C34.1177 209.873 33.3738 207.533 33.2689 206.504C32.903 202.896 32.2444 199.255 32.2532 195.624C33.0869 196.855 34.532 198.98 35.9783 197.094C36.3343 196.629 36.1955 196.413 36.8271 196.145C37.1767 195.995 37.9137 195.904 38.2948 195.93C38.8126 195.965 39.0041 196.173 39.48 196.071C39.9012 195.981 40.3751 195.604 40.8579 195.489C46.8448 194.067 52.7965 192.533 58.8092 191.266C60.3987 190.931 60.1727 192.151 60.2775 193.524C60.3936 195.044 60.1727 196.58 60.3836 198.082C60.5669 199.39 60.7094 200.664 60.4514 201.98C60.1463 203.531 60.3428 204.825 60.646 206.361C61.8155 212.286 61.6065 218.712 61.8701 224.733C62.0076 227.87 61.7126 231.072 62.0076 234.191C62.1194 235.369 62.7772 236.02 63.0434 237.092C63.3498 238.322 62.5148 239.889 62.2612 241.081C61.7509 243.474 60.8544 246.899 62.4941 248.982C63.3793 250.107 64.54 250.269 65.8507 250.65C67.4195 251.105 68.965 251.635 70.5413 252.067C76.2991 253.642 82.5208 253.95 88.4223 254.819C89.8668 255.031 91.2071 255.011 92.6616 254.911C93.558 254.848 95.7658 255.143 96.5116 254.607C96.9109 254.32 96.7081 253.96 96.9115 253.61C97.1996 253.111 97.5486 252.908 98.0396 252.598C98.8525 252.085 99.7929 251.785 99.9297 250.724C100.266 248.127 97.0194 246.751 95.2837 245.628C93.0658 244.193 90.3866 243.638 88.0325 242.467C86.7337 241.82 85.4807 241.088 84.2289 240.354C83.6865 240.036 82.5867 239.676 82.2082 239.176C81.8221 238.665 82.2 237.935 82.3601 237.205C83.0199 234.188 82.7964 231.103 83.1379 228.054C83.4794 225.001 83.3865 221.928 83.4988 218.859C83.615 215.698 83.8761 212.545 84.0764 209.389C84.2609 206.473 84.4467 203.511 84.4781 200.593C84.507 197.887 84.8761 195.232 84.9634 192.508C84.9929 191.584 84.8272 189.907 85.4405 189.124C85.9791 188.437 87.7619 188.524 88.5931 188.403C90.8342 188.078 92.9673 187.792 95.1833 187.597C100.456 187.13 106.323 186.787 111.308 184.949C113.365 184.192 116.101 183.156 116.783 180.795C117.568 178.082 116.543 174.747 116.509 171.972C116.474 169.011 115.614 166.12 114.97 163.25C114.277 160.16 113.84 157.017 113.091 153.939C112.403 151.115 111.288 148.613 110.233 145.931C109.805 144.844 107.369 141.096 108.124 140.171C108.532 139.674 109.998 139.548 110.593 139.32C111.875 138.829 113.16 138.271 114.342 137.573C115.921 136.64 119.378 135.097 119.537 133.024C119.688 131.043 117.742 129.041 116.752 127.486C115.157 124.979 113.147 122.787 111.628 120.231C108.559 115.064 106.118 109.406 103.88 103.838C102.71 100.925 102.328 98.1821 102.135 95.0729C105.534 95.081 108.993 95.4991 112.371 95.0239C116.047 94.5066 119.727 93.6359 123.371 92.9178C130.006 91.6101 136.376 90.1343 142.522 87.1901C148.278 84.433 154.119 81.4154 158.884 77.0393C161.349 74.7762 163.862 72.4699 165.99 69.8823C168.176 67.2237 169.82 64.2036 171.507 61.2198C173.368 57.9254 174.85 54.4639 176.021 50.8612C176.257 50.1368 176.259 49.214 176.56 48.5298C176.9 47.7576 177.519 47.7369 178.166 47.3301C179.075 46.7576 179.68 44.8417 178.102 44.5523Z" fill="black"/>
<path fill-rule="evenodd" clip-rule="evenodd" d="M98.9687 7.67925C99.7452 8.34662 103.094 10.6975 104.176 10.1259C105.511 9.42021 103.397 7.2945 102.829 6.77045C102.105 6.10371 99.5179 4.08673 98.5273 4.27393C96.5474 4.64845 98.2693 7.07855 98.9687 7.67925Z" fill="black"/>
<path fill-rule="evenodd" clip-rule="evenodd" d="M100.622 31.8068C101.062 30.943 102.229 30.6254 102.769 29.7894C103.419 28.7844 103.717 27.905 103.478 26.6726C101.815 27.2322 99.9235 28.9259 98.8111 30.2504C97.8808 31.3572 96.56 33.6701 98.9869 33.676C98.9655 33.3467 98.9442 33.0172 98.9229 32.6882C99.6504 32.794 100.292 32.4579 100.622 31.8068Z" fill="black"/>
<path fill-rule="evenodd" clip-rule="evenodd" d="M92.7017 17.4344C93.7739 17.7425 94.6584 17.6988 95.7533 17.723C96.548 17.7407 97.634 18.1774 98.2781 17.6852C97.7068 17.3542 98.4288 17.3359 98.2875 17.0133C98.1689 16.7443 97.9429 16.8324 97.7596 16.6146C97.1054 15.8387 96.5361 15.8482 95.499 15.6868C94.6949 15.5612 93.5128 15.2714 92.7407 15.671C91.9277 16.0916 91.6132 17.1215 92.7017 17.4344Z" fill="black"/>
<path fill-rule="evenodd" clip-rule="evenodd" d="M107.959 41.2327C108.653 40.6514 109.409 38.9684 109.549 38.0996C109.604 37.7593 109.359 37.4988 109.388 37.2483C109.444 36.7712 110.425 35.8491 109.397 35.4573C108.499 35.1146 107.654 37.7769 107.425 38.3582C107.191 38.9521 106.553 40.1096 106.748 40.6847C106.911 41.1618 107.492 41.6244 107.959 41.2327Z" fill="black"/>
<path fill-rule="evenodd" clip-rule="evenodd" d="M116.253 5.1941C116.88 4.61205 117.276 3.95196 117.212 3.15157C117.16 2.52112 116.688 0.347387 116.157 0.411292C114.392 0.62429 115.185 6.18527 116.253 5.1941Z" fill="black"/>
<path fill-rule="evenodd" clip-rule="evenodd" d="M78.996 102.378C78.851 101.847 78.323 98.5971 77.4103 98.8187C76.7166 98.9869 77.4373 101.846 77.4693 102.223C77.5371 103.01 76.0236 102.984 75.3205 102.878C74.2049 102.71 74.2941 102.056 74.1277 101.042C74.065 100.659 73.8233 98.9273 73.0241 99.5619C72.4843 99.9901 72.8703 102.125 72.9149 102.612C73.0706 104.3 73.2539 107.181 74.2571 108.713C74.6569 109.324 75.0173 109.626 75.4372 108.842C75.8622 108.049 74.8999 105.632 74.7316 104.821C75.5257 104.899 77.8114 104.64 78.2891 105.465C78.726 106.218 78.0274 108.369 79.4285 108.543C80.2603 108.647 80.1096 107.684 80.0293 106.944C79.8617 105.391 79.4059 103.878 78.996 102.378Z" fill="black"/>
<path fill-rule="evenodd" clip-rule="evenodd" d="M81.1253 101.627C80.205 102.042 81.3607 108.103 82.7066 107.907C84.2785 107.679 82.0023 101.231 81.1253 101.627Z" fill="black"/>
<path fill-rule="evenodd" clip-rule="evenodd" d="M80.0995 99.6197C79.9859 100.984 81.7593 101.493 81.8434 100.01C81.9081 98.8658 80.2188 98.1853 80.0995 99.6197Z" fill="black"/>
<path fill-rule="evenodd" clip-rule="evenodd" d="M70.3637 63.4389C71.1735 66.4559 78.544 67.7397 77.5509 63.6706C77.0537 61.6335 74.9771 63.4433 73.5269 63.206C72.5884 63.0528 69.7937 61.3114 70.3637 63.4389Z" fill="black"/>
<path fill-rule="evenodd" clip-rule="evenodd" d="M68.5131 58.0572C68.8596 56.4433 65.3272 54.6611 64.0459 55.1055C62.1708 55.7559 62.179 59.9141 63.609 61.0196C63.7973 61.1652 64.3743 61.5124 64.6567 61.2355C65.1025 60.798 64.6153 60.9173 64.5111 60.481C64.346 59.7867 63.8061 58.8946 64.3441 58.1049C65.3611 56.6121 68.0165 60.3705 68.5131 58.0572Z" fill="black"/>
<path fill-rule="evenodd" clip-rule="evenodd" d="M57.7427 65.8935C56.4696 65.8219 55.425 67.7981 57.2989 67.633C57.6573 67.601 58.4282 67.5106 58.6366 67.1339C58.9813 66.5093 58.3026 65.9249 57.7427 65.8935Z" fill="black"/>
<path fill-rule="evenodd" clip-rule="evenodd" d="M119.523 18.7806C119.088 18.1501 118.174 17.1357 117.388 17.768C116.691 18.3287 116.812 19.7126 117.079 20.4003C117.799 22.2518 119.498 23.9011 121.422 22.8344C120.754 21.4963 120.377 20.0146 119.523 18.7806Z" fill="black"/>
</svg>
