<svg width="47" height="47" viewBox="0 0 47 47" fill="none" xmlns="http://www.w3.org/2000/svg">
<path d="M35.7188 0.5H11.2812C5.32693 0.5 0.5 5.32693 0.5 11.2812V35.7188C0.5 41.6731 5.32693 46.5 11.2812 46.5H35.7188C41.6731 46.5 46.5 41.6731 46.5 35.7188V11.2812C46.5 5.32693 41.6731 0.5 35.7188 0.5Z" fill="url(#paint0_radial_6635_96280)"/>
<path d="M35.7188 0.5H11.2812C5.32693 0.5 0.5 5.32693 0.5 11.2812V35.7188C0.5 41.6731 5.32693 46.5 11.2812 46.5H35.7188C41.6731 46.5 46.5 41.6731 46.5 35.7188V11.2812C46.5 5.32693 41.6731 0.5 35.7188 0.5Z" fill="url(#paint1_radial_6635_96280)"/>
<path d="M23.5016 5.53125C18.6217 5.53125 18.0091 5.55263 16.0926 5.63978C14.1796 5.72747 12.8738 6.03024 11.7314 6.47461C10.5494 6.93353 9.54691 7.54752 8.5482 8.54659C7.5486 9.54547 6.93461 10.5479 6.47425 11.7294C6.02863 12.8722 5.72549 14.1785 5.63942 16.0906C5.55371 18.0073 5.53125 18.62 5.53125 23.5002C5.53125 28.3803 5.55281 28.9909 5.63978 30.9074C5.72783 32.8204 6.0306 34.1262 6.47461 35.2686C6.93389 36.4506 7.54788 37.4531 8.54695 38.4518C9.54547 39.4514 10.5479 40.0668 11.729 40.5257C12.8724 40.9701 14.1784 41.2729 16.0909 41.3606C18.0077 41.4477 18.6197 41.4691 23.4995 41.4691C28.38 41.4691 28.9905 41.4477 30.9071 41.3606C32.82 41.2729 34.1273 40.9701 35.2706 40.5257C36.4521 40.0668 37.4531 39.4514 38.4514 38.4518C39.451 37.4531 40.0648 36.4506 40.5254 35.2692C40.9671 34.1262 41.2704 32.82 41.3602 30.9078C41.4463 28.9912 41.4688 28.3803 41.4688 23.5002C41.4688 18.62 41.4463 18.0077 41.3602 16.0909C41.2704 14.178 40.9671 12.8724 40.5254 11.7299C40.0648 10.5479 39.451 9.54547 38.4514 8.54659C37.452 7.54716 36.4524 6.93317 35.2695 6.47479C34.124 6.03024 32.8175 5.72729 30.9046 5.63978C28.9878 5.55263 28.3776 5.53125 23.496 5.53125H23.5016ZM21.8896 8.7694C22.3681 8.76868 22.902 8.7694 23.5016 8.7694C28.2995 8.7694 28.868 8.78665 30.7626 8.87272C32.5146 8.95286 33.4655 9.24557 34.0989 9.49156C34.9375 9.81716 35.5353 10.2065 36.1638 10.8356C36.7927 11.4645 37.1819 12.0634 37.5084 12.902C37.7544 13.5345 38.0475 14.4854 38.1273 16.2374C38.2134 18.1317 38.232 18.7005 38.232 23.496C38.232 28.2915 38.2134 28.8606 38.1273 30.7547C38.0471 32.5067 37.7544 33.4576 37.5084 34.0902C37.1828 34.9288 36.7927 35.5259 36.1638 36.1545C35.5349 36.7834 34.9378 37.1726 34.0989 37.4984C33.4662 37.7454 32.5146 38.0374 30.7626 38.1176C28.8683 38.2037 28.2995 38.2223 23.5016 38.2223C18.7036 38.2223 18.1349 38.2037 16.2408 38.1176C14.4889 38.0367 13.5379 37.744 12.904 37.498C12.0656 37.1722 11.4665 36.783 10.8376 36.1541C10.2087 35.5252 9.81949 34.9278 9.493 34.0888C9.24701 33.4561 8.95394 32.5052 8.87416 30.7533C8.78809 28.859 8.77084 28.2901 8.77084 23.4916C8.77084 18.6932 8.78809 18.1272 8.87416 16.2329C8.9543 14.4809 9.24701 13.53 9.493 12.8966C9.81877 12.058 10.2087 11.4591 10.8378 10.8302C11.4667 10.2013 12.0656 9.81195 12.9042 9.48563C13.5376 9.23856 14.4889 8.94657 16.2408 8.86607C17.8984 8.79114 18.5408 8.76868 21.8896 8.76491V8.7694ZM33.0933 11.7529C31.9029 11.7529 30.9371 12.7179 30.9371 13.9085C30.9371 15.0989 31.9029 16.0647 33.0933 16.0647C34.2838 16.0647 35.2496 15.0989 35.2496 13.9085C35.2496 12.718 34.2838 11.7522 33.0933 11.7522V11.7529ZM23.5016 14.2723C18.4057 14.2723 14.2739 18.4041 14.2739 23.5002C14.2739 28.5963 18.4057 32.7261 23.5016 32.7261C28.5977 32.7261 32.728 28.5963 32.728 23.5002C32.728 18.4042 28.5974 14.2723 23.5013 14.2723H23.5016ZM23.5016 17.5105C26.8095 17.5105 29.4913 20.192 29.4913 23.5002C29.4913 26.808 26.8095 29.4899 23.5016 29.4899C20.1936 29.4899 17.5121 26.808 17.5121 23.5002C17.5121 20.192 20.1936 17.5105 23.5016 17.5105Z" fill="white"/>
<defs>
<radialGradient id="paint0_radial_6635_96280" cx="0" cy="0" r="1" gradientUnits="userSpaceOnUse" gradientTransform="translate(12.7187 50.0429) rotate(-90) scale(45.5894 42.4018)">
<stop stop-color="#FFDD55"/>
<stop offset="0.1" stop-color="#FFDD55"/>
<stop offset="0.5" stop-color="#FF543E"/>
<stop offset="1" stop-color="#C837AB"/>
</radialGradient>
<radialGradient id="paint1_radial_6635_96280" cx="0" cy="0" r="1" gradientUnits="userSpaceOnUse" gradientTransform="translate(-7.20518 3.81362) rotate(78.681) scale(20.3787 84.0017)">
<stop stop-color="#3771C8"/>
<stop offset="0.128" stop-color="#3771C8"/>
<stop offset="1" stop-color="#6600FF" stop-opacity="0"/>
</radialGradient>
</defs>
</svg>
