<svg width="275" height="156" viewBox="0 0 275 156" fill="none" xmlns="http://www.w3.org/2000/svg">
<path d="M152.768 -15.7284L40.1115 25.5319C25.1723 31.0034 13.0185 42.1853 6.3238 56.6178C-0.370886 71.0503 -1.05809 87.5512 4.41337 102.49L45.6737 215.147C51.1452 230.086 62.3271 242.24 76.7596 248.935C91.1921 255.629 107.693 256.316 122.632 250.845L235.289 209.585C250.228 204.113 262.382 192.931 269.076 178.499C275.771 164.066 276.458 147.565 270.987 132.626L229.726 19.9697C224.255 5.03051 213.073 -7.12328 198.64 -13.818C184.208 -20.5127 167.707 -21.1999 152.768 -15.7284ZM97.6688 164.545C101.616 169.823 106.405 174.414 111.845 178.135C119.574 183.344 128.652 186.19 137.971 186.326C143.692 186.352 149.41 185.637 154.951 184.196C160.386 182.78 165.659 180.849 170.723 178.419C176.675 175.706 182.093 171.948 186.718 167.322C191.901 161.945 195.592 155.308 197.426 148.069C198.56 143.797 198.704 139.322 197.847 134.987C196.99 130.651 195.154 126.568 192.479 123.049C189.155 118.579 184.378 115.404 178.969 114.07L176.139 113.318C176.51 114.332 176.84 115.234 176.607 116.341C177.675 121.699 177.768 127.185 176.931 132.577C176.209 137.397 174.379 141.984 171.586 145.978C168.792 149.972 165.11 153.263 160.83 155.595C155.302 158.941 149.039 160.884 142.588 161.254C137.283 161.689 131.956 160.734 127.134 158.481C121.831 155.965 117.534 151.73 114.94 146.465C112.677 142.034 111.712 137.053 112.158 132.097C112.604 127.141 114.441 122.412 117.458 118.456C120.558 114.237 124.466 110.678 128.955 107.984C133.432 105.45 138.13 103.346 143.004 101.689C146.813 100.407 150.7 99.3672 154.641 98.5769L155.317 98.3294C153.687 95.4307 151.569 92.8349 149.057 90.6562C147.298 89.2337 145.267 88.186 143.089 87.5776C140.911 86.9692 138.631 86.8129 136.39 87.1184C130.877 87.412 125.579 89.3523 121.181 92.6885C118.072 95.2596 115.818 98.7141 114.715 102.595L115.004 103.383L100.892 99.7361L100.603 98.9475C102.805 90.4235 108.221 83.0828 115.716 78.4637C122.072 74.4272 129.367 72.1077 136.887 71.7317C141.098 71.5044 145.31 72.1499 149.259 73.6277C153.208 75.1056 156.81 77.3839 159.837 80.3197C163.301 83.6379 166.23 87.4842 168.483 91.7184C169.522 93.5344 170.427 95.4233 171.192 97.3703L175.149 97.7097C181.461 98.5802 187.535 100.699 193.019 103.942C198.679 107.324 203.341 112.133 206.561 117.892C208.715 121.294 210.375 124.991 211.476 128.868C214.335 138.459 213.915 148.728 210.282 158.053C205.829 170.217 197.505 180.582 186.591 187.557C181.762 190.567 176.682 193.154 171.408 195.289C166.631 197.27 161.702 198.862 156.669 200.049C148.513 201.996 140.09 202.576 131.744 201.767C120.901 200.482 110.585 196.374 101.827 189.853C95.2983 184.905 89.558 178.994 84.8023 172.324C81.2503 167.3 78.0739 162.011 75.3049 156.509L70.1061 142.314C68.3732 137.583 66.6403 132.851 65.6959 127.831C64.199 122.309 63.1204 116.682 62.4693 110.997C61.7805 103.788 62.1297 96.518 63.5061 89.4082C65.9443 74.2753 73.9843 60.6128 86.0297 51.1334C90.3287 47.6688 94.9404 44.611 99.8053 41.9996C105.975 38.9093 112.476 36.5285 119.182 34.9028C127.222 32.7627 135.558 31.954 143.859 32.5088C155.828 33.28 167.316 37.5047 176.934 44.6713C183.748 49.8902 189.675 56.1762 194.484 63.2861L182.511 71.7598L182.181 70.8585C178.73 66.0702 174.66 61.7608 170.076 58.043C160.863 50.7745 149.345 47.0579 137.621 47.5704C131.404 47.7193 125.239 48.7305 119.3 50.575C114.864 51.8149 110.532 53.4014 106.345 55.3199C99.9293 58.4086 94.1149 62.6148 89.1737 67.7417C82.8894 74.6455 78.7961 83.2596 77.4124 92.4922C76.4339 98.8278 76.3418 105.269 77.1388 111.63C77.6968 116.836 78.6858 121.987 80.0955 127.029C81.5303 131.822 83.2526 136.525 85.2531 141.111C88.3602 149.427 92.5337 157.304 97.6688 164.545Z" fill="white"/>
</svg>
