<svg width="317" height="135" viewBox="0 0 317 135" fill="none" xmlns="http://www.w3.org/2000/svg">
<g clip-path="url(#clip0_5875_37642)">
<path d="M95.6593 90.2652L91.1381 98.6125C86.3786 95.437 79.1638 94.5739 74.6367 95.2048L96.7686 155.633L89.782 158.192L67.6501 97.7637C63.8131 100.581 59.4273 105.49 57.6023 110.895L48.601 107.5C51.3607 95.847 57.4802 88.0191 66.4067 84.6328C75.1623 81.3115 86.0552 83.1461 95.6593 90.2652Z" fill="white"/>
<path fill-rule="evenodd" clip-rule="evenodd" d="M45.1615 82.0229C48.0216 78.0099 49.9818 73.5264 51.0422 68.5721C52.1058 63.6183 52.1218 58.8691 51.0902 54.3243C50.0586 49.7795 48.1887 45.6224 45.4805 41.8529L38.6227 49.2598C39.8255 51.2784 40.7182 53.4091 41.3008 55.652C41.8834 57.8949 42.1162 60.2445 41.9991 62.7008L26.5892 55.6435L22.7661 59.7566L24.5696 64.6809L40.0711 71.7085C39.1599 74.0563 37.9631 76.2105 36.4807 78.1712C34.9984 80.1319 33.4366 81.9169 31.4626 83.5014L34.5547 91.9442C38.68 89.1085 42.3015 86.0359 45.1615 82.0229Z" fill="#FF6DFB"/>
<path fill-rule="evenodd" clip-rule="evenodd" d="M82.9686 68.1769C78.1932 66.9603 73.8009 64.8034 69.7916 61.7059C65.7801 58.6109 62.7005 54.9953 60.5528 50.8594C58.4051 46.7234 57.1477 42.3419 56.7807 37.715L66.8002 38.9405C67.1857 41.2585 67.8803 43.4618 68.8841 45.5504C69.8879 47.639 71.2277 49.5832 72.9035 51.3829L80.1101 36.0422L85.6855 36.7132L87.489 41.6374L80.1932 57.0146C82.4052 58.2185 84.7102 59.0902 87.1083 59.6297C89.5063 60.1692 91.8515 60.5232 94.382 60.4579L97.4742 68.9008C92.4933 69.4002 87.7439 69.3934 82.9686 68.1769Z" fill="#FF6DFB"/>
<path d="M110.657 94.8712C111.564 88.2915 114.417 83.6575 119.313 81.8643L123.52 93.3506C118.549 95.5701 116.619 102.306 116.124 109.798L128.756 144.289L121.684 146.879L99.6618 86.7492L106.734 84.159L110.657 94.8712Z" fill="white"/>
<path d="M135.375 76.1978C145.983 72.3125 157.687 83.8443 163.153 102.978L136.85 112.612C140.578 120.684 147.204 125.763 153.188 123.571C156.316 122.425 158.806 117.885 158.811 113.896L165.717 111.366C167.326 122.076 163.925 131.408 156.989 133.949C146.924 137.635 135.531 127.584 129.521 111.175C123.554 94.8833 125.65 79.7593 135.375 76.1978ZM139.22 86.4871C133.916 88.4298 132.112 95.2883 133.759 104.173L154.833 96.4546C150.772 88.108 144.184 84.669 139.22 86.4871Z" fill="white"/>
<path d="M172.273 62.2103C180.569 59.1718 189.819 66.95 195.657 82.8902L207.575 115.43L200.503 118.02L188.843 86.1836C185.151 76.1038 180.048 71.8579 174.88 73.7508C171.82 74.8715 169.561 79.0221 169.019 85.3351L183.298 124.321L176.226 126.911L154.203 66.7817L161.276 64.1915L164.255 72.3251C165.54 67.2017 168.193 63.7046 172.273 62.2103Z" fill="white"/>
<path d="M206.387 19.6215L213.391 17.0562L244.469 101.909L237.464 104.474L235.318 98.6141C233.972 103.361 231.276 106.741 227.196 108.235C218.22 111.523 206.29 101.27 200.366 85.0954C194.528 69.1553 197.014 53.6225 205.99 50.335C210.07 48.8406 214.311 49.6802 218.362 52.3174L206.387 19.6215ZM224.071 97.9562C230.302 95.1941 232.269 85.7905 228.271 74.8752C224.347 64.1623 216.529 57.7936 210.209 60.1081C204.361 62.25 202.749 73.1895 206.312 82.9177C209.918 92.7631 218.223 100.098 224.071 97.9562Z" fill="white"/>
<path d="M227.019 29.0802C224.502 30.0017 221.371 27.5593 219.783 23.2227C218.195 18.886 219.008 14.9992 221.524 14.0777C223.972 13.1811 227.171 15.5985 228.759 19.9351C230.348 24.2718 229.467 28.1835 227.019 29.0802ZM227.172 40.0489L234.176 37.4836L256.198 97.6132L249.194 100.179L227.172 40.0489Z" fill="white"/>
<path d="M279.765 73.8612L284.863 84.6223C282.719 87.4016 280.579 88.7172 278.403 89.5142C270.242 92.5028 262.799 85.6579 257.605 71.4759L247.592 44.1349L237.91 47.6806L234.176 37.4836L243.857 33.9379L234.802 9.21452L241.874 6.62433L250.929 31.3477L260.265 27.9283L264 38.1253L254.664 41.5447L264.678 68.8857C267.597 76.8557 271.153 79.4079 275.098 77.9634C277.002 77.2661 278.562 75.631 279.765 73.8612Z" fill="white"/>
<path d="M243.669 -28.9188C246.311 -29.2225 248.502 -29.6932 250.243 -30.3307C253.872 -31.6598 256.807 -32.9838 259.049 -34.3028C259.141 -33.6726 259.252 -32.8005 259.382 -31.6864C259.512 -30.5723 259.613 -28.3969 259.687 -25.16C259.742 -21.9719 259.612 -18.9096 259.297 -15.9732C260.18 -16.2964 261.189 -16.0851 262.324 -15.3392C262.828 -15.026 263.394 -14.431 264.021 -13.5543C264.63 -12.7264 265.22 -11.532 265.792 -9.97126C266.346 -8.45927 266.742 -6.80676 266.982 -5.01374C267.228 -3.27848 267.25 -1.43351 267.049 0.521143C266.667 4.64351 264.605 8.27531 260.861 11.4165C259.436 10.3343 257.86 8.72655 256.133 6.59316C254.424 4.50854 253.074 2.68004 252.081 1.10764L250.527 -1.31065C253.285 -0.993155 255.523 -1.14871 257.239 -1.7773C259.274 -2.52263 260.402 -3.65507 260.625 -5.17464C260.729 -5.87666 260.656 -6.5691 260.406 -7.25193C259.959 -8.47129 259.178 -9.12534 258.061 -9.21409C257.358 -9.23347 256.725 -9.13988 256.161 -8.93335L254.55 -8.09425C254.158 -7.95057 253.843 -7.97373 253.607 -8.16372L255.189 -19.4469C253.62 -18.8722 252.198 -18.0472 250.923 -16.9719C249.648 -15.8965 248.766 -14.9649 248.276 -14.177L247.541 -12.995C246.639 -19.0261 245.349 -24.334 243.669 -28.9188Z" fill="white"/>
</g>
<defs>
<clipPath id="clip0_5875_37642">
<rect width="287.939" height="287.939" fill="white" transform="translate(-0.00537109 26.0249) rotate(-20.1152)"/>
</clipPath>
</defs>
</svg>
