<svg width="225" height="167" viewBox="0 0 225 167" fill="none" xmlns="http://www.w3.org/2000/svg">
<path d="M205.516 77.1336C207.805 69.6474 207.631 61.5662 204.894 54.0939C200.552 42.2385 189.815 33.4441 176.856 31.0933C173.519 30.4883 170.082 30.7857 166.9 31.9547L103.583 55.1442L93.2825 22.1137C90.78 14.1363 85.2806 7.70583 77.8151 4.00176C74.1469 2.17184 70.1424 1.11361 66.049 0.892477C61.9557 0.671345 57.8605 1.29201 54.0165 2.7161C40.2865 7.74471 31.5254 21.4344 32.7265 35.9973L40.1205 126.42L40.0413 126.449L81.4306 239.458L206.136 193.785C208.565 192.895 210.767 191.549 212.611 189.796C223.216 179.833 226.825 164.586 221.835 150.962C220.617 147.635 218.942 144.535 216.832 141.715C219.121 134.228 218.946 126.147 216.209 118.675C214.991 115.348 213.316 112.248 211.205 109.428C213.494 101.941 213.319 93.8602 210.583 86.3879C209.311 83.0804 207.627 79.954 205.516 77.1336ZM0.625582 150.468L35.8258 246.578C37.5375 251.251 42.6961 253.644 47.3696 251.933L64.5321 245.647L23.1428 132.638L5.9803 138.924C1.30681 140.636 -1.08608 145.794 0.625582 150.468Z" fill="#1877F2"/>
</svg>
