<svg width="247" height="163" viewBox="0 0 247 163" fill="none" xmlns="http://www.w3.org/2000/svg">
<path d="M160.766 136.373C178.559 129.857 198.228 130.719 215.446 138.771C232.664 146.823 246.021 161.404 252.578 179.308L257.523 192.809C260.145 199.97 259.834 207.874 256.656 214.781C253.478 221.688 247.694 227.033 240.577 229.64L52.7305 298.438C45.6133 301.045 37.7458 300.7 30.8585 297.479C23.9713 294.258 18.6286 288.426 16.0057 281.264L11.061 267.763C4.50381 249.86 5.28339 230.101 13.2282 212.833C21.173 195.565 35.6323 182.203 53.4252 175.687L160.766 136.373ZM209.086 43.3561C210.598 40.0267 213.323 37.4092 216.701 36.0394C220.08 34.6696 223.856 34.6511 227.259 35.9877C230.661 37.3242 233.432 39.9148 235.003 43.2291C236.575 46.5434 236.828 50.3308 235.712 53.8161L235.055 55.5115L211.094 107.59C209.635 110.761 207.072 113.283 203.887 114.684C200.702 116.084 197.112 116.267 193.793 115.197L192.121 114.539L166.157 102.397C162.837 100.863 160.221 98.1156 158.844 94.7156C157.467 91.3156 157.434 87.5207 158.75 84.1075C160.067 80.6944 162.634 77.9211 165.927 76.3554C169.219 74.7898 172.987 74.55 176.461 75.6853L178.137 76.3575L191.12 82.4284L209.086 43.3561ZM47.7584 -5.98301C65.5512 -12.4996 85.2202 -11.6372 102.438 -3.58538C119.656 4.46641 133.013 19.048 139.57 36.9515C146.127 54.8551 145.348 74.6141 137.403 91.8818C129.458 109.149 114.999 122.511 97.206 129.028C79.4132 135.545 59.7443 134.682 42.5262 126.63C25.3082 118.579 11.9514 103.997 5.39421 86.0934C-1.16295 68.1898 -0.383373 48.4308 7.56145 31.1631C15.5063 13.8955 29.9655 0.533599 47.7584 -5.98301Z" fill="#FC11F5"/>
</svg>
